# 3ds Max Wavefront OBJ Exporter v0.99 - (c)2007 guruware
# File Created: 08.05.2023 09:17:29

mtllib bull.mtl

#
# object Line002
#

v  350.9706 -90.2521 0.0002
v  369.7223 -39.3245 0.0001
v  369.7223 -39.3245 -49.9998
v  350.9706 -90.2521 -49.9998
v  21.3583 223.5888 0.0000
v  -117.6969 264.3589 -0.0000
v  -117.6969 264.3589 -50.0000
v  21.3583 223.5888 -50.0000
v  -133.7137 259.2630 -0.0000
v  -133.7137 259.2630 -50.0000
v  -142.0874 -91.3124 -0.0000
v  -99.2063 -113.1539 0.0000
v  -99.2063 -113.1539 -50.0000
v  -142.0874 -91.3124 -50.0000
v  119.3498 210.9374 -49.9999
v  119.3498 210.9373 0.0001
v  -99.2063 -113.1540 -100.0000
v  -99.2063 -113.1539 -72.9109
v  -99.2063 -113.1539 -50.5000
v  40.7989 -113.8748 -50.5000
v  40.7989 -113.8747 -84.9821
v  213.6619 211.7051 -49.9999
v  213.6619 211.7051 0.0001
v  135.1110 -72.0928 -50.4999
v  135.1110 -72.0927 -76.0780
v  273.0899 206.5505 -49.9999
v  273.0899 206.5504 0.0001
v  194.5391 -47.6644 -50.4999
v  194.5391 -47.6644 -63.6503
v  342.6993 182.9594 -49.9999
v  342.6993 182.9593 0.0001
v  264.1484 -71.2555 -50.4999
v  264.1484 -71.2555 -82.6810
v  384.1600 139.6559 -49.9998
v  384.1599 139.6559 0.0001
v  305.6091 -81.0803 -50.4998
v  305.6091 -81.0803 -84.8790
v  522.7286 -5.3596 0.0002
v  522.7286 -5.3596 -1.7056
v  517.1852 -5.6835 -8.6596
v  517.1852 -5.6835 0.0002
v  384.1599 87.3737 -99.9998
v  344.8845 3.1467 -99.9998
v  369.7223 -39.3244 -99.9998
v  388.4740 11.6032 -99.9998
v  350.9706 -90.2521 -50.4998
v  350.9706 -90.2521 -81.8778
v  -133.7137 206.9807 -100.0000
v  -133.7137 258.7402 -50.5000
v  -199.3370 248.4712 -50.5000
v  -199.3369 196.7117 -100.0000
v  -207.7107 -63.8904 -50.0000
v  -207.7107 -63.8903 -0.0000
v  -253.5028 227.3453 -50.5001
v  -253.5028 175.5858 -100.0001
v  -261.8765 -27.9198 -50.0000
v  -261.8765 -27.9198 -0.0000
v  -297.3601 210.9638 -50.5001
v  -297.3601 159.2043 -100.0001
v  -305.7339 -4.7451 -21.0638
v  -305.7339 -4.7451 -0.0000
v  431.8974 -45.6223 -65.1402
v  431.8974 -45.6223 -65.6402
v  429.3141 -80.6556 -60.1114
v  429.3141 -80.6556 -59.6114
v  -117.6969 263.8361 -50.5000
v  21.3583 223.0659 -50.5000
v  -205.8042 -249.5245 -50.0001
v  -205.8042 -249.5245 -50.5001
v  -256.8344 -250.1558 -50.5001
v  -256.8344 -250.1558 -50.0001
v  119.3498 210.4146 -50.4999
v  40.7989 -113.8748 0.0001
v  40.7989 -113.8748 -50.0000
v  213.6619 211.1823 -50.4999
v  135.1110 -72.0928 0.0001
v  135.1110 -72.0928 -49.9999
v  273.0899 206.0276 -50.4999
v  194.5390 -47.6645 0.0001
v  194.5391 -47.6644 -49.9999
v  264.1484 -71.2555 0.0001
v  264.1484 -71.2555 -49.9999
v  305.6091 -81.0803 0.0002
v  305.6091 -81.0803 -49.9998
v  -199.3370 248.9940 -0.0000
v  -199.3370 248.9940 -50.0000
v  -142.0874 -91.3124 -50.5000
v  -207.7107 -63.8904 -50.5000
v  -253.5028 227.8681 -0.0001
v  -253.5028 227.8681 -50.0001
v  -261.8765 -27.9198 -50.5000
v  -297.3602 211.4866 -0.0001
v  -297.3601 211.4866 -50.0001
v  -305.7339 -4.7451 -21.4987
v  -133.0811 -153.8466 -50.5000
v  -133.0811 -153.8466 -50.0000
v  -142.0874 -91.3124 -100.0000
v  -151.3710 -132.5721 -87.2605
v  -133.0811 -153.8466 -100.0000
v  -142.0874 -91.3124 -72.9109
v  -164.9489 -132.5721 -72.9109
v  -146.1418 -154.6562 -46.4346
v  -167.4161 -182.6518 -63.4523
v  -167.4161 -182.6518 -50.0000
v  -178.6775 -173.1114 -75.3605
v  -167.4161 -182.6518 -82.3776
v  -192.2554 -173.1114 -68.3600
v  -192.2554 -195.1953 -45.0643
v  -199.8171 -228.1801 -50.5001
v  -199.8171 -228.1801 -50.0001
v  -226.6360 -215.5905 -87.2606
v  -199.8171 -228.1801 -100.0001
v  -240.2139 -215.5905 -72.9110
v  -240.2140 -237.6744 -48.2279
v  -261.2014 -250.1559 -100.0001
v  -205.8041 -249.5245 -100.0001
v  -270.5648 -250.1559 -72.9110
v  378.4898 -64.8092 -99.9998
v  383.9399 -29.7758 -99.9998
v  373.0397 -99.8425 -57.9017
v  373.0397 -99.8426 -86.0990
v  378.4898 -64.8092 -49.9998
v  373.0397 -99.8425 -57.5112
v  388.4740 11.6032 -49.9999
v  388.4740 11.6032 -50.4999
v  383.9399 -29.7758 -50.4999
v  383.9399 -29.7758 -49.9999
v  397.1188 -80.6557 -99.9998
v  405.4357 -45.6223 -99.9998
v  388.8019 -115.6890 -59.6556
v  388.8019 -115.6891 -92.7894
v  397.1188 -80.6557 -49.9998
v  388.8019 -115.6890 -59.1556
v  405.4357 -45.6223 -50.4998
v  405.4357 -45.6223 -49.9998
v  429.3141 -80.6557 -92.7342
v  431.8974 -45.6223 -82.9327
v  377.5595 -264.3589 -99.9814
v  377.5595 -264.3587 -50.6698
v  427.5828 -264.3587 -50.6698
v  427.5829 -264.3589 -99.9814
v  426.7308 -115.6890 -61.4673
v  395.2269 -181.7550 -59.3754
v  395.2269 -181.7551 -90.6741
v  427.8484 -181.7549 -56.6065
v  395.2269 -181.7550 -58.8754
v  426.7308 -115.6890 -61.9673
v  427.8484 -181.7549 -57.1065
v  426.7308 -115.6891 -90.9073
v  427.8484 -181.7551 -92.4663
v  392.0926 -220.3590 -60.1062
v  392.0926 -220.3591 -93.3056
v  433.9509 -220.3589 -49.9998
v  392.0926 -220.3590 -59.6062
v  433.9509 -220.3589 -50.4998
v  433.9509 -220.3591 -99.9998
v  426.0745 -222.6763 -50.6698
v  426.0745 -222.6763 -50.1717
v  392.1404 -220.3591 -93.2872
v  392.1404 -220.3590 -60.2763
v  388.8228 -237.0554 -50.6698
v  388.8228 -237.0555 -99.9814
v  392.1404 -220.3590 -59.7782
v  425.4302 -237.0554 -50.1717
v  388.8228 -237.0554 -50.1717
v  425.4302 -237.0554 -50.6698
v  426.0746 -222.6765 -99.9814
v  425.4303 -237.0555 -99.9814
v  427.5828 -264.3587 -50.1717
v  377.5595 -264.3587 -50.1717
v  384.9492 105.6337 -18.1009
v  384.9492 105.6337 0.0002
v  396.4985 97.9104 -12.3358
v  396.4985 97.9104 0.0002
v  387.6848 71.8805 0.0002
v  399.2341 83.7783 0.0002
v  425.4899 71.9814 -6.0986
v  425.4899 71.9814 0.0002
v  399.2341 83.7783 -15.5069
v  428.2255 57.8493 0.0002
v  428.2255 57.8493 -8.1029
v  457.7480 46.2100 -7.6562
v  457.7480 46.2099 0.0002
v  460.4836 35.4379 0.0002
v  460.4836 35.4379 -8.1029
v  474.5346 35.2093 -7.1112
v  474.5345 35.2093 0.0002
v  471.4634 27.2471 0.0002
v  471.4634 27.2471 -6.2558
v  495.9781 29.0138 -8.5489
v  495.9781 29.0137 0.0002
v  483.5029 7.7179 0.0002
v  483.5029 7.7179 -10.9107
v  505.1656 17.3026 -8.3924
v  505.1655 17.3026 0.0002
v  492.6903 1.8708 0.0002
v  492.6903 1.8708 -10.4824
v  515.9912 2.0427 -9.7798
v  515.9911 2.0427 0.0002
v  510.4478 -4.1024 0.0002
v  510.4478 -4.1024 -8.6479
v  -365.2151 127.5863 -0.0001
v  -365.2151 127.5863 -21.3728
v  -301.5470 103.3708 -0.0001
v  -369.4020 36.4100 -0.0001
v  -310.4527 -123.3061 -0.0001
v  -310.4527 -123.3061 -24.6259
v  -344.3142 -134.8781 -24.1836
v  -344.3142 -134.8781 -0.0001
v  -310.4527 -123.3061 -24.6769
v  -344.3142 -134.8781 -24.3472
v  -459.7680 -2.9107 -0.0001
v  -462.7277 79.6438 -0.0001
v  -360.2457 -139.5639 -24.1836
v  -360.2457 -139.5639 -0.0001
v  -360.2457 -139.5639 -24.2392
v  -294.1135 -108.0819 -34.6456
v  -294.1135 -108.0819 -0.0000
v  -294.1135 -108.0819 -34.7046
v  -407.6162 -77.8723 -60.9028
v  -407.6162 -77.8723 -50.1862
v  -371.5989 -124.3396 -24.5215
v  -371.5990 -124.3396 -53.3368
v  -407.6162 -77.8723 -50.0001
v  -407.6163 -77.8723 -0.0001
v  -371.5989 -124.3396 -0.0001
v  -371.5989 -124.3396 -24.1836
v  -373.5888 -54.7663 -0.0001
v  -346.8072 -119.6538 -0.0001
v  -360.2457 -139.5639 -29.7429
v  388.4740 11.6032 0.0001
v  397.8663 90.8443 -15.5069
v  426.8577 64.9154 -8.1030
v  459.1158 40.8239 -8.1029
v  -367.3085 81.9981 -67.5648
v  -365.2151 127.5863 -29.3803
v  -408.0759 99.8186 -46.9165
v  -412.9331 94.1153 -50.5270
v  -370.6003 75.6106 -71.9681
v  -458.0810 78.5673 -139.6715
v  -465.7738 63.2010 -131.7016
v  -502.1821 18.1808 -138.1163
v  -498.0486 26.4375 -142.3987
v  -428.3138 41.8586 -157.8691
v  -422.8741 63.4752 -153.0210
v  -479.1311 18.3281 -149.5717
v  -482.0540 6.7130 -152.1767
v  -461.6917 -2.9107 -41.8290
v  -458.8336 77.5116 -40.7377
v  -38.9240 29.0763 -135.2669
v  -137.9005 57.8341 -148.5003
v  21.3583 171.3065 -100.0000
v  80.0744 22.3902 -111.0184
v  119.3498 158.6552 -99.9999
v  174.3865 43.6651 -135.2668
v  213.6619 159.4229 -99.9999
v  233.8145 53.3019 -148.5002
v  273.0899 154.2682 -99.9999
v  303.4240 38.9125 -148.5002
v  342.6993 149.0804 -99.9998
v  -203.5238 66.4107 -148.5003
v  -207.7107 -63.8904 -81.9208
v  -257.6896 73.8330 -148.5004
v  -261.8765 -27.9199 -68.9452
v  -301.5470 77.2296 -82.2788
v  -305.7338 -4.7451 -64.5574
v  -461.3676 -2.9107 -39.9580
v  342.6993 182.6206 -50.4999
v  384.1600 139.1331 -50.4998
v  387.6848 77.0622 -10.6203
v  472.9990 31.2282 -7.5672
v  489.7405 18.3658 -15.5069
v  498.9279 9.5867 -15.5069
v  513.2195 -1.0299 -10.7484
v  -365.2151 127.5863 -21.4529
v  -369.4020 36.4100 -105.7492
v  -373.5888 -54.7664 -100.0001
v  -458.7546 77.4569 -40.9748
v  -450.9366 72.0509 -64.4527
v  -450.5080 72.3285 -64.2773
v  -429.2764 -2.9107 -62.4706
v  -346.8073 -119.6539 -57.9757
v  -294.1135 -108.0819 -40.5467
v  -344.3143 -134.8782 -40.5467
v  -310.4527 -123.3062 -29.7198
v  -117.6969 212.0766 -100.0000
v  -369.3810 36.8658 -105.3673
v  -516.1716 9.1640 -146.7053
v  -521.5527 11.4708 -144.6649
v  -522.7285 9.1221 -143.4468
v  -517.0030 5.8601 -147.4463
v  -430.9718 75.2947 -62.4128
v  -400.8132 50.7047 -97.8491
v  -479.1311 14.6430 -149.5717
v  -205.8041 -249.5245 -72.9109
v  -133.0811 -153.8466 -72.9109
v  -164.9489 -132.5721 -50.5000
v  -167.4161 -182.6518 -72.9109
v  -192.2554 -173.1114 -58.7226
v  -199.8171 -228.1801 -72.9109
v  -240.2140 -215.5904 -68.1674
# 301 vertices

vn 0.4875 -0.8731 -0.0000
vn 0.9384 -0.3455 0.0000
vn 0.6636 -0.2443 0.7071
vn 0.1526 -0.9431 0.2954
vn 0.2053 0.9787 0.0000
vn -0.0114 0.9999 -0.0000
vn -0.0102 0.9295 -0.3687
vn 0.1916 0.8986 -0.3947
vn -0.2296 0.9733 -0.0000
vn -0.2143 0.8942 -0.3931
vn -0.4200 -0.9075 0.0000
vn -0.2359 -0.9718 0.0000
vn 0.0835 -0.9683 0.2353
vn -0.6337 -0.7447 0.2095
vn 0.0559 0.9153 -0.3988
vn 0.0601 0.9982 0.0000
vn 0.2261 -0.6003 -0.7672
vn 0.4220 -0.9066 0.0000
vn 0.4221 -0.9066 0.0000
vn 0.2045 -0.9789 -0.0000
vn 0.2084 -0.7927 -0.5729
vn 0.0358 0.9207 -0.3886
vn 0.0392 0.9992 0.0000
vn 0.3927 -0.9197 -0.0000
vn 0.4012 -0.7946 -0.4556
vn 0.1861 0.9068 -0.3783
vn 0.2052 0.9787 0.0000
vn 0.0316 -0.9995 -0.0000
vn 0.0627 -0.9182 -0.3912
vn 0.5044 0.8257 -0.2526
vn 0.5371 0.8435 0.0000
vn -0.2761 -0.9611 -0.0000
vn -0.3141 -0.7942 -0.5202
vn 0.8705 0.4334 -0.2331
vn 0.9236 0.3834 -0.0036
vn -0.2144 -0.9767 -0.0000
vn -0.1628 -0.7364 -0.6567
vn 0.7735 -0.3153 0.5498
vn 0.9160 -0.3678 -0.1604
vn 0.3260 -0.1923 -0.9256
vn -0.0633 -0.7341 0.6761
vn 0.6804 0.1305 -0.7211
vn 0.2859 -0.2050 -0.9361
vn -0.1769 -0.0906 -0.9800
vn 0.7246 -0.0189 -0.6889
vn -0.3000 -0.9539 -0.0000
vn -0.2740 -0.7725 -0.5729
vn -0.1178 0.5016 -0.8571
vn -0.1614 0.6821 -0.7132
vn -0.1845 0.6793 -0.7103
vn -0.1466 0.5346 -0.8323
vn -0.4715 -0.8819 0.0000
vn -0.2551 0.6683 -0.6988
vn -0.2121 0.5558 -0.8038
vn -0.5108 -0.8597 0.0000
vn -0.5275 0.5872 -0.6140
vn -0.3949 0.2001 -0.8967
vn 0.5633 -0.8263 0.0000
vn 0.2294 -0.3366 0.9133
vn 0.7052 0.6116 0.3586
vn 0.7326 0.6806 0.0000
vn 0.9973 -0.0735 0.0000
vn 0.7825 -0.0218 0.6222
vn -0.0083 0.6911 -0.7227
vn 0.1440 0.6840 -0.7152
vn 0.4900 -0.6381 0.5939
vn 0.6090 -0.7931 0.0000
vn -0.7940 -0.5831 0.1719
vn -0.8061 -0.2795 0.5216
vn 0.0417 0.6906 -0.7221
vn 0.0271 0.6909 -0.7224
vn 0.1436 0.6840 -0.7152
vn -0.2605 0.9655 -0.0000
vn -0.2370 0.8956 -0.3765
vn -0.9446 -0.3283 -0.0000
vn -0.3566 0.9342 -0.0000
vn -0.3306 0.8648 -0.3778
vn -0.5717 0.7939 0.2070
vn -0.5495 0.7607 -0.3454
vn 0.7085 -0.7058 0.0000
vn 0.5986 -0.5833 0.5491
vn -0.4873 -0.4051 -0.7736
vn -0.6530 0.0192 -0.7571
vn 0.2696 -0.4785 -0.8356
vn -0.8074 0.4751 -0.3500
vn 0.1336 -0.0630 0.9890
vn 0.7347 -0.6784 0.0000
vn 0.6217 -0.6213 0.4769
vn -0.3916 0.2478 -0.8861
vn 0.4002 -0.4253 -0.8118
vn -0.6551 0.6105 -0.4451
vn -0.0244 -0.0234 0.9994
vn 0.9022 -0.4314 0.0000
vn 0.6192 -0.3002 0.7256
vn -0.3673 0.6195 -0.6937
vn 0.4680 -0.0647 -0.8813
vn -0.6785 0.6731 -0.2943
vn -0.2377 0.1748 0.9555
vn -0.6358 -0.3135 -0.7054
vn 0.4897 -0.6385 -0.5938
vn -0.9343 -0.3458 0.0872
vn -0.3116 -0.1479 -0.9386
vn 0.4993 0.2189 -0.8383
vn -0.5638 -0.8259 0.0000
vn -0.6071 -0.6146 -0.5036
vn -0.1931 -0.0883 0.9772
vn -0.3372 -0.6801 0.6509
vn 0.9942 -0.1015 0.0361
vn 0.9993 -0.0377 0.0000
vn 0.9158 0.4015 0.0000
vn 0.4993 0.2189 0.8383
vn 0.0621 -0.1372 -0.9886
vn 0.4255 0.4606 -0.7790
vn -0.9048 -0.4258 0.0000
vn -0.5691 -0.2966 -0.7669
vn 0.0818 -0.1722 0.9817
vn -0.5385 -0.3774 0.7534
vn 0.3123 0.9500 0.0000
vn 0.4043 0.4718 0.7836
vn 0.7513 0.0245 -0.6595
vn 0.7113 0.6297 -0.3122
vn -0.6888 -0.4610 -0.5595
vn -0.8311 -0.5562 0.0000
vn 0.7344 -0.6788 0.0000
vn 0.6017 -0.5561 -0.5733
vn 0.7328 -0.0144 0.6803
vn -1.0000 -0.0080 -0.0000
vn -0.7182 0.0073 -0.6958
vn 0.6686 0.1527 0.7277
vn -0.7096 -0.0111 0.7045
vn 0.9996 -0.0283 0.0000
vn 0.9962 0.0867 0.0000
vn 0.7228 -0.0311 -0.6904
vn 0.6836 0.1438 -0.7155
vn -0.7352 -0.6779 -0.0000
vn -0.6374 -0.5465 -0.5432
vn 0.6186 -0.3788 0.6884
vn -0.6553 -0.5701 0.4956
vn 0.8452 -0.5345 0.0000
vn 0.6367 -0.3741 -0.6743
vn 0.7871 -0.6168 0.0000
vn 0.2809 -0.0056 0.9597
vn -0.5262 -0.8061 -0.2708
vn -0.7729 -0.6345 0.0000
vn -0.9572 0.2895 -0.0000
vn -0.5979 0.3072 -0.7404
vn -0.5780 -0.7604 0.2961
vn 0.6926 0.0117 0.7213
vn -0.5780 0.3491 0.7376
vn 0.9999 0.0169 0.0000
vn 0.3164 -0.0671 -0.9463
vn 0.6926 0.0117 -0.7213
vn 0.6017 -0.5561 0.5733
vn -0.6888 -0.4610 0.5595
vn 0.9769 0.1963 -0.0839
vn 0.6900 0.3790 -0.6166
vn 0.6499 0.6781 -0.3433
vn 0.4426 0.5707 0.6917
vn 0.6213 -0.1726 0.7643
vn 0.0154 -0.4362 0.8997
vn 0.6115 0.6346 -0.4726
vn 0.4524 0.5351 0.7134
vn -0.0541 -0.4496 -0.8916
vn -0.4465 -0.5653 0.6936
vn -0.4277 -0.5859 -0.6884
vn 0.4135 0.5959 -0.6885
vn 0.4085 0.5638 0.7178
vn -0.4109 -0.5707 0.7109
vn -0.3087 -0.5680 -0.7629
vn 0.2907 0.6617 -0.6911
vn 0.2798 0.6090 0.7422
vn -0.4864 -0.4451 0.7519
vn -0.6561 -0.5183 -0.5485
vn 0.4811 0.7373 -0.4743
vn 0.4278 0.6342 0.6441
vn -0.5350 -0.5274 0.6600
vn -0.6097 -0.5676 -0.5532
vn 0.7125 0.5470 -0.4396
vn 0.5710 0.4261 0.7017
vn -0.3157 -0.6609 0.6809
vn -0.3482 -0.7906 -0.5036
vn 0.6861 0.2940 -0.6654
vn 0.5398 0.4345 0.7210
vn -0.1965 -0.6899 0.6967
vn -0.2171 -0.8518 -0.4768
vn -0.4063 0.5089 0.7589
vn -0.6373 0.7706 -0.0000
vn -0.0000 0.0000 1.0000
vn 0.3847 -0.6422 0.6630
vn 0.5139 -0.8579 0.0000
vn 0.3028 -0.9530 0.0000
vn 0.2156 -0.6785 0.7023
vn -0.7079 -0.2381 0.6649
vn -0.7105 0.4236 0.5619
vn -0.3165 -0.9486 -0.0000
vn -0.2536 -0.7601 0.5983
vn -0.3165 -0.9486 0.0000
vn 0.9379 -0.3470 0.0000
vn 0.7369 -0.2727 0.6185
vn -0.8063 -0.4453 -0.3895
vn -0.8017 -0.5978 0.0000
vn -0.7960 -0.6052 0.0000
vn -0.4453 -0.6775 -0.5854
vn -0.8008 -0.5989 -0.0000
vn -0.5745 -0.4220 0.7014
vn -0.5612 -0.4267 0.7092
vn -0.7960 -0.6052 -0.0000
vn -0.0000 -0.0000 1.0000
vn -0.3016 -0.9437 -0.1362
vn 0.9856 -0.1690 0.0067
vn -0.4641 0.1877 -0.8657
vn 0.2659 0.1796 -0.9471
vn 0.0580 0.0553 -0.9968
vn -0.3023 0.4762 -0.8258
vn -0.5234 0.8205 -0.2297
vn -0.2866 0.7845 -0.5499
vn -0.0690 0.7374 -0.6720
vn -0.4537 0.7732 0.4431
vn -0.4330 0.8022 -0.4112
vn -0.6883 0.0121 0.7254
vn -0.1805 -0.0523 0.9822
vn -0.6483 0.6636 -0.3733
vn 0.1966 -0.6676 -0.7181
vn 0.4119 0.4462 -0.7945
vn -0.2331 0.2747 -0.9328
vn -0.0941 -0.0552 -0.9940
vn -0.2864 -0.1009 -0.9528
vn -0.8113 0.5327 -0.2411
vn 0.1564 -0.0805 -0.9844
vn 0.0703 0.0113 -0.9975
vn 0.0929 0.4607 -0.8827
vn -0.0256 -0.0595 -0.9979
vn 0.0228 0.3965 -0.9178
vn -0.2331 -0.0183 -0.9723
vn 0.0214 0.5082 -0.8610
vn -0.1348 -0.0258 -0.9905
vn 0.0451 0.5632 -0.8251
vn 0.3185 -0.1232 -0.9399
vn 0.4005 0.5917 -0.6997
vn -0.0079 -0.0584 -0.9983
vn -0.5002 -0.7427 -0.4452
vn -0.4224 -0.0571 -0.9046
vn -0.5266 -0.7609 -0.3792
vn -0.2667 -0.1906 -0.9447
vn 0.3628 -0.4177 -0.8330
vn 0.4609 0.2022 -0.8641
vn 0.4735 0.7292 -0.4941
vn 0.8794 0.3291 -0.3441
vn 0.8396 -0.3647 -0.4026
vn -0.2178 -0.0163 -0.9759
vn -0.0849 0.1591 -0.9836
vn 0.1315 -0.0375 -0.9906
vn 0.4981 -0.5455 -0.6740
vn -0.6364 0.7714 -0.0000
vn -0.2279 0.2573 -0.9391
vn -0.1269 -0.2625 -0.9565
vn -0.7729 0.5116 -0.3752
vn -0.5165 0.2527 -0.8181
vn -0.0067 0.5597 -0.8287
vn -0.5348 -0.1738 -0.8269
vn 0.1903 -0.5988 -0.7780
vn 0.8021 -0.3758 -0.4640
vn 0.1806 -0.8833 -0.4325
vn 0.4956 -0.8494 -0.1812
vn -0.0057 0.4296 -0.9030
vn 0.8268 0.2974 -0.4774
vn -0.1787 0.3158 -0.9318
vn -0.7764 0.5454 -0.3160
vn -0.8878 -0.3223 0.3286
vn -0.3478 -0.8258 -0.4439
vn -0.5213 0.7063 -0.4791
vn 0.1007 -0.9947 -0.0199
vn -0.3555 0.4074 -0.8412
vn 0.6080 -0.7939 0.0000
vn -0.6553 0.3456 0.6717
vn -0.7581 0.5528 0.3461
vn -0.7549 0.6038 0.2560
# 277 vertex normals

o Line002
g Line002
usemtl wire_138008110
s 1
f 4//4 3//3 2//2 1//1 
s 4
f 8//8 7//7 6//6 5//5 
s 2
f 7//7 10//10 9//9 6//6 
f 14//14 13//13 12//12 11//11 
s off
f 16//16 15//15 8//8 5//5 
f 21//21 20//20 19//19 18//18 17//17 
f 23//23 22//22 15//15 16//16 
f 25//25 24//24 20//20 21//21 
f 27//27 26//26 22//22 23//23 
f 29//29 28//28 24//24 25//25 
f 31//31 30//30 26//26 27//27 
f 33//33 32//32 28//28 29//29 
f 35//35 34//34 30//30 31//31 
f 37//37 36//36 32//32 33//33 
f 41//41 40//40 39//39 38//38 
f 45//45 44//44 43//43 42//42 
f 47//47 46//46 36//36 37//37 
f 51//51 50//50 49//49 48//48 
f 53//52 52//52 14//14 11//11 
f 55//54 54//53 50//50 51//51 
f 57//55 56//55 52//52 53//52 
f 59//57 58//56 54//53 55//54 
f 61//59 60//58 56//55 57//55 
s 1
f 65//63 64//62 63//61 62//60 
s 4
f 8//8 67//65 66//64 7//7 
s 2
f 7//7 66//64 49//49 10//10 
f 71//69 70//68 69//67 68//66 
s off
f 15//15 72//70 67//65 8//8 
f 74//20 73//20 12//12 13//13 
f 22//22 75//71 72//70 15//15 
f 77//24 76//24 73//20 74//20 
f 26//26 78//72 75//71 22//22 
f 80//28 79//28 76//24 77//24 
f 82//32 81//32 79//28 80//28 
f 84//36 83//36 81//32 82//32 
f 4//4 1//1 83//36 84//36 
f 86//74 85//73 9//9 10//10 
f 52//52 88//52 87//75 14//14 
f 90//77 89//76 85//73 86//74 
f 56//55 91//55 88//52 52//52 
f 93//79 92//78 89//76 90//77 
f 60//58 94//58 91//55 56//55 
f 96//81 95//80 19//19 13//13 
f 99//84 98//83 97//82 17//17 
f 98//83 101//85 100//75 97//82 
f 102//86 96//81 13//13 14//14 
f 104//88 103//87 95//80 96//81 
f 106//90 105//89 98//83 99//84 
f 105//89 107//91 101//85 98//83 
f 108//92 104//88 96//81 102//86 
f 110//94 109//93 103//87 104//88 
f 112//96 111//95 105//89 106//90 
f 111//95 113//97 107//91 105//89 
f 114//98 110//94 104//88 108//92 
f 68//66 69//67 109//93 110//94 
f 116//100 115//99 111//95 112//96 
f 115//99 117//101 113//97 111//95 
f 71//69 68//66 110//94 114//98 
f 119//103 118//102 44//44 45//45 
f 121//105 120//104 46//46 47//47 
f 123//107 122//106 3//3 4//4 
f 127//111 126//110 125//109 124//108 
f 129//113 128//112 118//102 119//103 
f 131//115 130//114 120//104 121//105 
f 133//117 132//116 122//106 123//107 
f 135//119 134//118 126//110 127//111 
f 137//121 136//120 128//112 129//113 
f 141//125 140//124 139//123 138//122 
f 142//126 65//63 132//116 133//117 
f 62//60 63//61 134//118 135//119 
f 144//128 143//127 130//114 131//115 
f 146//130 145//129 142//126 133//117 
f 145//129 148//132 147//131 142//126 
f 150//134 144//128 131//115 149//133 
f 152//136 151//135 143//127 144//128 
f 154//138 153//137 145//129 146//130 
f 153//137 155//139 148//132 145//129 
f 156//140 152//136 144//128 150//134 
f 158//142 157//141 155//139 153//137 
f 162//146 161//145 160//144 159//143 
f 165//149 164//148 158//142 163//147 
f 164//148 166//150 157//141 158//142 
f 168//152 162//146 159//143 167//151 
f 138//122 139//123 161//145 162//146 
f 170//154 169//153 164//148 165//149 
f 169//153 140//124 166//150 164//148 
f 141//125 138//122 162//146 168//152 
f 172//156 171//155 34//34 35//35 
f 174//158 173//157 171//155 172//156 
f 176//160 174//158 172//156 175//159 
f 178//162 177//161 173//157 174//158 
f 181//165 180//164 176//160 179//163 
f 180//164 178//162 174//158 176//160 
f 183//167 182//166 177//161 178//162 
f 185//169 184//168 180//164 181//165 
f 184//168 183//167 178//162 180//164 
f 187//171 186//170 182//166 183//167 
f 189//173 188//172 184//168 185//169 
f 188//172 187//171 183//167 184//168 
f 191//175 190//174 186//170 187//171 
f 193//177 192//176 188//172 189//173 
f 192//176 191//175 187//171 188//172 
f 195//179 194//178 190//174 191//175 
f 197//181 196//180 192//176 193//177 
f 196//180 195//179 191//175 192//176 
f 199//183 198//182 194//178 195//179 
f 201//185 200//184 196//180 197//181 
f 200//184 199//183 195//179 196//180 
f 38//38 39//39 198//182 199//183 
f 40//40 41//41 200//184 201//185 
f 41//41 38//38 199//183 200//184 
f 203//187 202//186 92//78 93//79 
f 202//186 205//188 204//188 92//78 
f 209//192 208//191 207//190 206//189 
f 208//191 211//191 210//190 207//190 
f 213//194 212//193 205//188 202//186 
f 215//196 214//195 208//191 209//192 
f 214//195 216//197 211//191 208//191 
f 218//199 217//198 60//58 61//59 
f 217//198 219//198 94//58 60//58 
f 223//203 222//202 221//201 220//200 
f 227//207 226//206 225//205 224//204 
f 226//206 229//208 228//188 225//205 
f 229//208 218//199 61//59 228//188 
f 206//189 207//190 217//198 218//199 
f 207//190 210//190 219//198 217//198 
f 230//209 216//197 222//202 223//203 
f 214//195 215//196 226//206 227//207 
f 215//196 209//192 229//208 226//206 
f 209//192 206//189 218//199 229//208 
s 1
f 3//3 124//108 231//210 2//2 
s off
f 44//44 47//47 37//37 43//43 
s 1
f 64//62 147//131 149//133 136//120 
s off
f 118//102 121//105 47//47 44//44 
f 122//106 127//111 124//108 3//3 
f 128//112 131//115 121//105 118//102 
f 132//116 135//119 127//111 122//106 
f 136//120 149//133 131//115 128//112 
f 65//63 62//60 135//119 132//116 
f 205//188 228//188 61//59 204//188 
f 212//193 225//205 228//188 205//188 
f 233//212 181//165 179//163 232//211 
f 234//213 185//169 181//165 233//212 
f 237//216 236//215 235//214 
f 239//218 238//217 237//216 235//214 
f 243//222 242//221 241//220 240//219 
f 247//226 246//225 245//224 244//223 
f 246//225 243//222 240//219 245//224 
s 4
f 213//194 249//228 248//227 212//193 
s 16
f 17//17 97//82 251//230 250//229 
s off
f 254//233 253//232 250//229 252//231 
f 256//235 255//234 253//232 254//233 
f 258//237 257//236 255//234 256//235 
f 260//239 259//238 257//236 258//237 
f 260//239 42//42 43//43 259//238 
f 97//82 262//241 261//240 251//230 
f 262//241 264//243 263//242 261//240 
f 264//243 266//245 265//244 263//242 
s 4
f 248//227 267//246 221//201 224//204 
s off
f 78//72 268//247 260//239 258//237 
f 268//247 269//248 42//42 260//239 
f 269//248 125//109 45//45 42//42 
f 270//249 175//159 231//210 124//108 
f 35//35 231//210 175//159 172//156 
f 173//157 232//211 179//163 270//249 171//155 
f 179//163 176//160 175//159 270//249 
f 173//157 177//161 233//212 232//211 
f 177//161 182//166 234//213 233//212 
f 182//166 186//170 271//250 234//213 
f 190//174 272//251 271//250 186//170 
f 190//174 194//178 273//252 272//251 
f 194//178 198//182 274//253 273//252 
f 39//39 40//40 201//185 274//253 198//182 
f 236//215 275//254 58//56 59//57 
f 277//256 276//255 265//244 266//245 
f 280//259 279//258 278//257 275//254 236//215 237//216 
f 249//228 213//194 202//186 203//187 
f 220//200 281//260 276//255 277//256 
f 283//262 282//261 277//256 266//245 
f 282//261 223//203 220//200 277//256 
f 163//147 158//142 153//137 154//138 
f 152//136 156//140 167//151 159//143 
f 159//143 160//144 151//135 152//136 
f 171//155 270//249 124//108 34//34 
f 285//264 284//263 282//261 283//262 
f 284//263 230//209 223//203 282//261 
s 4
f 212//193 248//227 224//204 225//205 
s 16
f 250//229 251//230 48//48 286//265 252//231 
s off
f 253//232 21//21 17//17 250//229 
f 255//234 25//25 21//21 253//232 
f 257//236 29//29 25//25 255//234 
f 259//238 33//33 29//29 257//236 
f 259//238 43//43 37//37 33//33 
f 261//240 51//51 48//48 251//230 
f 263//242 55//54 51//51 261//240 
f 265//244 59//57 55//54 263//242 
s 4
f 281//260 267//246 278//257 279//258 
s off
f 236//215 59//57 265//244 276//255 287//266 235//214 
f 276//255 281//260 279//258 280//259 287//266 
f 234//213 271//250 189//173 185//169 
f 271//250 272//251 193//177 189//173 
f 272//251 273//252 197//181 193//177 
f 274//253 201//185 197//181 273//252 
f 291//270 290//269 289//268 288//267 
f 238//217 292//271 280//259 237//216 
f 292//271 293//272 287//266 280//259 
f 293//272 239//218 235//214 287//266 
f 240//219 241//220 292//271 238//217 
f 241//220 244//223 293//272 292//271 
f 244//223 245//224 239//218 293//272 
f 245//224 240//219 238//217 239//218 
f 289//268 290//269 242//221 243//222 
f 290//269 291//270 247//226 242//221 
f 291//270 288//267 246//225 247//226 
f 288//267 289//268 243//222 246//225 
f 247//226 244//223 241//220 242//221 294//273 
f 20//20 74//20 13//13 19//19 
f 24//24 77//24 74//20 20//20 
f 28//28 80//28 77//24 24//24 
f 32//32 82//32 80//28 28//28 
f 36//36 84//36 82//32 32//32 
f 46//46 4//4 84//36 36//36 
f 50//50 86//74 10//10 49//49 
f 54//53 90//77 86//74 50//50 
f 58//56 93//79 90//77 54//53 
s 1
f 64//62 136//120 137//121 63//61 
s 4
f 67//65 252//231 286//265 66//64 
s 2
f 66//64 286//265 48//48 49//49 
f 70//68 117//101 295//274 69//67 
s off
f 72//70 254//233 252//231 67//65 
f 75//71 256//235 254//233 72//70 
f 78//72 258//237 256//235 75//71 
f 88//52 262//241 97//82 100//75 87//75 
f 91//55 264//243 262//241 88//52 
f 94//58 266//245 264//243 91//55 
f 95//80 296//80 18//18 19//19 
f 297//275 102//86 14//14 87//75 
f 103//87 298//87 296//80 95//80 
f 299//276 108//92 102//86 297//275 
f 109//93 300//93 298//87 103//87 
f 301//277 114//98 108//92 299//276 
f 69//67 295//274 300//93 109//93 
f 70//68 71//69 114//98 301//277 
f 120//104 123//107 4//4 46//46 
f 126//110 119//103 45//45 125//109 
f 130//114 133//117 123//107 120//104 
f 134//118 129//113 119//103 126//110 
f 140//124 169//153 170//154 139//123 
f 63//61 137//121 129//113 134//118 
f 143//127 146//130 133//117 130//114 
f 148//132 150//134 149//133 147//131 
f 151//135 154//138 146//130 143//127 
f 155//139 156//140 150//134 148//132 
f 157//141 167//151 156//140 155//139 
f 161//145 165//149 163//147 160//144 
f 166//150 168//152 167//151 157//141 
f 139//123 170//154 165//149 161//145 
f 140//124 141//125 168//152 166//150 
f 211//191 284//263 285//264 210//190 
f 216//197 230//209 284//263 211//191 
f 219//198 283//262 266//245 94//58 
f 222//202 227//207 224//204 221//201 
f 210//190 285//264 283//262 219//198 
f 216//197 214//195 227//207 222//202 
s 1
f 64//62 65//63 142//126 147//131 
s 4
f 267//246 281//260 220//200 221//201 
s off
f 78//72 26//26 30//30 268//247 
f 268//247 30//30 34//34 269//248 
f 269//248 34//34 124//108 125//109 
f 275//254 203//187 93//79 58//56 
f 278//257 249//228 203//187 275//254 
f 160//144 163//147 154//138 151//135 
s 4
f 267//246 248//227 249//228 278//257 
s off
f 101//85 297//275 87//75 100//75 
f 107//91 299//276 297//275 101//85 
f 113//97 301//277 299//276 107//91 
f 117//101 70//68 301//277 113//97 
s 2
f 117//101 115//99 116//100 295//274 
s off
f 296//80 99//84 17//17 18//18 
f 298//87 106//90 99//84 296//80 
f 300//93 112//96 106//90 298//87 
f 295//274 116//100 112//96 300//93 
# 281 polygons - 1 triangles

#
# object Line001
#

v  350.9706 -90.2521 -0.0001
v  369.7223 -39.3245 -0.0001
v  369.7223 -39.3245 49.9999
v  350.9706 -90.2521 49.9999
v  21.3583 223.5888 -0.0000
v  -117.6969 264.3589 -0.0000
v  -117.6969 264.3589 50.0000
v  21.3583 223.5888 50.0000
v  -133.7137 259.2630 -0.0000
v  -133.7137 259.2630 50.0000
v  -142.0874 -91.3124 -0.0001
v  -99.2063 -113.1539 -0.0001
v  -99.2063 -113.1540 49.9999
v  -142.0874 -91.3124 49.9999
v  119.3498 210.9374 50.0000
v  119.3498 210.9373 -0.0000
v  -99.2063 -113.1540 99.9999
v  -99.2063 -113.1540 72.9108
v  -99.2063 -113.1540 50.4999
v  40.7989 -113.8748 50.4999
v  40.7989 -113.8747 84.9821
v  213.6619 211.7051 50.0000
v  213.6619 211.7051 -0.0000
v  135.1110 -72.0928 50.4999
v  135.1110 -72.0928 76.0780
v  273.0899 206.5505 50.0000
v  273.0899 206.5504 -0.0000
v  194.5390 -47.6644 50.4999
v  194.5390 -47.6644 63.6503
v  342.6993 182.9594 49.9999
v  342.6993 182.9593 -0.0000
v  264.1484 -71.2555 50.4999
v  264.1484 -71.2555 82.6811
v  384.1599 139.6559 49.9999
v  384.1599 139.6559 -0.0000
v  305.6091 -81.0803 50.4999
v  305.6091 -81.0803 84.8790
v  522.7286 -5.3596 -0.0001
v  522.7286 -5.3596 1.7057
v  517.1852 -5.6835 8.6597
v  517.1852 -5.6835 -0.0001
v  384.1599 87.3736 99.9999
v  344.8845 3.1467 99.9999
v  369.7223 -39.3245 99.9999
v  388.4739 11.6032 99.9999
v  350.9706 -90.2521 50.4999
v  350.9706 -90.2521 81.8778
v  -133.7137 206.9807 100.0000
v  -133.7137 258.7402 50.5000
v  -199.3370 248.4712 50.5000
v  -199.3370 196.7117 100.0000
v  -207.7107 -63.8904 49.9999
v  -207.7107 -63.8903 -0.0001
v  -253.5028 227.3453 50.5000
v  -253.5028 175.5858 100.0000
v  -261.8765 -27.9198 49.9999
v  -261.8765 -27.9198 -0.0001
v  -297.3602 210.9638 50.5000
v  -297.3602 159.2043 100.0000
v  -305.7339 -4.7451 21.0636
v  -305.7339 -4.7451 -0.0001
v  431.8974 -45.6223 65.1403
v  431.8974 -45.6223 65.6403
v  429.3141 -80.6557 60.1115
v  429.3141 -80.6557 59.6115
v  -117.6969 263.8360 50.5000
v  21.3583 223.0659 50.5000
v  -205.8042 -249.5245 49.9999
v  -205.8042 -249.5245 50.4999
v  -256.8344 -250.1558 50.4999
v  -256.8344 -250.1558 49.9999
v  119.3498 210.4146 50.5000
v  40.7989 -113.8748 -0.0001
v  40.7989 -113.8748 49.9999
v  213.6619 211.1823 50.5000
v  135.1110 -72.0928 -0.0001
v  135.1110 -72.0928 49.9999
v  273.0899 206.0276 50.5000
v  194.5390 -47.6645 -0.0001
v  194.5390 -47.6644 49.9999
v  264.1484 -71.2555 -0.0001
v  264.1484 -71.2555 49.9999
v  305.6091 -81.0803 -0.0001
v  305.6091 -81.0803 49.9999
v  -199.3370 248.9940 -0.0000
v  -199.3370 248.9940 50.0000
v  -142.0874 -91.3124 50.4999
v  -207.7107 -63.8904 50.4999
v  -253.5028 227.8681 -0.0000
v  -253.5028 227.8681 50.0000
v  -261.8765 -27.9198 50.4999
v  -297.3602 211.4866 -0.0000
v  -297.3602 211.4866 50.0000
v  -305.7339 -4.7451 21.4986
v  -133.0812 -153.8466 50.4999
v  -133.0812 -153.8466 49.9999
v  -142.0874 -91.3124 99.9999
v  -151.3711 -132.5721 87.2604
v  -133.0812 -153.8466 99.9999
v  -142.0874 -91.3124 72.9108
v  -164.9490 -132.5722 72.9108
v  -146.1418 -154.6562 46.4345
v  -167.4161 -182.6518 63.4522
v  -167.4161 -182.6518 49.9999
v  -178.6775 -173.1114 75.3604
v  -167.4161 -182.6518 82.3775
v  -192.2554 -173.1114 68.3598
v  -192.2554 -195.1953 45.0641
v  -199.8171 -228.1801 50.4999
v  -199.8171 -228.1801 49.9999
v  -226.6361 -215.5905 87.2604
v  -199.8171 -228.1801 99.9999
v  -240.2140 -215.5905 72.9108
v  -240.2140 -237.6744 48.2277
v  -261.2014 -250.1559 99.9999
v  -205.8042 -249.5245 99.9999
v  -270.5648 -250.1559 72.9108
v  378.4898 -64.8092 99.9999
v  383.9399 -29.7758 99.9999
v  373.0397 -99.8425 57.9018
v  373.0397 -99.8426 86.0990
v  378.4898 -64.8092 49.9999
v  373.0397 -99.8425 57.5113
v  388.4740 11.6032 49.9999
v  388.4740 11.6032 50.4999
v  383.9399 -29.7758 50.4999
v  383.9399 -29.7758 49.9999
v  397.1188 -80.6557 99.9999
v  405.4357 -45.6223 99.9999
v  388.8018 -115.6890 59.6556
v  388.8018 -115.6891 92.7894
v  397.1188 -80.6557 49.9999
v  388.8018 -115.6890 59.1556
v  405.4357 -45.6223 50.4999
v  405.4357 -45.6223 49.9999
v  429.3141 -80.6557 92.7343
v  431.8974 -45.6223 82.9328
v  377.5595 -264.3589 99.9815
v  377.5595 -264.3587 50.6699
v  427.5828 -264.3587 50.6699
v  427.5828 -264.3589 99.9815
v  426.7308 -115.6890 61.4674
v  395.2269 -181.7550 59.3755
v  395.2269 -181.7551 90.6742
v  427.8484 -181.7549 56.6066
v  395.2269 -181.7550 58.8755
v  426.7308 -115.6890 61.9674
v  427.8484 -181.7549 57.1066
v  426.7308 -115.6891 90.9074
v  427.8484 -181.7551 92.4664
v  392.0925 -220.3590 60.1063
v  392.0925 -220.3591 93.3057
v  433.9509 -220.3589 49.9999
v  392.0925 -220.3590 59.6063
v  433.9509 -220.3589 50.4999
v  433.9509 -220.3591 99.9999
v  426.0745 -222.6763 50.6699
v  426.0745 -222.6763 50.1718
v  392.1404 -220.3591 93.2873
v  392.1404 -220.3590 60.2763
v  388.8227 -237.0554 50.6699
v  388.8227 -237.0555 99.9815
v  392.1404 -220.3590 59.7782
v  425.4302 -237.0554 50.1718
v  388.8227 -237.0554 50.1718
v  425.4302 -237.0554 50.6699
v  426.0745 -222.6765 99.9815
v  425.4302 -237.0555 99.9815
v  427.5828 -264.3587 50.1718
v  377.5595 -264.3587 50.1718
v  384.9492 105.6337 18.1010
v  384.9492 105.6337 -0.0001
v  396.4985 97.9104 12.3359
v  396.4985 97.9104 -0.0001
v  387.6848 71.8805 -0.0001
v  399.2341 83.7783 -0.0001
v  425.4899 71.9814 6.0987
v  425.4899 71.9814 -0.0001
v  399.2341 83.7783 15.5070
v  428.2255 57.8493 -0.0001
v  428.2255 57.8493 8.1031
v  457.7480 46.2100 7.6563
v  457.7480 46.2099 -0.0001
v  460.4836 35.4379 -0.0001
v  460.4836 35.4379 8.1031
v  474.5346 35.2093 7.1114
v  474.5345 35.2093 -0.0001
v  471.4634 27.2471 -0.0001
v  471.4634 27.2471 6.2559
v  495.9781 29.0138 8.5490
v  495.9781 29.0137 -0.0001
v  483.5029 7.7179 -0.0001
v  483.5029 7.7179 10.9108
v  505.1656 17.3026 8.3925
v  505.1655 17.3026 -0.0001
v  492.6903 1.8708 -0.0001
v  492.6903 1.8708 10.4826
v  515.9912 2.0427 9.7799
v  515.9911 2.0427 -0.0001
v  510.4478 -4.1024 -0.0001
v  510.4478 -4.1024 8.6480
v  -365.2151 127.5863 -0.0000
v  -365.2151 127.5863 21.3727
v  -301.5470 103.3708 -0.0001
v  -369.4020 36.4100 -0.0001
v  -310.4527 -123.3061 -0.0001
v  -310.4527 -123.3061 24.6258
v  -344.3143 -134.8781 24.1834
v  -344.3142 -134.8781 -0.0001
v  -310.4527 -123.3061 24.6767
v  -344.3143 -134.8781 24.3470
v  -459.7680 -2.9107 -0.0001
v  -462.7277 79.6438 -0.0000
v  -360.2457 -139.5639 24.1834
v  -360.2457 -139.5639 -0.0001
v  -360.2457 -139.5639 24.2390
v  -294.1135 -108.0819 34.6454
v  -294.1135 -108.0819 -0.0001
v  -294.1135 -108.0819 34.7044
v  -407.6162 -77.8724 60.9026
v  -407.6162 -77.8723 50.1860
v  -371.5989 -124.3396 24.5213
v  -371.5990 -124.3397 53.3366
v  -407.6162 -77.8723 49.9999
v  -407.6163 -77.8723 -0.0001
v  -371.5989 -124.3396 -0.0001
v  -371.5989 -124.3396 24.1834
v  -373.5888 -54.7663 -0.0001
v  -346.8072 -119.6538 -0.0001
v  -360.2457 -139.5639 29.7427
v  388.4740 11.6032 -0.0000
v  397.8663 90.8443 15.5070
v  426.8577 64.9154 8.1031
v  459.1158 40.8239 8.1031
v  -367.3085 81.9981 67.5646
v  -365.2151 127.5863 29.3802
v  -408.0759 99.8186 46.9164
v  -412.9331 94.1153 50.5268
v  -370.6003 75.6105 71.9679
v  -458.0811 78.5673 139.6714
v  -465.7739 63.2010 131.7015
v  -502.1822 18.1807 138.1161
v  -498.0486 26.4374 142.3985
v  -428.3138 41.8586 157.8689
v  -422.8742 63.4752 153.0208
v  -479.1312 18.3281 149.5715
v  -482.0540 6.7129 152.1765
v  -461.6917 -2.9107 41.8288
v  -458.8336 77.5115 40.7375
v  -38.9240 29.0762 135.2668
v  -137.9006 57.8341 148.5002
v  21.3583 171.3065 100.0000
v  80.0743 22.3902 111.0184
v  119.3498 158.6551 100.0000
v  174.3865 43.6651 135.2669
v  213.6619 159.4229 99.9999
v  233.8145 53.3019 148.5002
v  273.0899 154.2682 99.9999
v  303.4239 38.9125 148.5002
v  342.6993 149.0804 99.9999
v  -203.5238 66.4106 148.5002
v  -207.7107 -63.8904 81.9207
v  -257.6897 73.8330 148.5002
v  -261.8765 -27.9199 68.9451
v  -301.5470 77.2296 82.2786
v  -305.7339 -4.7451 64.5573
v  -461.3676 -2.9107 39.9578
v  342.6993 182.6206 50.4999
v  384.1599 139.1331 50.4999
v  387.6848 77.0622 10.6204
v  472.9990 31.2282 7.5673
v  489.7405 18.3658 15.5070
v  498.9279 9.5867 15.5070
v  513.2195 -1.0299 10.7485
v  -365.2151 127.5863 21.4527
v  -369.4020 36.4099 105.7490
v  -373.5888 -54.7664 99.9999
v  -458.7546 77.4569 40.9747
v  -450.9366 72.0508 64.4525
v  -450.5080 72.3285 64.2772
v  -429.2764 -2.9108 62.4704
v  -346.8073 -119.6539 57.9755
v  -294.1135 -108.0819 40.5466
v  -344.3143 -134.8782 40.5465
v  -310.4527 -123.3062 29.7196
v  -117.6969 212.0766 100.0000
v  -369.3810 36.8658 105.3672
v  -516.1716 9.1640 146.7051
v  -521.5528 11.4708 144.6647
v  -522.7286 9.1221 143.4466
v  -517.0031 5.8600 147.4461
v  -430.9718 75.2946 62.4126
v  -400.8132 50.7047 97.8489
v  -479.1312 14.6429 149.5715
v  -205.8042 -249.5245 72.9108
v  -133.0812 -153.8466 72.9108
v  -164.9490 -132.5722 50.4999
v  -167.4161 -182.6518 72.9108
v  -192.2554 -173.1114 58.7224
v  -199.8171 -228.1801 72.9108
v  -240.2140 -215.5904 68.1672
# 301 vertices

vn 0.4875 -0.8731 0.0000
vn 0.9384 -0.3455 0.0000
vn 0.6636 -0.2443 -0.7071
vn 0.1526 -0.9431 -0.2954
vn 0.2053 0.9787 0.0000
vn -0.0114 0.9999 0.0000
vn -0.0102 0.9295 0.3687
vn 0.1916 0.8986 0.3947
vn -0.2296 0.9733 0.0000
vn -0.2143 0.8942 0.3931
vn -0.4200 -0.9075 -0.0000
vn -0.2359 -0.9718 -0.0000
vn 0.0835 -0.9683 -0.2353
vn -0.6337 -0.7447 -0.2095
vn 0.0559 0.9153 0.3988
vn 0.0601 0.9982 -0.0000
vn 0.2261 -0.6003 0.7672
vn 0.4220 -0.9066 -0.0000
vn 0.4221 -0.9066 -0.0000
vn 0.2045 -0.9789 0.0000
vn 0.2084 -0.7927 0.5729
vn 0.0358 0.9207 0.3886
vn 0.0392 0.9992 -0.0000
vn 0.3927 -0.9197 0.0000
vn 0.4012 -0.7946 0.4556
vn 0.1861 0.9068 0.3783
vn 0.2052 0.9787 -0.0000
vn 0.0316 -0.9995 0.0000
vn 0.0627 -0.9182 0.3912
vn 0.5044 0.8257 0.2526
vn 0.5371 0.8435 -0.0000
vn -0.2761 -0.9611 0.0000
vn -0.3141 -0.7942 0.5202
vn 0.8705 0.4334 0.2331
vn 0.9236 0.3834 0.0036
vn -0.2144 -0.9767 0.0000
vn -0.1628 -0.7364 0.6567
vn 0.7735 -0.3153 -0.5498
vn 0.9160 -0.3678 0.1604
vn 0.3260 -0.1923 0.9256
vn -0.0633 -0.7341 -0.6761
vn 0.6804 0.1305 0.7211
vn 0.2859 -0.2050 0.9361
vn -0.1769 -0.0906 0.9800
vn 0.7246 -0.0189 0.6889
vn -0.3000 -0.9539 0.0000
vn -0.2740 -0.7725 0.5729
vn -0.1178 0.5016 0.8571
vn -0.1614 0.6821 0.7132
vn -0.1845 0.6793 0.7103
vn -0.1466 0.5346 0.8323
vn -0.4715 -0.8819 -0.0000
vn -0.2551 0.6683 0.6988
vn -0.2121 0.5558 0.8038
vn -0.5108 -0.8597 -0.0000
vn -0.5275 0.5872 0.6140
vn -0.3949 0.2001 0.8967
vn 0.5633 -0.8263 -0.0000
vn 0.2294 -0.3366 -0.9133
vn 0.7052 0.6116 -0.3586
vn 0.7326 0.6806 0.0000
vn 0.9973 -0.0735 -0.0000
vn 0.7825 -0.0218 -0.6222
vn -0.0083 0.6911 0.7227
vn 0.1440 0.6840 0.7152
vn 0.4900 -0.6381 -0.5939
vn 0.6090 -0.7931 -0.0000
vn -0.7940 -0.5831 -0.1719
vn -0.8061 -0.2795 -0.5216
vn 0.0417 0.6906 0.7221
vn 0.0271 0.6909 0.7224
vn 0.1436 0.6840 0.7152
vn -0.2761 -0.9611 -0.0000
vn -0.2144 -0.9767 -0.0000
vn -0.2605 0.9655 0.0000
vn -0.2370 0.8956 0.3765
vn -0.9446 -0.3283 -0.0000
vn -0.3566 0.9342 0.0000
vn -0.3306 0.8648 0.3778
vn -0.5717 0.7939 -0.2070
vn -0.5495 0.7607 0.3454
vn 0.7085 -0.7058 -0.0000
vn 0.5986 -0.5833 -0.5491
vn -0.4873 -0.4051 0.7736
vn -0.6530 0.0192 0.7571
vn 0.2696 -0.4785 0.8356
vn -0.8074 0.4751 0.3500
vn 0.1336 -0.0630 -0.9890
vn 0.7347 -0.6784 -0.0000
vn 0.6217 -0.6213 -0.4769
vn -0.3916 0.2478 0.8861
vn 0.4002 -0.4253 0.8118
vn -0.6551 0.6105 0.4451
vn -0.0244 -0.0234 -0.9994
vn 0.9022 -0.4314 -0.0000
vn 0.6192 -0.3002 -0.7256
vn -0.3673 0.6195 0.6937
vn 0.4680 -0.0647 0.8813
vn -0.6785 0.6731 0.2943
vn -0.2377 0.1748 -0.9555
vn -0.6358 -0.3135 0.7054
vn 0.4897 -0.6385 0.5938
vn -0.9343 -0.3458 -0.0872
vn -0.3116 -0.1479 0.9386
vn 0.4993 0.2189 0.8383
vn -0.5638 -0.8259 -0.0000
vn -0.6071 -0.6146 0.5036
vn -0.1931 -0.0883 -0.9772
vn -0.3372 -0.6801 -0.6509
vn 0.9942 -0.1015 -0.0361
vn 0.9993 -0.0377 0.0000
vn 0.9158 0.4015 0.0000
vn 0.4993 0.2189 -0.8383
vn 0.0621 -0.1372 0.9886
vn 0.4255 0.4606 0.7790
vn -0.9048 -0.4258 -0.0000
vn -0.5691 -0.2966 0.7669
vn 0.0818 -0.1722 -0.9817
vn -0.5385 -0.3774 -0.7534
vn 0.3123 0.9500 0.0000
vn 0.4043 0.4718 -0.7836
vn 0.7513 0.0245 0.6595
vn 0.7113 0.6297 0.3122
vn -0.6888 -0.4610 0.5595
vn -0.8311 -0.5562 -0.0000
vn 0.7344 -0.6788 -0.0000
vn 0.6017 -0.5561 0.5733
vn 0.7328 -0.0144 -0.6803
vn -1.0000 -0.0080 -0.0000
vn -0.7182 0.0073 0.6958
vn 0.6686 0.1527 -0.7277
vn -0.7096 -0.0111 -0.7045
vn 0.9996 -0.0283 -0.0000
vn 0.9962 0.0867 0.0000
vn 0.7228 -0.0311 0.6904
vn 0.6836 0.1438 0.7155
vn -0.7352 -0.6779 -0.0000
vn -0.6374 -0.5465 0.5432
vn 0.6186 -0.3788 -0.6884
vn -0.6553 -0.5701 -0.4956
vn 0.8452 -0.5345 -0.0000
vn 0.6367 -0.3741 0.6743
vn 0.7871 -0.6168 -0.0000
vn 0.2809 -0.0056 -0.9597
vn -0.5262 -0.8061 0.2708
vn -0.7729 -0.6345 -0.0000
vn -0.9572 0.2895 0.0000
vn -0.5979 0.3072 0.7404
vn -0.5780 -0.7604 -0.2961
vn 0.6926 0.0117 -0.7213
vn -0.5780 0.3491 -0.7376
vn 0.9999 0.0169 0.0000
vn 0.3164 -0.0671 0.9463
vn 0.6926 0.0117 0.7213
vn 0.6017 -0.5561 -0.5733
vn -0.6888 -0.4610 -0.5595
vn 0.9769 0.1963 0.0839
vn 0.6900 0.3790 0.6166
vn 0.6499 0.6781 0.3433
vn 0.4426 0.5707 -0.6917
vn 0.6213 -0.1726 -0.7643
vn 0.0154 -0.4362 -0.8997
vn 0.6115 0.6346 0.4726
vn 0.4524 0.5351 -0.7134
vn -0.0541 -0.4496 0.8916
vn -0.4465 -0.5653 -0.6936
vn -0.4277 -0.5859 0.6884
vn 0.4135 0.5959 0.6885
vn 0.4085 0.5638 -0.7178
vn -0.4109 -0.5707 -0.7109
vn -0.3087 -0.5680 0.7629
vn 0.2907 0.6617 0.6911
vn 0.2798 0.6090 -0.7422
vn -0.4864 -0.4451 -0.7519
vn -0.6561 -0.5183 0.5485
vn 0.4811 0.7373 0.4743
vn 0.4278 0.6342 -0.6441
vn -0.5350 -0.5274 -0.6600
vn -0.6097 -0.5676 0.5532
vn 0.7125 0.5470 0.4396
vn 0.5710 0.4261 -0.7017
vn -0.3157 -0.6609 -0.6809
vn -0.3482 -0.7906 0.5036
vn 0.6861 0.2940 0.6654
vn 0.5398 0.4345 -0.7210
vn -0.1965 -0.6899 -0.6967
vn -0.2171 -0.8518 0.4768
vn -0.4063 0.5089 -0.7589
vn -0.6373 0.7706 0.0000
vn -0.0000 0.0000 -1.0000
vn 0.3847 -0.6422 -0.6630
vn 0.5139 -0.8579 -0.0000
vn 0.3028 -0.9530 -0.0000
vn 0.2156 -0.6785 -0.7023
vn -0.7079 -0.2381 -0.6649
vn -0.7105 0.4236 -0.5619
vn -0.3165 -0.9486 -0.0000
vn -0.2536 -0.7601 -0.5983
vn 0.9379 -0.3470 -0.0000
vn 0.7369 -0.2727 -0.6185
vn -0.8063 -0.4453 0.3895
vn -0.8017 -0.5978 -0.0000
vn -0.7960 -0.6052 -0.0000
vn -0.4453 -0.6775 0.5854
vn -0.8008 -0.5989 -0.0000
vn -0.5745 -0.4220 -0.7014
vn -0.5612 -0.4267 -0.7092
vn -0.3016 -0.9437 0.1362
vn 0.9856 -0.1690 -0.0067
vn -0.4641 0.1877 0.8657
vn 0.2659 0.1796 0.9471
vn 0.0580 0.0553 0.9968
vn -0.3023 0.4762 0.8258
vn -0.5234 0.8205 0.2297
vn -0.2866 0.7845 0.5499
vn -0.0690 0.7374 0.6720
vn -0.4537 0.7732 -0.4431
vn -0.4330 0.8022 0.4112
vn -0.6883 0.0121 -0.7254
vn -0.1805 -0.0523 -0.9822
vn -0.6483 0.6636 0.3733
vn 0.1966 -0.6676 0.7181
vn 0.4119 0.4462 0.7945
vn -0.2331 0.2747 0.9328
vn -0.0941 -0.0552 0.9940
vn -0.2864 -0.1009 0.9528
vn -0.8113 0.5327 0.2411
vn 0.1564 -0.0805 0.9844
vn 0.0703 0.0113 0.9975
vn 0.0929 0.4607 0.8827
vn -0.0256 -0.0595 0.9979
vn 0.0228 0.3965 0.9178
vn -0.2331 -0.0183 0.9723
vn 0.0214 0.5082 0.8610
vn -0.1348 -0.0258 0.9905
vn 0.0451 0.5632 0.8251
vn 0.3185 -0.1232 0.9399
vn 0.4005 0.5917 0.6997
vn -0.0079 -0.0584 0.9983
vn -0.5002 -0.7427 0.4452
vn -0.4224 -0.0571 0.9046
vn -0.5266 -0.7609 0.3792
vn -0.2667 -0.1906 0.9447
vn 0.3628 -0.4177 0.8330
vn 0.4609 0.2022 0.8641
vn 0.4735 0.7292 0.4941
vn 0.8794 0.3291 0.3441
vn 0.8396 -0.3647 0.4026
vn -0.2178 -0.0163 0.9759
vn -0.0849 0.1591 0.9836
vn 0.1315 -0.0375 0.9906
vn 0.4981 -0.5455 0.6740
vn -0.6364 0.7714 0.0000
vn -0.2279 0.2573 0.9391
vn -0.1269 -0.2625 0.9565
vn -0.7729 0.5116 0.3752
vn -0.5165 0.2527 0.8181
vn -0.0067 0.5597 0.8287
vn -0.5348 -0.1738 0.8269
vn 0.1903 -0.5988 0.7780
vn 0.8021 -0.3758 0.4640
vn 0.1806 -0.8833 0.4325
vn 0.4956 -0.8494 0.1812
vn -0.0057 0.4296 0.9030
vn 0.8268 0.2974 0.4774
vn -0.1787 0.3158 0.9318
vn -0.7764 0.5454 0.3160
vn -0.8878 -0.3223 -0.3286
vn -0.3478 -0.8258 0.4439
vn -0.5213 0.7063 0.4791
vn 0.1007 -0.9947 0.0199
vn -0.3555 0.4074 0.8412
vn 0.6080 -0.7939 -0.0000
vn -0.6553 0.3456 -0.6717
vn -0.7581 0.5528 -0.3461
vn -0.7549 0.6038 -0.2560
# 276 vertex normals

o Line001
g Line001
usemtl wire_138008110
s 1
f 302//278 303//279 304//280 305//281 
s 4
f 306//282 307//283 308//284 309//285 
s 2
f 307//283 310//286 311//287 308//284 
f 312//288 313//289 314//290 315//291 
s off
f 306//282 309//285 316//292 317//293 
f 318//294 319//295 320//296 321//297 322//298 
f 317//293 316//292 323//299 324//300 
f 322//298 321//297 325//301 326//302 
f 324//300 323//299 327//303 328//304 
f 326//302 325//301 329//305 330//306 
f 328//304 327//303 331//307 332//308 
f 330//306 329//305 333//309 334//310 
f 332//308 331//307 335//311 336//312 
f 334//310 333//309 337//313 338//314 
f 339//315 340//316 341//317 342//318 
f 343//319 344//320 345//321 346//322 
f 338//314 337//313 347//323 348//324 
f 349//325 350//326 351//327 352//328 
f 312//288 315//291 353//329 354//329 
f 352//328 351//327 355//330 356//331 
f 354//329 353//329 357//332 358//332 
f 356//331 355//330 359//333 360//334 
f 358//332 357//332 361//335 362//336 
s 1
f 363//337 364//338 365//339 366//340 
s 4
f 308//284 367//341 368//342 309//285 
s 2
f 311//287 350//326 367//341 308//284 
f 369//343 370//344 371//345 372//346 
s off
f 309//285 368//342 373//347 316//292 
f 314//290 313//289 374//297 375//297 
f 316//292 373//347 376//348 323//299 
f 375//297 374//297 377//301 378//301 
f 323//299 376//348 379//349 327//303 
f 378//301 377//301 380//305 381//305 
f 381//305 380//305 382//309 383//350 
f 383//350 382//309 384//313 385//351 
f 385//351 384//313 302//278 305//281 
f 311//287 310//286 386//352 387//353 
f 315//291 388//354 389//329 353//329 
f 387//353 386//352 390//355 391//356 
f 353//329 389//329 392//332 357//332 
f 391//356 390//355 393//357 394//358 
f 357//332 392//332 395//335 361//335 
f 314//290 320//296 396//359 397//360 
f 318//294 398//361 399//362 400//363 
f 398//361 401//354 402//364 399//362 
f 315//291 314//290 397//360 403//365 
f 397//360 396//359 404//366 405//367 
f 400//363 399//362 406//368 407//369 
f 399//362 402//364 408//370 406//368 
f 403//365 397//360 405//367 409//371 
f 405//367 404//366 410//372 411//373 
f 407//369 406//368 412//374 413//375 
f 406//368 408//370 414//376 412//374 
f 409//371 405//367 411//373 415//377 
f 411//373 410//372 370//344 369//343 
f 413//375 412//374 416//378 417//379 
f 412//374 414//376 418//380 416//378 
f 415//377 411//373 369//343 372//346 
f 346//322 345//321 419//381 420//382 
f 348//324 347//323 421//383 422//384 
f 305//281 304//280 423//385 424//386 
f 425//387 426//388 427//389 428//390 
f 420//382 419//381 429//391 430//392 
f 422//384 421//383 431//393 432//394 
f 424//386 423//385 433//395 434//396 
f 428//390 427//389 435//397 436//398 
f 430//392 429//391 437//399 438//400 
f 439//401 440//402 441//403 442//404 
f 434//396 433//395 366//340 443//405 
f 436//398 435//397 364//338 363//337 
f 432//394 431//393 444//406 445//407 
f 434//396 443//405 446//408 447//409 
f 443//405 448//410 449//411 446//408 
f 450//412 432//394 445//407 451//413 
f 445//407 444//406 452//414 453//415 
f 447//409 446//408 454//416 455//417 
f 446//408 449//411 456//418 454//416 
f 451//413 445//407 453//415 457//419 
f 454//416 456//418 458//420 459//421 
f 460//422 461//423 462//424 463//425 
f 464//426 459//421 465//427 466//428 
f 459//421 458//420 467//429 465//427 
f 468//430 460//422 463//425 469//431 
f 463//425 462//424 440//402 439//401 
f 466//428 465//427 470//432 471//433 
f 465//427 467//429 441//403 470//432 
f 469//431 463//425 439//401 442//404 
f 336//312 335//311 472//434 473//435 
f 473//435 472//434 474//436 475//437 
f 476//438 473//435 475//437 477//439 
f 475//437 474//436 478//440 479//441 
f 480//442 477//439 481//443 482//444 
f 477//439 475//437 479//441 481//443 
f 479//441 478//440 483//445 484//446 
f 482//444 481//443 485//447 486//448 
f 481//443 479//441 484//446 485//447 
f 484//446 483//445 487//449 488//450 
f 486//448 485//447 489//451 490//452 
f 485//447 484//446 488//450 489//451 
f 488//450 487//449 491//453 492//454 
f 490//452 489//451 493//455 494//456 
f 489//451 488//450 492//454 493//455 
f 492//454 491//453 495//457 496//458 
f 494//456 493//455 497//459 498//460 
f 493//455 492//454 496//458 497//459 
f 496//458 495//457 499//461 500//462 
f 498//460 497//459 501//463 502//464 
f 497//459 496//458 500//462 501//463 
f 500//462 499//461 340//316 339//315 
f 502//464 501//463 342//318 341//317 
f 501//463 500//462 339//315 342//318 
f 394//358 393//357 503//465 504//466 
f 393//357 505//467 506//467 503//465 
f 507//468 508//469 509//470 510//471 
f 508//469 511//469 512//470 509//470 
f 503//465 506//467 513//472 514//473 
f 510//471 509//470 515//474 516//475 
f 509//470 512//470 517//474 515//474 
f 362//336 361//335 518//476 519//477 
f 361//335 395//335 520//476 518//476 
f 521//478 522//479 523//480 524//481 
f 525//482 526//483 527//484 528//480 
f 526//483 529//467 530//467 527//484 
f 529//467 362//336 519//477 530//467 
f 519//477 518//476 508//469 507//468 
f 518//476 520//476 511//469 508//469 
f 524//481 523//480 517//474 531//485 
f 528//480 527//484 516//475 515//474 
f 527//484 530//467 510//471 516//475 
f 530//467 519//477 507//468 510//471 
s 1
f 303//279 532//486 425//387 304//280 
s off
f 344//320 338//314 348//324 345//321 
s 1
f 437//399 450//412 448//410 365//339 
s off
f 345//321 348//324 422//384 419//381 
f 304//280 425//387 428//390 423//385 
f 419//381 422//384 432//394 429//391 
f 423//385 428//390 436//398 433//395 
f 429//391 432//394 450//412 437//399 
f 433//395 436//398 363//337 366//340 
f 505//467 362//336 529//467 506//467 
f 506//467 529//467 526//483 513//472 
f 533//487 480//442 482//444 534//488 
f 534//488 482//444 486//448 535//489 
f 536//490 537//491 538//492 
f 536//490 538//492 539//493 540//494 
f 541//495 542//496 543//497 544//498 
f 545//499 546//500 547//501 548//502 
f 546//500 541//495 544//498 547//501 
s 4
f 513//472 549//503 550//504 514//473 
s 16
f 551//505 552//506 398//361 318//294 
s off
f 553//507 551//505 554//508 555//509 
f 555//509 554//508 556//510 557//511 
f 557//511 556//510 558//512 559//513 
f 559//513 558//512 560//514 561//515 
f 560//514 344//320 343//319 561//515 
f 552//506 562//516 563//517 398//361 
f 562//516 564//518 565//519 563//517 
f 564//518 566//520 567//521 565//519 
s 4
f 525//482 522//479 568//522 549//503 
s off
f 559//513 561//515 569//523 379//349 
f 561//515 343//319 570//524 569//523 
f 343//319 346//322 426//388 570//524 
f 425//387 532//486 476//438 571//525 
f 473//435 476//438 532//486 336//312 
f 472//434 571//525 480//442 533//487 474//436 
f 571//525 476//438 477//439 480//442 
f 533//487 534//488 478//440 474//436 
f 534//488 535//489 483//445 478//440 
f 535//489 572//526 487//449 483//445 
f 487//449 572//526 573//527 491//453 
f 573//527 574//528 495//457 491//453 
f 574//528 575//529 499//461 495//457 
f 499//461 575//529 502//464 341//317 340//316 
f 360//334 359//333 576//530 537//491 
f 567//521 566//520 577//531 578//532 
f 538//492 537//491 576//530 579//533 580//534 581//535 
f 504//466 503//465 514//473 550//504 
f 578//532 577//531 582//536 521//478 
f 567//521 578//532 583//537 584//538 
f 578//532 521//478 524//481 583//537 
f 455//417 454//416 459//421 464//426 
f 460//422 468//430 457//419 453//415 
f 453//415 452//414 461//423 460//422 
f 335//311 425//387 571//525 472//434 
f 584//538 583//537 585//539 586//540 
f 583//537 524//481 531//485 585//539 
s 4
f 526//483 525//482 549//503 513//472 
s 16
f 553//507 587//541 349//325 552//506 551//505 
s off
f 551//505 318//294 322//298 554//508 
f 554//508 322//298 326//302 556//510 
f 556//510 326//302 330//306 558//512 
f 558//512 330//306 334//310 560//514 
f 334//310 338//314 344//320 560//514 
f 552//506 349//325 352//328 562//516 
f 562//516 352//328 356//331 564//518 
f 564//518 356//331 360//334 566//520 
s 4
f 580//534 579//533 568//522 582//536 
s off
f 536//490 588//542 577//531 566//520 360//334 537//491 
f 588//542 581//535 580//534 582//536 577//531 
f 486//448 490//452 572//526 535//489 
f 490//452 494//456 573//527 572//526 
f 494//456 498//460 574//528 573//527 
f 574//528 498//460 502//464 575//529 
f 589//543 590//544 591//545 592//546 
f 538//492 581//535 593//547 539//493 
f 581//535 588//542 594//548 593//547 
f 588//542 536//490 540//494 594//548 
f 539//493 593//547 542//496 541//495 
f 593//547 594//548 545//499 542//496 
f 594//548 540//494 546//500 545//499 
f 540//494 539//493 541//495 546//500 
f 544//498 543//497 591//545 590//544 
f 543//497 548//502 592//546 591//545 
f 548//502 547//501 589//543 592//546 
f 547//501 544//498 590//544 589//543 
f 595//549 543//497 542//496 545//499 548//502 
f 320//296 314//290 375//297 321//297 
f 321//297 375//297 378//301 325//301 
f 325//301 378//301 381//305 329//305 
f 329//305 381//305 383//350 333//309 
f 333//309 383//350 385//351 337//313 
f 337//313 385//351 305//281 347//323 
f 350//326 311//287 387//353 351//327 
f 351//327 387//353 391//356 355//330 
f 355//330 391//356 394//358 359//333 
s 1
f 364//338 438//400 437//399 365//339 
s 4
f 367//341 587//541 553//507 368//342 
s 2
f 350//326 349//325 587//541 367//341 
f 370//344 596//550 418//380 371//345 
s off
f 368//342 553//507 555//509 373//347 
f 373//347 555//509 557//511 376//348 
f 376//348 557//511 559//513 379//349 
f 388//354 401//354 398//361 563//517 389//329 
f 389//329 563//517 565//519 392//332 
f 392//332 565//519 567//521 395//335 
f 320//296 319//295 597//359 396//359 
f 388//354 315//291 403//365 598//551 
f 396//359 597//359 599//366 404//366 
f 598//551 403//365 409//371 600//552 
f 404//366 599//366 601//372 410//372 
f 600//552 409//371 415//377 602//553 
f 410//372 601//372 596//550 370//344 
f 602//553 415//377 372//346 371//345 
f 347//323 305//281 424//386 421//383 
f 426//388 346//322 420//382 427//389 
f 421//383 424//386 434//396 431//393 
f 427//389 420//382 430//392 435//397 
f 440//402 471//433 470//432 441//403 
f 435//397 430//392 438//400 364//338 
f 431//393 434//396 447//409 444//406 
f 448//410 450//412 451//413 449//411 
f 444//406 447//409 455//417 452//414 
f 449//411 451//413 457//419 456//418 
f 456//418 457//419 468//430 458//420 
f 461//423 464//426 466//428 462//424 
f 458//420 468//430 469//431 467//429 
f 462//424 466//428 471//433 440//402 
f 467//429 469//431 442//404 441//403 
f 511//469 586//540 585//539 512//470 
f 512//470 585//539 531//485 517//474 
f 395//335 567//521 584//538 520//476 
f 522//479 525//482 528//480 523//480 
f 520//476 584//538 586//540 511//469 
f 523//480 528//480 515//474 517//474 
s 1
f 448//410 443//405 366//340 365//339 
s 4
f 522//479 521//478 582//536 568//522 
s off
f 569//523 331//307 327//303 379//349 
f 570//524 335//311 331//307 569//523 
f 426//388 425//387 335//311 570//524 
f 359//333 394//358 504//466 576//530 
f 576//530 504//466 550//504 579//533 
f 452//414 455//417 464//426 461//423 
s 4
f 579//533 550//504 549//503 568//522 
s off
f 401//354 388//354 598//551 402//364 
f 402//364 598//551 600//552 408//370 
f 408//370 600//552 602//553 414//376 
f 414//376 602//553 371//345 418//380 
s 2
f 596//550 417//379 416//378 418//380 
s off
f 319//295 318//294 400//363 597//359 
f 597//359 400//363 407//369 599//366 
f 599//366 407//369 413//375 601//372 
f 601//372 413//375 417//379 596//550 
# 281 polygons - 1 triangles

