# Blender v3.3.0 OBJ File: 'Castle4_Snow.blend'
# www.blender.org
mtllib Wall3.mtl
o Wall3_Cube.003_Cube.010
v 1.069991 0.000000 2.000947
v 1.069991 3.402719 2.389215
v 1.069991 3.132251 2.682903
v 1.069991 2.193861 2.759985
v 1.516660 1.177829 3.209778
v 1.094431 2.540751 3.087451
v 1.091593 2.539518 2.910208
v 1.511619 1.175644 2.795265
v 1.759706 0.029024 2.758589
v 1.764023 0.029078 3.253793
v 1.069991 2.196912 3.228096
v 1.069991 3.136184 3.301395
v 1.069991 3.402719 3.594658
v 1.069991 3.402719 2.000947
v 0.866583 3.934202 4.000000
v 0.866583 3.458668 3.999944
v 1.069991 2.564195 2.911500
v 1.069991 3.402312 2.910043
v 0.866582 3.934841 3.497915
v 1.069991 2.565415 3.086049
v 1.069991 3.403564 3.084670
v 0.866582 3.929702 2.496490
v 0.866582 3.928622 2.000947
v 0.866582 3.932782 2.997046
v 0.866767 4.292350 4.000000
v 0.852032 4.293097 3.497836
v 0.833285 4.288064 2.496392
v 0.840622 4.291156 2.996957
v 1.369991 4.291701 3.497659
v 1.069991 3.402719 0.388267
v 1.069991 3.132252 0.681956
v 1.069991 2.193862 0.759039
v 1.069991 2.196912 1.227149
v 1.069991 3.136184 1.300448
v 1.069991 3.402719 1.593711
v 1.069991 3.402719 0.000000
v 1.369991 3.402719 3.594658
v 1.369991 3.928582 2.496288
v 1.369991 4.286930 2.496187
v 0.000001 3.402312 2.910043
v 1.069991 2.564195 0.910554
v 1.069991 3.402312 0.909096
v 0.000001 2.564194 2.911500
v 0.866583 3.934841 1.496968
v 1.069991 2.565415 1.085102
v 1.069991 3.403565 1.083723
v 0.866582 3.929703 0.495542
v 0.866582 3.928622 0.000000
v 0.866582 3.932783 0.996099
v 0.866767 4.292350 2.000947
v 0.852032 4.293098 1.496889
v 0.833285 4.288064 0.495445
v 0.840622 4.291157 0.996010
v 1.069991 0.000000 0.090608
v 1.069991 -0.000000 2.757661
v 1.069991 0.000001 -2.000947
v 1.069991 3.402719 -1.612680
v 1.069991 3.132252 -1.318991
v 1.069991 2.193862 -1.241908
v 0.000000 3.403565 -2.918171
v 0.000000 2.565415 -2.916792
v 1.069991 2.196913 -0.773797
v 1.069991 3.136184 -0.700499
v 1.069991 3.402719 -0.407237
v 0.000001 3.403565 -0.917224
v 0.000000 2.565415 -0.915845
v 0.000001 3.403564 1.083723
v 0.866582 3.458668 -4.000000
v 1.069991 3.402719 -2.000947
v 1.369991 3.402719 2.389215
v 1.369991 3.927468 2.000947
v 0.000000 2.564195 -3.091341
v 1.069991 2.564195 -1.090393
v 1.069991 3.402313 -1.091851
v 0.000000 3.402313 -3.092798
v 0.866582 3.934841 -0.503979
v 1.069991 2.565415 -0.915845
v 1.069991 3.403565 -0.917224
v 0.866582 3.929703 -1.505405
v 0.866582 3.928622 -2.000947
v 0.866582 3.932783 -1.004848
v 0.866767 4.292350 -0.000000
v 0.852032 4.293098 -0.504058
v 0.833285 4.288064 -1.505502
v 0.840622 4.291157 -1.004938
v 1.000751 2.539518 2.910208
v 1.000751 2.540751 3.087450
v 1.000751 1.177829 3.209778
v 1.069991 -0.000000 3.254908
v 1.069991 -0.000000 3.999944
v 1.069991 3.402720 -3.613627
v 1.069991 3.132252 -3.319938
v 1.069991 2.193862 -3.242856
v 0.000001 3.402312 -1.091851
v 0.000000 2.565415 1.085102
v 1.516660 1.177830 -2.793063
v 1.094431 2.540752 -2.915390
v 1.091593 2.539519 -3.092633
v 1.511619 1.175645 -3.207577
v 1.759706 0.029025 -3.244252
v 1.764023 0.029079 -2.749048
v 1.069991 2.196913 -2.774745
v 1.069991 3.136184 -2.701446
v 1.069991 3.402719 -2.408184
v 0.000001 3.402312 0.909096
v 0.000000 2.564195 -1.090393
v 0.000000 2.564195 0.910554
v 1.369991 4.290039 2.996766
v 1.369991 3.403564 3.084670
v 1.369991 3.402719 2.000947
v 0.000001 3.403564 3.084670
v 1.069991 2.564196 -3.091341
v 1.069991 3.402313 -3.092798
v 0.000001 2.565414 3.086049
v 0.866583 3.934842 -2.504926
v 1.069991 2.565416 -2.916792
v 1.069991 3.403565 -2.918171
v 0.866582 3.929703 -3.506352
v 0.866582 3.928623 -4.000000
v 0.866583 3.932783 -3.005795
v 0.866767 4.292351 -2.000947
v 0.852032 4.293098 -2.505005
v 0.833285 4.288064 -3.506449
v 0.840623 4.291157 -3.005885
v 1.000751 1.175645 2.795265
v 0.819051 2.540005 -3.092546
v 0.866771 1.176516 -3.207422
v 1.069991 0.000001 -2.747794
v 1.069991 0.000001 -3.245035
v 0.871754 1.178674 -2.792913
v 0.821872 2.541231 -2.915306
v 1.369991 4.290699 4.000000
v 1.069991 0.000001 -4.000000
v 0.566582 0.000001 -4.000000
v 0.000001 3.458668 4.000000
v 0.000000 3.458668 -4.000000
v 1.516660 1.177829 1.210589
v 1.094431 2.540751 1.088261
v 1.091593 2.539518 0.911019
v 1.511619 1.175644 0.796076
v 1.759705 0.029024 0.759400
v 1.764023 0.029078 1.254604
v 1.069991 -0.000000 0.758472
v 1.000750 2.539518 0.911019
v 1.000750 2.540751 1.088261
v 1.000750 1.177829 1.210589
v 1.069991 -0.000000 1.255718
v 1.000750 1.175645 0.796076
v 1.516660 1.177829 -0.795042
v 1.094431 2.540751 -0.917369
v 1.091592 2.539518 -1.094612
v 1.511619 1.175644 -1.209555
v 1.759705 0.029024 -1.246231
v 1.764023 0.029078 -0.751026
v 1.069991 -0.000000 -1.247159
v 1.000750 2.539518 -1.094612
v 1.000750 2.540751 -0.917370
v 1.000750 1.177829 -0.795042
v 1.069991 -0.000000 -0.749912
v 1.000750 1.175645 -1.209555
v -0.000000 0.000001 -4.000000
v 0.000000 0.000000 2.000947
v 0.000000 0.000000 4.000000
v 0.566582 0.000000 2.000947
v 0.566583 0.000000 0.090608
v 0.566583 0.000001 -2.000947
v 0.566583 -0.000000 3.999944
v 0.000000 0.000000 0.090608
v -0.000000 0.000001 -2.000947
v 1.369991 3.402312 2.910043
v 1.369991 3.933464 3.497741
v 1.369991 3.931685 2.996858
v 1.369991 3.932572 4.000000
v 1.369991 3.402719 4.000000
v 1.369991 4.290040 0.995819
v 1.369991 4.286931 0.495240
v 1.369991 4.291701 1.496711
v 1.369991 4.290699 2.000947
v 1.369991 3.928583 0.495341
v 1.369991 3.402719 1.593711
v 1.369991 3.403565 1.083723
v 1.369991 3.402719 0.000000
v 1.369991 3.927468 0.000000
v 1.369991 3.402719 0.388267
v 1.369991 3.402312 0.909096
v 1.369991 3.933464 1.496794
v 1.369991 3.931686 0.995910
v 1.369991 4.290040 -1.005128
v 1.369991 4.286931 -1.505707
v 1.369991 4.291701 -0.504235
v 1.369991 4.290700 -0.000000
v 1.369991 3.928583 -1.505606
v 1.369991 3.402719 -0.407237
v 1.369991 3.403565 -0.917224
v 1.369991 3.402719 -2.000947
v 1.369991 3.927468 -2.000947
v 1.369991 3.402719 -1.612680
v 1.369991 3.402313 -1.091851
v 1.369991 3.933464 -0.504153
v 1.369991 3.931686 -1.005037
v 1.369991 4.290040 -3.006075
v 1.369991 4.286931 -3.506654
v 1.369991 4.291702 -2.505183
v 1.369991 4.290700 -2.000947
v 1.369991 3.928583 -3.506553
v 1.369991 3.402719 -2.408184
v 1.369991 3.403565 -2.918171
v 1.369991 3.402719 -4.000000
v 1.369991 3.927469 -4.000000
v 1.369991 3.402720 -3.613627
v 1.369991 3.402313 -3.092798
v 1.369991 3.933465 -2.505101
v 1.369991 3.931686 -3.005984
v 1.069991 3.402719 2.305969
v 1.069991 3.402719 0.308534
v 1.069991 3.402719 1.668874
v 1.280577 3.402719 2.305969
v 1.280577 3.402719 1.995018
v 1.280577 3.402719 1.668874
v 1.069991 2.798869 1.995018
v 1.069991 2.856294 2.305969
v 1.097104 2.856294 2.305969
v 1.069991 2.856294 1.668874
v 1.097104 2.798869 1.995018
v 1.097105 2.856294 1.668874
v 1.069991 3.402719 -0.328560
v 1.280577 3.402719 0.308534
v 1.280577 3.402719 -0.002417
v 1.280577 3.402719 -0.328560
v 1.069991 2.798869 -0.002417
v 1.069991 2.856294 0.308534
v 1.097104 2.856294 0.308534
v 1.069991 2.856294 -0.328560
v 1.097104 2.798869 -0.002417
v 1.097105 2.856294 -0.328560
v 1.069991 3.402719 -1.691849
v 1.069991 3.402719 -2.328943
v 1.280577 3.402719 -1.691849
v 1.280577 3.402719 -2.002800
v 1.280577 3.402719 -2.328943
v 1.069991 2.798869 -2.002800
v 1.069991 2.856294 -1.691849
v 1.097104 2.856294 -1.691849
v 1.069991 2.856294 -2.328943
v 1.097104 2.798869 -2.002800
v 1.097105 2.856294 -2.328943
v 1.069991 3.402719 -3.687087
v 1.280577 3.402719 3.999944
v 1.280577 3.402719 -3.687087
v 1.280577 3.402719 -4.000000
v 1.069991 2.798869 -4.000000
v 1.069991 2.856294 -3.687087
v 1.097104 2.856294 -3.687087
v 1.069991 3.402719 3.673631
v 1.097104 2.798869 -4.000000
v 1.069991 3.402719 -4.000000
v 1.280577 3.402719 3.673631
v 1.069991 2.798869 3.999944
v 1.069991 3.402719 3.999944
v 1.069991 2.856294 3.673631
v 1.097104 2.798869 3.999944
v 1.097104 2.856294 3.673631
v 1.369991 3.722070 0.355310
v 1.369991 3.798654 -2.000947
v 1.369991 3.788599 1.462065
v 1.369991 3.809186 -0.558201
v 1.369991 3.737372 -1.801297
v 1.369991 3.875285 2.000947
v 1.369991 3.808226 -0.956952
v 1.369991 3.790638 3.035989
v 1.369991 3.788725 -3.796125
v 1.369991 3.789325 -2.653622
v 1.369991 3.796374 0.490059
v 1.369991 3.875944 3.484007
v 1.369991 3.810607 2.468444
v 1.369991 3.825601 -3.555213
v 1.369991 3.793611 -1.535473
v 1.369991 3.752714 0.105145
v 1.369991 3.777565 1.047340
v 1.369991 3.826866 0.000000
v 1.369991 3.846132 -4.000000
v 1.369991 3.807379 -2.983325
v 1.369991 3.777461 2.257914
v 1.369991 3.775799 -0.757577
v 1.369991 3.799607 3.259998
v 0.866582 3.724472 1.737593
v 0.866582 3.710375 -2.151989
v 0.866582 3.829080 3.246187
v 0.866583 3.865985 3.053268
v 0.866583 3.732607 3.999976
v 0.866582 3.849439 3.469126
v 0.866582 3.703775 -4.000000
v 0.859307 4.113969 3.497876
v 0.866675 4.227359 4.000000
v 1.369991 4.192301 3.497700
v 1.369991 4.148099 4.000000
v 0.849934 4.168009 2.496441
v 0.853602 4.111969 2.997002
v 1.369991 4.202543 2.996812
v 1.369991 4.192939 2.496238
v 0.859307 4.182745 1.496928
v 0.866674 4.110486 2.000947
v 1.369991 4.112583 1.496753
v 1.369991 4.109084 2.000947
v 0.849934 4.225876 0.495494
v 0.853603 4.199697 0.996054
v 1.369991 4.175419 0.495291
v 1.369991 4.110863 0.995865
v 0.859307 4.099632 -0.504018
v 0.866674 4.160095 0.000000
v 1.369991 4.139646 -0.504194
v 1.369991 4.164723 0.000000
v 0.849934 4.146497 -1.505453
v 0.853602 4.149583 -1.004893
v 1.369991 4.145370 -1.505657
v 1.369991 4.198102 -1.005083
v 0.859307 4.113970 -2.504966
v 0.866674 4.110487 -2.000947
v 1.369991 4.148337 -2.505160
v 1.369991 4.190880 -2.000947
v 0.849934 4.160587 -3.506401
v 0.847290 4.199111 -3.005862
v 1.369991 4.162592 -3.506619
v 1.369991 4.110863 -3.006030
v 1.369991 4.169008 3.748850
v 1.369991 4.110833 1.748850
v 1.369991 4.073754 -0.252097
v 1.369991 4.108792 2.663096
v 1.369991 4.201508 2.829954
v 0.851768 4.191919 2.746721
v 0.852380 4.110941 0.880590
v 0.851157 4.155982 0.662347
v 1.369991 4.054497 0.842085
v 1.118333 4.059477 0.000000
v 1.369991 4.135167 -1.188080
v 1.032871 4.103835 -1.505525
v 0.852342 4.105839 -1.176924
v 1.369991 4.192462 -2.336514
v 1.369991 4.129826 -2.168447
v 0.862991 4.062387 -2.252956
v 1.369991 4.093974 -3.256324
v 0.848612 4.153997 -3.256131
v -1.069991 0.000000 2.000947
v -1.069989 3.402719 2.389215
v -1.069990 3.132252 2.682903
v -1.069990 2.193862 2.759985
v -1.516660 1.177829 3.209778
v -1.094430 2.540752 3.087451
v -1.091591 2.539518 2.910208
v -1.511619 1.175645 2.795265
v -1.759705 0.029024 2.758589
v -1.764023 0.029078 3.253793
v -1.069990 2.196912 3.228096
v -1.069990 3.136184 3.301395
v -1.069989 3.402719 3.594658
v -1.069990 3.402719 2.000947
v -0.866581 3.934203 4.000000
v -0.866581 3.458669 3.999944
v -1.069990 2.564195 2.911500
v -1.069989 3.402312 2.910043
v -0.866581 3.934841 3.497915
v -1.069990 2.565415 3.086049
v -1.069989 3.403565 3.084670
v -0.866581 3.929703 2.496490
v -0.866581 3.928622 2.000947
v -0.866581 3.932783 2.997046
v -0.866765 4.292350 4.000000
v -0.852031 4.293097 3.497836
v -0.833283 4.288064 2.496392
v -0.840621 4.291156 2.996957
v -1.369989 4.291701 3.497659
v -1.069990 3.402719 0.388267
v -1.069990 3.132252 0.681956
v -1.069990 2.193862 0.759039
v -1.069990 2.196913 1.227149
v -1.069990 3.136184 1.300448
v -1.069990 3.402719 1.593711
v -1.069990 3.402719 0.000000
v -1.369989 3.402719 3.594658
v -1.369989 3.928583 2.496288
v -1.369989 4.286930 2.496187
v -1.069990 2.564195 0.910554
v -1.069990 3.402313 0.909096
v -0.866581 3.934842 1.496968
v -1.069990 2.565415 1.085102
v -1.069990 3.403565 1.083723
v -0.866581 3.929703 0.495542
v -0.866581 3.928622 0.000000
v -0.866581 3.932783 0.996099
v -0.866765 4.292350 2.000947
v -0.852031 4.293098 1.496889
v -0.833283 4.288064 0.495445
v -0.840621 4.291157 0.996010
v -1.069991 0.000001 0.090608
v -1.069991 0.000000 2.757661
v -1.069991 0.000001 -2.000947
v -1.069990 3.402720 -1.612680
v -1.069990 3.132252 -1.318991
v -1.069990 2.193863 -1.241908
v -1.069990 2.196913 -0.773797
v -1.069990 3.136185 -0.700499
v -1.069990 3.402719 -0.407236
v -0.866582 3.458669 -4.000000
v -1.069990 3.402719 -2.000947
v -1.369989 3.402719 2.389215
v -1.369989 3.927468 2.000947
v -1.069990 2.564196 -1.090393
v -1.069990 3.402313 -1.091851
v -0.866581 3.934842 -0.503979
v -1.069990 2.565416 -0.915845
v -1.069990 3.403566 -0.917224
v -0.866581 3.929703 -1.505405
v -0.866581 3.928623 -2.000947
v -0.866581 3.932784 -1.004848
v -0.866765 4.292350 -0.000000
v -0.852031 4.293098 -0.504058
v -0.833284 4.288064 -1.505502
v -0.840621 4.291157 -1.004938
v -1.000749 2.539518 2.910208
v -1.000749 2.540752 3.087450
v -1.000750 1.177829 3.209778
v -1.069991 0.000000 3.254908
v -1.069991 0.000000 3.999944
v -1.069990 3.402720 -3.613627
v -1.069990 3.132253 -3.319938
v -1.069990 2.193863 -3.242856
v -1.516660 1.177830 -2.793063
v -1.094430 2.540753 -2.915390
v -1.091592 2.539519 -3.092633
v -1.511619 1.175646 -3.207577
v -1.759706 0.029025 -3.244252
v -1.764023 0.029079 -2.749048
v -1.069990 2.196913 -2.774745
v -1.069990 3.136185 -2.701446
v -1.069990 3.402720 -2.408184
v -1.369989 4.290039 2.996766
v -1.369989 3.403565 3.084670
v -1.369990 3.402719 2.000947
v -1.069990 2.564196 -3.091341
v -1.069990 3.402313 -3.092798
v -0.866581 3.934842 -2.504926
v -1.069990 2.565416 -2.916792
v -1.069990 3.403566 -2.918171
v -0.866581 3.929703 -3.506352
v -0.866581 3.928623 -4.000000
v -0.866581 3.932784 -3.005795
v -0.866765 4.292351 -2.000947
v -0.852031 4.293098 -2.505005
v -0.833284 4.288064 -3.506449
v -0.840621 4.291157 -3.005885
v -1.000750 1.175645 2.795265
v -0.819050 2.540005 -3.092546
v -0.866770 1.176516 -3.207422
v -1.069991 0.000001 -2.747794
v -1.069991 0.000001 -3.245035
v -0.871754 1.178674 -2.792913
v -0.821871 2.541231 -2.915306
v -1.369989 4.290699 4.000000
v -1.069991 0.000001 -4.000000
v -0.566583 0.000001 -4.000000
v -1.516660 1.177829 1.210589
v -1.094430 2.540752 1.088261
v -1.091592 2.539518 0.911019
v -1.511619 1.175645 0.796076
v -1.759705 0.029024 0.759400
v -1.764023 0.029078 1.254604
v -1.069991 0.000000 0.758472
v -1.000749 2.539518 0.911019
v -1.000749 2.540752 1.088261
v -1.000750 1.177829 1.210589
v -1.069991 0.000000 1.255718
v -1.000750 1.175645 0.796076
v -1.516660 1.177829 -0.795042
v -1.094430 2.540752 -0.917369
v -1.091592 2.539518 -1.094612
v -1.511619 1.175645 -1.209555
v -1.759705 0.029024 -1.246230
v -1.764023 0.029078 -0.751026
v -1.069991 0.000000 -1.247159
v -1.000750 2.539518 -1.094612
v -1.000750 2.540752 -0.917370
v -1.000750 1.177829 -0.795042
v -1.069991 0.000000 -0.749912
v -1.000750 1.175645 -1.209555
v -0.566582 0.000000 2.000947
v -0.566583 0.000001 0.090608
v -0.566583 0.000001 -2.000947
v -0.566582 0.000000 3.999944
v -1.369989 3.402312 2.910043
v -1.369989 3.933464 3.497741
v -1.369989 3.931686 2.996858
v -1.369989 3.932572 4.000000
v -1.369989 3.402719 4.000000
v -1.369989 4.290040 0.995819
v -1.369989 4.286931 0.495240
v -1.369989 4.291701 1.496712
v -1.369989 4.290699 2.000947
v -1.369989 3.928583 0.495341
v -1.369990 3.402719 1.593711
v -1.369990 3.403565 1.083723
v -1.369990 3.402719 0.000000
v -1.369990 3.927469 0.000000
v -1.369990 3.402719 0.388267
v -1.369990 3.402313 0.909096
v -1.369989 3.933464 1.496794
v -1.369989 3.931686 0.995911
v -1.369990 4.290040 -1.005128
v -1.369990 4.286931 -1.505707
v -1.369990 4.291701 -0.504235
v -1.369990 4.290700 -0.000000
v -1.369990 3.928583 -1.505606
v -1.369990 3.402719 -0.407236
v -1.369990 3.403566 -0.917224
v -1.369990 3.402719 -2.000947
v -1.369990 3.927469 -2.000947
v -1.369990 3.402720 -1.612680
v -1.369990 3.402313 -1.091851
v -1.369990 3.933465 -0.504153
v -1.369990 3.931687 -1.005037
v -1.369990 4.290040 -3.006075
v -1.369990 4.286931 -3.506654
v -1.369990 4.291702 -2.505183
v -1.369990 4.290700 -2.000947
v -1.369990 3.928584 -3.506553
v -1.369990 3.402720 -2.408184
v -1.369990 3.403566 -2.918171
v -1.369990 3.402720 -4.000000
v -1.369990 3.927469 -4.000000
v -1.369990 3.402720 -3.613627
v -1.369990 3.402313 -3.092798
v -1.369990 3.933465 -2.505101
v -1.369990 3.931687 -3.005984
v -1.069990 3.402719 2.305969
v -1.069990 3.402719 0.308534
v -1.069990 3.402719 1.668874
v -1.280575 3.402719 2.305969
v -1.280575 3.402719 1.995018
v -1.280576 3.402719 1.668874
v -1.069990 2.798869 1.995018
v -1.069990 2.856295 2.305969
v -1.097103 2.856295 2.305969
v -1.069990 2.856295 1.668874
v -1.097103 2.798869 1.995018
v -1.097103 2.856295 1.668874
v -1.069990 3.402719 -0.328560
v -1.280576 3.402719 0.308534
v -1.280576 3.402719 -0.002417
v -1.280576 3.402719 -0.328560
v -1.069990 2.798869 -0.002417
v -1.069990 2.856295 0.308534
v -1.097103 2.856295 0.308534
v -1.069990 2.856295 -0.328560
v -1.097103 2.798869 -0.002417
v -1.097104 2.856295 -0.328560
v -1.069990 3.402719 -1.691849
v -1.069990 3.402719 -2.328943
v -1.280576 3.402719 -1.691849
v -1.280576 3.402719 -2.002800
v -1.280576 3.402719 -2.328943
v -1.069990 2.798869 -2.002800
v -1.069990 2.856295 -1.691849
v -1.097104 2.856295 -1.691849
v -1.069990 2.856295 -2.328943
v -1.097104 2.798869 -2.002800
v -1.097104 2.856295 -2.328943
v -1.069990 3.402719 -3.687087
v -1.280575 3.402719 3.999944
v -1.280576 3.402719 -3.687087
v -1.280576 3.402719 -4.000000
v -1.069990 2.798869 -4.000000
v -1.069990 2.856295 -3.687087
v -1.097104 2.856295 -3.687087
v -1.069989 3.402719 3.673631
v -1.097104 2.798869 -4.000000
v -1.069990 3.402719 -4.000000
v -1.280575 3.402719 3.673631
v -1.069989 2.798869 3.999944
v -1.069989 3.402719 3.999944
v -1.069990 2.856295 3.673631
v -1.097103 2.798869 3.999944
v -1.097103 2.856295 3.673631
v -1.369990 3.722071 0.355310
v -1.369990 3.798654 -2.000947
v -1.369990 3.788600 1.462065
v -1.369990 3.809186 -0.558201
v -1.369990 3.737373 -1.801297
v -1.369989 3.875285 2.000947
v -1.369990 3.808226 -0.956952
v -1.369989 3.790639 3.035989
v -1.369990 3.788726 -3.796125
v -1.369990 3.789325 -2.653622
v -1.369990 3.796374 0.490059
v -1.369989 3.875945 3.484007
v -1.369989 3.810607 2.468444
v -1.369990 3.825602 -3.555213
v -1.369990 3.793612 -1.535473
v -1.369990 3.752714 0.105145
v -1.369989 3.777565 1.047340
v -1.369990 3.826866 0.000000
v -1.369990 3.846132 -4.000000
v -1.369990 3.807379 -2.983325
v -1.369989 3.777461 2.257914
v -1.369990 3.775800 -0.757576
v -1.369989 3.799608 3.259998
v -0.866581 3.724473 1.737593
v -0.866581 3.710376 -2.151989
v -0.866581 3.829080 3.246187
v -0.866581 3.865986 3.053268
v -0.866581 3.732607 3.999976
v -0.866581 3.849439 3.469126
v -0.866582 3.703775 -4.000000
v -0.859306 4.113969 3.497876
v -0.866673 4.227359 4.000000
v -1.369989 4.192301 3.497700
v -1.369989 4.148099 4.000000
v -0.849932 4.168009 2.496441
v -0.853601 4.111969 2.997002
v -1.369989 4.202543 2.996812
v -1.369989 4.192939 2.496238
v -0.859306 4.182745 1.496928
v -0.866673 4.110486 2.000947
v -1.369989 4.112583 1.496753
v -1.369989 4.109084 2.000947
v -0.849932 4.225876 0.495494
v -0.853601 4.199697 0.996055
v -1.369989 4.175419 0.495291
v -1.369989 4.110863 0.995865
v -0.859306 4.099632 -0.504018
v -0.866673 4.160095 0.000000
v -1.369990 4.139646 -0.504194
v -1.369990 4.164723 0.000000
v -0.849932 4.146497 -1.505453
v -0.853601 4.149583 -1.004893
v -1.369990 4.145370 -1.505656
v -1.369990 4.198102 -1.005082
v -0.859306 4.113970 -2.504966
v -0.866673 4.110487 -2.000947
v -1.369990 4.148337 -2.505160
v -1.369990 4.190880 -2.000947
v -0.849933 4.160587 -3.506401
v -0.847289 4.199111 -3.005862
v -1.369990 4.162592 -3.506619
v -1.369990 4.110863 -3.006030
v -1.369989 4.169008 3.748850
v -1.369989 4.110833 1.748850
v -1.369990 4.073754 -0.252097
v -1.369989 4.108792 2.663096
v -1.369989 4.201508 2.829954
v -0.851767 4.191919 2.746721
v -0.852378 4.110941 0.880590
v -0.851155 4.155982 0.662347
v -1.369989 4.054497 0.842085
v -1.118331 4.059477 0.000000
v -1.369990 4.135167 -1.188080
v -1.032869 4.103835 -1.505525
v -0.852340 4.105839 -1.176924
v -1.369990 4.192462 -2.336514
v -1.369990 4.129826 -2.168447
v -0.862990 4.062387 -2.252956
v -1.369990 4.093974 -3.256324
v -0.848611 4.153997 -3.256131
vt 0.094683 0.969245
vt 0.094683 0.969246
vt 0.094683 0.969245
vt 0.094683 0.969245
vt 0.094683 0.969246
vt 0.094684 0.969246
vt 0.094684 0.969246
vt 0.094683 0.969246
vt 0.030682 0.969318
vt 0.030682 0.969318
vt 0.030682 0.969318
vt 0.030682 0.969318
vt 0.030682 0.969318
vt 0.030682 0.969318
vt 0.030682 0.969318
vt 0.030682 0.969318
vt 0.094684 0.969245
vt 0.094683 0.969246
vt 0.030682 0.969318
vt 0.030682 0.969318
vt 0.159073 0.972514
vt 0.159073 0.972514
vt 0.159073 0.972514
vt 0.159073 0.972514
vt 0.159073 0.972514
vt 0.717671 0.972514
vt 0.717671 0.972514
vt 0.717671 0.972514
vt 0.717671 0.972514
vt 0.159073 0.972514
vt 0.159073 0.972514
vt 0.159073 0.972514
vt 0.159073 0.972514
vt 0.159073 0.972514
vt 0.159073 0.972514
vt 0.159073 0.972514
vt 0.159073 0.972514
vt 0.159073 0.972514
vt 0.159073 0.972514
vt 0.159073 0.972514
vt 0.158111 0.969318
vt 0.158111 0.969318
vt 0.158111 0.969318
vt 0.158111 0.969318
vt 0.158111 0.969318
vt 0.158111 0.969318
vt 0.158111 0.969318
vt 0.158111 0.969318
vt 0.159073 0.972514
vt 0.159073 0.972514
vt 0.159073 0.972514
vt 0.159073 0.972514
vt 0.720132 0.972514
vt 0.720132 0.972514
vt 0.720132 0.972514
vt 0.720132 0.972514
vt 0.159073 0.972514
vt 0.159073 0.972514
vt 0.159073 0.972514
vt 0.159073 0.972514
vt 0.720132 0.972514
vt 0.720132 0.972514
vt 0.720132 0.972514
vt 0.720132 0.972514
vt 0.720132 0.972514
vt 0.720132 0.972514
vt 0.720132 0.972514
vt 0.720132 0.972514
vt 0.720132 0.972514
vt 0.159073 0.972514
vt 0.159073 0.972514
vt 0.159073 0.972514
vt 0.159073 0.972514
vt 0.159073 0.972514
vt 0.159073 0.972514
vt 0.159073 0.972514
vt 0.159073 0.972514
vt 0.159073 0.972514
vt 0.159073 0.972514
vt 0.159073 0.972514
vt 0.159073 0.972514
vt 0.720132 0.972514
vt 0.720132 0.972514
vt 0.720132 0.972514
vt 0.720132 0.972514
vt 0.720132 0.972514
vt 0.030682 0.969318
vt 0.030682 0.969318
vt 0.030682 0.969318
vt 0.030682 0.969318
vt 0.030682 0.969318
vt 0.030682 0.969318
vt 0.030682 0.969318
vt 0.030682 0.969318
vt 0.158111 0.969318
vt 0.158111 0.969318
vt 0.158111 0.969318
vt 0.158111 0.969318
vt 0.159073 0.972514
vt 0.159073 0.972514
vt 0.720132 0.972514
vt 0.720132 0.972514
vt 0.159073 0.972514
vt 0.159073 0.972514
vt 0.159073 0.972514
vt 0.159073 0.972514
vt 0.159073 0.972514
vt 0.159073 0.972514
vt 0.159073 0.972514
vt 0.159074 0.972514
vt 0.159073 0.972514
vt 0.159073 0.972514
vt 0.159073 0.972514
vt 0.159073 0.972514
vt 0.159073 0.972514
vt 0.159073 0.972514
vt 0.159073 0.972514
vt 0.159073 0.972514
vt 0.159073 0.972514
vt 0.159073 0.972514
vt 0.159073 0.972514
vt 0.159074 0.972514
vt 0.159073 0.972514
vt 0.159073 0.972514
vt 0.159073 0.972514
vt 0.159073 0.972514
vt 0.159073 0.972514
vt 0.159073 0.972514
vt 0.158111 0.969318
vt 0.158111 0.969318
vt 0.720132 0.972514
vt 0.720132 0.972514
vt 0.720132 0.972514
vt 0.720132 0.972514
vt 0.720132 0.972514
vt 0.720132 0.972514
vt 0.720132 0.972514
vt 0.720132 0.972514
vt 0.717671 0.972514
vt 0.717671 0.972514
vt 0.717671 0.972514
vt 0.717671 0.972514
vt 0.159073 0.972514
vt 0.717671 0.972514
vt 0.717671 0.972514
vt 0.717671 0.972514
vt 0.717671 0.972514
vt 0.720132 0.972514
vt 0.720132 0.972514
vt 0.720132 0.972514
vt 0.720132 0.972514
vt 0.030682 0.969318
vt 0.030682 0.969318
vt 0.030682 0.969318
vt 0.030682 0.969318
vt 0.030682 0.969318
vt 0.030682 0.969318
vt 0.030682 0.969318
vt 0.030682 0.969318
vt 0.159073 0.972514
vt 0.720132 0.972514
vt 0.720132 0.972514
vt 0.720132 0.972514
vt 0.720132 0.972514
vt 0.159073 0.972514
vt 0.159073 0.972514
vt 0.159073 0.972514
vt 0.159073 0.972514
vt 0.159073 0.972514
vt 0.159073 0.972514
vt 0.159073 0.972514
vt 0.159073 0.972514
vt 0.159073 0.972514
vt 0.159073 0.972514
vt 0.159073 0.972514
vt 0.159073 0.972514
vt 0.159073 0.972514
vt 0.159073 0.972514
vt 0.159073 0.972514
vt 0.720132 0.972514
vt 0.720132 0.972514
vt 0.159073 0.972514
vt 0.159073 0.972514
vt 0.159073 0.972514
vt 0.159073 0.972514
vt 0.720132 0.972514
vt 0.720132 0.972514
vt 0.717671 0.972514
vt 0.717671 0.972514
vt 0.717671 0.972514
vt 0.717671 0.972514
vt 0.717671 0.972514
vt 0.717671 0.972514
vt 0.717671 0.972514
vt 0.158111 0.969318
vt 0.158111 0.969318
vt 0.720132 0.972514
vt 0.720132 0.972514
vt 0.720132 0.972514
vt 0.720132 0.972514
vt 0.159073 0.972514
vt 0.159073 0.972514
vt 0.159073 0.972514
vt 0.159073 0.972514
vt 0.159073 0.972514
vt 0.159073 0.972514
vt 0.159073 0.972514
vt 0.159073 0.972514
vt 0.717671 0.972514
vt 0.717671 0.972514
vt 0.030682 0.969318
vt 0.030682 0.969318
vt 0.030682 0.969318
vt 0.030682 0.969318
vt 0.030682 0.969318
vt 0.030682 0.969318
vt 0.159073 0.972514
vt 0.159073 0.972514
vt 0.159073 0.972514
vt 0.094683 0.969245
vt 0.094684 0.969245
vt 0.094684 0.969245
vt 0.094683 0.969245
vt 0.094684 0.969245
vt 0.094683 0.969245
vt 0.094684 0.969245
vt 0.094683 0.969245
vt 0.094683 0.969245
vt 0.094683 0.969245
vt 0.030682 0.969318
vt 0.030682 0.969318
vt 0.159073 0.972514
vt 0.159073 0.972514
vt 0.720132 0.972514
vt 0.720132 0.972514
vt 0.159073 0.972514
vt 0.159073 0.972514
vt 0.159073 0.972514
vt 0.720132 0.972514
vt 0.717671 0.972514
vt 0.717671 0.972514
vt 0.159073 0.972514
vt 0.159073 0.972514
vt 0.159073 0.972514
vt 0.720132 0.972514
vt 0.720132 0.972514
vt 0.720132 0.972514
vt 0.720132 0.972514
vt 0.159073 0.972514
vt 0.717671 0.972514
vt 0.717671 0.972514
vt 0.717671 0.972514
vt 0.717671 0.972514
vt 0.720132 0.972514
vt 0.159073 0.972514
vt 0.159073 0.972514
vt 0.159073 0.972514
vt 0.720132 0.972514
vt 0.720132 0.972514
vt 0.720132 0.972514
vt 0.720132 0.972514
vt 0.720132 0.972514
vt 0.720132 0.972514
vt 0.720132 0.972514
vt 0.159073 0.972514
vt 0.159073 0.972514
vt 0.159073 0.972514
vt 0.159073 0.972514
vt 0.158111 0.969318
vt 0.158111 0.969318
vt 0.158111 0.969318
vt 0.158111 0.969318
vt 0.094683 0.969245
vt 0.094683 0.969245
vt 0.094684 0.969245
vt 0.092201 0.846279
vt 0.092201 0.846279
vt 0.092201 0.846279
vt 0.092201 0.846279
vt 0.094683 0.969246
vt 0.094683 0.969245
vt 0.094683 0.969245
vt 0.094683 0.969245
vt 0.094683 0.969245
vt 0.094683 0.969246
vt 0.094684 0.969246
vt 0.094684 0.969246
vt 0.094683 0.969246
vt 0.094684 0.969245
vt 0.094683 0.969246
vt 0.094684 0.969245
vt 0.094683 0.969246
vt 0.094683 0.969245
vt 0.094683 0.969246
vt 0.094683 0.969245
vt 0.094683 0.969245
vt 0.094683 0.969246
vt 0.094684 0.969246
vt 0.094684 0.969246
vt 0.094683 0.969246
vt 0.094684 0.969245
vt 0.094683 0.969246
vt 0.094684 0.969245
vt 0.094683 0.969246
vt 0.031500 0.972514
vt 0.031500 0.972514
vt 0.031500 0.972514
vt 0.031500 0.972514
vt 0.030682 0.969318
vt 0.030682 0.969318
vt 0.030682 0.969318
vt 0.030682 0.969318
vt 0.159073 0.972514
vt 0.030682 0.969318
vt 0.030682 0.969318
vt 0.030682 0.969318
vt 0.030682 0.969318
vt 0.029843 0.972514
vt 0.029843 0.972514
vt 0.029843 0.972514
vt 0.029843 0.972514
vt 0.158111 0.969318
vt 0.158111 0.969318
vt 0.158111 0.969318
vt 0.158111 0.969318
vt 0.158111 0.969318
vt 0.158111 0.969318
vt 0.158111 0.969318
vt 0.158111 0.969318
vt 0.158111 0.969318
vt 0.158111 0.969318
vt 0.158111 0.969318
vt 0.158111 0.969318
vt 0.158111 0.969318
vt 0.158111 0.969318
vt 0.158111 0.969318
vt 0.720132 0.972514
vt 0.720132 0.972514
vt 0.159073 0.972514
vt 0.159073 0.972514
vt 0.159074 0.972514
vt 0.159073 0.972514
vt 0.159073 0.972514
vt 0.720132 0.972514
vt 0.720132 0.972514
vt 0.720132 0.972514
vt 0.159073 0.972514
vt 0.720132 0.972514
vt 0.720132 0.972514
vt 0.720132 0.972514
vt 0.159074 0.972514
vt 0.159073 0.972514
vt 0.159073 0.972514
vt 0.159073 0.972514
vt 0.720132 0.972514
vt 0.720132 0.972514
vt 0.720132 0.972514
vt 0.159073 0.972514
vt 0.717671 0.972514
vt 0.717671 0.972514
vt 0.717671 0.972514
vt 0.159073 0.972514
vt 0.159073 0.972514
vt 0.159073 0.972514
vt 0.720132 0.972514
vt 0.720132 0.972514
vt 0.159073 0.972514
vt 0.159073 0.972514
vt 0.159073 0.972514
vt 0.720132 0.972514
vt 0.720132 0.972514
vt 0.159073 0.972514
vt 0.717671 0.972514
vt 0.717671 0.972514
vt 0.720132 0.972514
vt 0.720132 0.972514
vt 0.720132 0.972514
vt 0.720132 0.972514
vt 0.159073 0.972514
vt 0.159073 0.972514
vt 0.159073 0.972514
vt 0.159073 0.972514
vt 0.720132 0.972514
vt 0.720132 0.972514
vt 0.720132 0.972514
vt 0.159073 0.972514
vt 0.159073 0.972514
vt 0.717671 0.972514
vt 0.717671 0.972514
vt 0.158111 0.969318
vt 0.158111 0.969318
vt 0.158111 0.969318
vt 0.158111 0.969318
vt 0.717671 0.972514
vt 0.717671 0.972514
vt 0.717671 0.972514
vt 0.717671 0.972514
vt 0.159073 0.972514
vt 0.158111 0.969318
vt 0.158111 0.969318
vt 0.159073 0.972514
vt 0.159073 0.972514
vt 0.159073 0.972514
vt 0.159073 0.972514
vt 0.159073 0.972514
vt 0.717671 0.972514
vt 0.717671 0.972514
vt 0.717671 0.972514
vt 0.157858 0.969800
vt 0.157858 0.969800
vt 0.157858 0.969800
vt 0.157858 0.969800
vt 0.157858 0.969800
vt 0.157858 0.969800
vt 0.157858 0.969801
vt 0.157858 0.969800
vt 0.157858 0.969800
vt 0.157858 0.969801
vt 0.157858 0.969800
vt 0.157858 0.969800
vt 0.157858 0.969800
vt 0.157858 0.969800
vt 0.157858 0.969800
vt 0.157858 0.969800
vt 0.157858 0.969801
vt 0.157858 0.969801
vt 0.157858 0.969801
vt 0.157858 0.969801
vt 0.157858 0.969801
vt 0.157858 0.969801
vt 0.157858 0.969800
vt 0.157858 0.969800
vt 0.157858 0.969800
vt 0.157858 0.969800
vt 0.157858 0.969800
vt 0.157858 0.969800
vt 0.157858 0.969800
vt 0.157858 0.969801
vt 0.157858 0.969801
vt 0.157858 0.969801
vt 0.157858 0.969801
vt 0.157858 0.969801
vt 0.157858 0.969800
vt 0.157858 0.969800
vt 0.157858 0.969801
vt 0.157858 0.969800
vt 0.157858 0.969800
vt 0.157858 0.969800
vt 0.157858 0.969800
vt 0.157858 0.969801
vt 0.157858 0.969801
vt 0.157858 0.969801
vt 0.157858 0.969801
vt 0.157858 0.969800
vt 0.157858 0.969801
vt 0.157858 0.969800
vt 0.157858 0.969801
vt 0.717671 0.972514
vt 0.717671 0.972514
vt 0.717671 0.972514
vt 0.159073 0.972514
vt 0.159073 0.972514
vt 0.717671 0.972514
vt 0.717671 0.972514
vt 0.159073 0.972514
vt 0.717671 0.972514
vt 0.717671 0.972514
vt 0.717671 0.972514
vt 0.159073 0.972514
vt 0.159073 0.972514
vt 0.159073 0.972514
vt 0.159073 0.972514
vt 0.717671 0.972514
vt 0.717671 0.972514
vt 0.717671 0.972514
vt 0.159073 0.972514
vt 0.717671 0.972514
vt 0.717671 0.972514
vt 0.717671 0.972514
vt 0.159074 0.972514
vt 0.159073 0.972514
vt 0.159073 0.972514
vt 0.717671 0.972514
vt 0.717671 0.972514
vt 0.717671 0.972514
vt 0.159073 0.972514
vt 0.159073 0.972514
vt 0.159073 0.972514
vt 0.159073 0.972514
vt 0.159073 0.972514
vt 0.159073 0.972514
vt 0.159073 0.972514
vt 0.159073 0.972514
vt 0.159073 0.972514
vt 0.159073 0.972514
vt 0.159073 0.972514
vt 0.159073 0.972514
vt 0.159073 0.972514
vt 0.159073 0.972514
vt 0.159073 0.972514
vt 0.159073 0.972514
vt 0.159073 0.972514
vt 0.159073 0.972514
vt 0.159073 0.972514
vt 0.159073 0.972514
vt 0.159073 0.972514
vt 0.159073 0.972514
vt 0.159073 0.972514
vt 0.159073 0.972514
vt 0.159073 0.972514
vt 0.159073 0.972514
vt 0.159073 0.972514
vt 0.720132 0.972514
vt 0.159073 0.972514
vt 0.159073 0.972514
vt 0.159073 0.972514
vt 0.159073 0.972514
vt 0.159073 0.972514
vt 0.159073 0.972514
vt 0.159073 0.972514
vt 0.159073 0.972514
vt 0.159073 0.972514
vt 0.159073 0.972514
vt 0.159073 0.972514
vt 0.159073 0.972514
vt 0.159073 0.972514
vt 0.159073 0.972514
vt 0.094683 0.969245
vt 0.094683 0.969245
vt 0.094683 0.969245
vt 0.094683 0.969246
vt 0.094683 0.969246
vt 0.094683 0.969246
vt 0.094684 0.969246
vt 0.094684 0.969246
vt 0.030682 0.969318
vt 0.030682 0.969318
vt 0.030682 0.969318
vt 0.030682 0.969318
vt 0.030682 0.969318
vt 0.030682 0.969318
vt 0.030682 0.969318
vt 0.030682 0.969318
vt 0.094684 0.969245
vt 0.094683 0.969246
vt 0.030682 0.969318
vt 0.030682 0.969318
vt 0.159073 0.972514
vt 0.159073 0.972514
vt 0.159073 0.972514
vt 0.159073 0.972514
vt 0.159073 0.972514
vt 0.717671 0.972514
vt 0.717671 0.972514
vt 0.717671 0.972514
vt 0.717671 0.972514
vt 0.159073 0.972514
vt 0.159073 0.972514
vt 0.159073 0.972514
vt 0.159073 0.972514
vt 0.159073 0.972514
vt 0.159073 0.972514
vt 0.159073 0.972514
vt 0.159073 0.972514
vt 0.159073 0.972514
vt 0.159073 0.972514
vt 0.159073 0.972514
vt 0.158111 0.969318
vt 0.158111 0.969318
vt 0.158111 0.969318
vt 0.158111 0.969318
vt 0.158111 0.969318
vt 0.158111 0.969318
vt 0.158111 0.969318
vt 0.158111 0.969318
vt 0.159073 0.972514
vt 0.159073 0.972514
vt 0.159073 0.972514
vt 0.159073 0.972514
vt 0.720132 0.972514
vt 0.720132 0.972514
vt 0.720132 0.972514
vt 0.720132 0.972514
vt 0.159073 0.972514
vt 0.159073 0.972514
vt 0.159073 0.972514
vt 0.159073 0.972514
vt 0.720132 0.972514
vt 0.720132 0.972514
vt 0.720132 0.972514
vt 0.720132 0.972514
vt 0.720132 0.972514
vt 0.720132 0.972514
vt 0.720132 0.972514
vt 0.720132 0.972514
vt 0.720132 0.972514
vt 0.159073 0.972514
vt 0.159073 0.972514
vt 0.159073 0.972514
vt 0.159073 0.972514
vt 0.159073 0.972514
vt 0.159073 0.972514
vt 0.159073 0.972514
vt 0.159073 0.972514
vt 0.159073 0.972514
vt 0.159073 0.972514
vt 0.159073 0.972514
vt 0.159073 0.972514
vt 0.720132 0.972514
vt 0.720132 0.972514
vt 0.720132 0.972514
vt 0.720132 0.972514
vt 0.720132 0.972514
vt 0.030682 0.969318
vt 0.030682 0.969318
vt 0.030682 0.969318
vt 0.030682 0.969318
vt 0.030682 0.969318
vt 0.030682 0.969318
vt 0.030682 0.969318
vt 0.030682 0.969318
vt 0.158111 0.969318
vt 0.158111 0.969318
vt 0.158111 0.969318
vt 0.158111 0.969318
vt 0.720132 0.972514
vt 0.720132 0.972514
vt 0.159073 0.972514
vt 0.159073 0.972514
vt 0.159073 0.972514
vt 0.159073 0.972514
vt 0.159073 0.972514
vt 0.159073 0.972514
vt 0.159073 0.972514
vt 0.159073 0.972514
vt 0.159074 0.972514
vt 0.159073 0.972514
vt 0.159073 0.972514
vt 0.159073 0.972514
vt 0.159073 0.972514
vt 0.159073 0.972514
vt 0.159073 0.972514
vt 0.159073 0.972514
vt 0.159073 0.972514
vt 0.159073 0.972514
vt 0.159073 0.972514
vt 0.159074 0.972514
vt 0.159073 0.972514
vt 0.159073 0.972514
vt 0.159073 0.972514
vt 0.159073 0.972514
vt 0.158111 0.969318
vt 0.158111 0.969318
vt 0.720132 0.972514
vt 0.720132 0.972514
vt 0.720132 0.972514
vt 0.720132 0.972514
vt 0.720132 0.972514
vt 0.720132 0.972514
vt 0.720132 0.972514
vt 0.720132 0.972514
vt 0.717671 0.972514
vt 0.717671 0.972514
vt 0.717671 0.972514
vt 0.717671 0.972514
vt 0.159073 0.972514
vt 0.717671 0.972514
vt 0.717671 0.972514
vt 0.717671 0.972514
vt 0.717671 0.972514
vt 0.720132 0.972514
vt 0.720132 0.972514
vt 0.720132 0.972514
vt 0.720132 0.972514
vt 0.030682 0.969318
vt 0.030682 0.969318
vt 0.030682 0.969318
vt 0.030682 0.969318
vt 0.030682 0.969318
vt 0.030682 0.969318
vt 0.030682 0.969318
vt 0.030682 0.969318
vt 0.720132 0.972514
vt 0.720132 0.972514
vt 0.720132 0.972514
vt 0.720132 0.972514
vt 0.159073 0.972514
vt 0.159073 0.972514
vt 0.159073 0.972514
vt 0.159073 0.972514
vt 0.159073 0.972514
vt 0.159073 0.972514
vt 0.159073 0.972514
vt 0.159073 0.972514
vt 0.159073 0.972514
vt 0.159073 0.972514
vt 0.720132 0.972514
vt 0.720132 0.972514
vt 0.159073 0.972514
vt 0.159073 0.972514
vt 0.159073 0.972514
vt 0.159073 0.972514
vt 0.720132 0.972514
vt 0.720132 0.972514
vt 0.717671 0.972514
vt 0.717671 0.972514
vt 0.717671 0.972514
vt 0.717671 0.972514
vt 0.717671 0.972514
vt 0.717671 0.972514
vt 0.717671 0.972514
vt 0.158111 0.969318
vt 0.158111 0.969318
vt 0.720132 0.972514
vt 0.720132 0.972514
vt 0.720132 0.972514
vt 0.720132 0.972514
vt 0.159073 0.972514
vt 0.159073 0.972514
vt 0.159073 0.972514
vt 0.159073 0.972514
vt 0.159073 0.972514
vt 0.159073 0.972514
vt 0.159073 0.972514
vt 0.159073 0.972514
vt 0.717671 0.972514
vt 0.717671 0.972514
vt 0.030682 0.969318
vt 0.030682 0.969318
vt 0.030682 0.969318
vt 0.030682 0.969318
vt 0.030682 0.969318
vt 0.030682 0.969318
vt 0.159073 0.972514
vt 0.094683 0.969245
vt 0.094683 0.969245
vt 0.094684 0.969245
vt 0.094684 0.969245
vt 0.094683 0.969245
vt 0.094684 0.969245
vt 0.094684 0.969245
vt 0.094683 0.969245
vt 0.094683 0.969245
vt 0.094683 0.969245
vt 0.030682 0.969318
vt 0.030682 0.969318
vt 0.159073 0.972514
vt 0.720132 0.972514
vt 0.720132 0.972514
vt 0.159073 0.972514
vt 0.720132 0.972514
vt 0.717671 0.972514
vt 0.717671 0.972514
vt 0.159073 0.972514
vt 0.159073 0.972514
vt 0.159073 0.972514
vt 0.720132 0.972514
vt 0.720132 0.972514
vt 0.720132 0.972514
vt 0.720132 0.972514
vt 0.717671 0.972514
vt 0.717671 0.972514
vt 0.717671 0.972514
vt 0.717671 0.972514
vt 0.720132 0.972514
vt 0.159073 0.972514
vt 0.159073 0.972514
vt 0.159073 0.972514
vt 0.720132 0.972514
vt 0.720132 0.972514
vt 0.720132 0.972514
vt 0.720132 0.972514
vt 0.720132 0.972514
vt 0.720132 0.972514
vt 0.720132 0.972514
vt 0.159073 0.972514
vt 0.159073 0.972514
vt 0.159073 0.972514
vt 0.159073 0.972514
vt 0.158111 0.969318
vt 0.158111 0.969318
vt 0.158111 0.969318
vt 0.158111 0.969318
vt 0.094683 0.969245
vt 0.094683 0.969245
vt 0.094684 0.969245
vt 0.092201 0.846279
vt 0.092201 0.846279
vt 0.094683 0.969246
vt 0.094683 0.969245
vt 0.094683 0.969245
vt 0.094683 0.969245
vt 0.094683 0.969245
vt 0.094683 0.969246
vt 0.094683 0.969246
vt 0.094684 0.969246
vt 0.094684 0.969246
vt 0.094684 0.969245
vt 0.094683 0.969246
vt 0.094684 0.969245
vt 0.094683 0.969246
vt 0.094683 0.969245
vt 0.094683 0.969245
vt 0.094683 0.969245
vt 0.094683 0.969246
vt 0.094683 0.969246
vt 0.094683 0.969246
vt 0.094684 0.969246
vt 0.094684 0.969246
vt 0.094684 0.969245
vt 0.094683 0.969246
vt 0.094684 0.969245
vt 0.094683 0.969246
vt 0.031500 0.972514
vt 0.031500 0.972514
vt 0.031500 0.972514
vt 0.031500 0.972514
vt 0.030682 0.969318
vt 0.030682 0.969318
vt 0.159073 0.972514
vt 0.030682 0.969318
vt 0.030682 0.969318
vt 0.029843 0.972514
vt 0.029843 0.972514
vt 0.029843 0.972514
vt 0.029843 0.972514
vt 0.158111 0.969318
vt 0.158111 0.969318
vt 0.158111 0.969318
vt 0.158111 0.969318
vt 0.158111 0.969318
vt 0.158111 0.969318
vt 0.158111 0.969318
vt 0.158111 0.969318
vt 0.158111 0.969318
vt 0.158111 0.969318
vt 0.720132 0.972514
vt 0.720132 0.972514
vt 0.159073 0.972514
vt 0.159073 0.972514
vt 0.159074 0.972514
vt 0.159073 0.972514
vt 0.159073 0.972514
vt 0.720132 0.972514
vt 0.720132 0.972514
vt 0.720132 0.972514
vt 0.159073 0.972514
vt 0.720132 0.972514
vt 0.720132 0.972514
vt 0.720132 0.972514
vt 0.159073 0.972514
vt 0.159074 0.972514
vt 0.159073 0.972514
vt 0.159073 0.972514
vt 0.720132 0.972514
vt 0.720132 0.972514
vt 0.720132 0.972514
vt 0.159073 0.972514
vt 0.717671 0.972514
vt 0.717671 0.972514
vt 0.717671 0.972514
vt 0.159073 0.972514
vt 0.159073 0.972514
vt 0.159073 0.972514
vt 0.720132 0.972514
vt 0.720132 0.972514
vt 0.159073 0.972514
vt 0.159073 0.972514
vt 0.159073 0.972514
vt 0.720132 0.972514
vt 0.720132 0.972514
vt 0.159073 0.972514
vt 0.717671 0.972514
vt 0.717671 0.972514
vt 0.720132 0.972514
vt 0.720132 0.972514
vt 0.720132 0.972514
vt 0.720132 0.972514
vt 0.159073 0.972514
vt 0.159073 0.972514
vt 0.159073 0.972514
vt 0.159073 0.972514
vt 0.720132 0.972514
vt 0.720132 0.972514
vt 0.720132 0.972514
vt 0.159073 0.972514
vt 0.159073 0.972514
vt 0.717671 0.972514
vt 0.717671 0.972514
vt 0.158111 0.969318
vt 0.158111 0.969318
vt 0.158111 0.969318
vt 0.158111 0.969318
vt 0.717671 0.972514
vt 0.717671 0.972514
vt 0.717671 0.972514
vt 0.717671 0.972514
vt 0.159073 0.972514
vt 0.158111 0.969318
vt 0.158111 0.969318
vt 0.159073 0.972514
vt 0.159073 0.972514
vt 0.159073 0.972514
vt 0.159073 0.972514
vt 0.159073 0.972514
vt 0.717671 0.972514
vt 0.717671 0.972514
vt 0.717671 0.972514
vt 0.157858 0.969800
vt 0.157858 0.969800
vt 0.157858 0.969800
vt 0.157858 0.969800
vt 0.157858 0.969800
vt 0.157858 0.969800
vt 0.157858 0.969801
vt 0.157858 0.969801
vt 0.157858 0.969800
vt 0.157858 0.969800
vt 0.157858 0.969800
vt 0.157858 0.969800
vt 0.157858 0.969800
vt 0.157858 0.969800
vt 0.157858 0.969800
vt 0.157858 0.969800
vt 0.157858 0.969801
vt 0.157858 0.969801
vt 0.157858 0.969801
vt 0.157858 0.969801
vt 0.157858 0.969801
vt 0.157858 0.969801
vt 0.157858 0.969800
vt 0.157858 0.969800
vt 0.157858 0.969800
vt 0.157858 0.969800
vt 0.157858 0.969800
vt 0.157858 0.969800
vt 0.157858 0.969800
vt 0.157858 0.969801
vt 0.157858 0.969801
vt 0.157858 0.969801
vt 0.157858 0.969801
vt 0.157858 0.969801
vt 0.157858 0.969801
vt 0.157858 0.969800
vt 0.157858 0.969800
vt 0.157858 0.969800
vt 0.157858 0.969800
vt 0.157858 0.969800
vt 0.157858 0.969800
vt 0.157858 0.969801
vt 0.157858 0.969801
vt 0.157858 0.969801
vt 0.157858 0.969801
vt 0.157858 0.969800
vt 0.157858 0.969801
vt 0.157858 0.969800
vt 0.157858 0.969801
vt 0.717671 0.972514
vt 0.717671 0.972514
vt 0.717671 0.972514
vt 0.159073 0.972514
vt 0.159073 0.972514
vt 0.717671 0.972514
vt 0.717671 0.972514
vt 0.159073 0.972514
vt 0.717671 0.972514
vt 0.717671 0.972514
vt 0.717671 0.972514
vt 0.159073 0.972514
vt 0.159073 0.972514
vt 0.159073 0.972514
vt 0.159073 0.972514
vt 0.717671 0.972514
vt 0.717671 0.972514
vt 0.717671 0.972514
vt 0.159073 0.972514
vt 0.717671 0.972514
vt 0.717671 0.972514
vt 0.717671 0.972514
vt 0.159074 0.972514
vt 0.159073 0.972514
vt 0.159073 0.972514
vt 0.717671 0.972514
vt 0.717671 0.972514
vt 0.717671 0.972514
vt 0.159073 0.972514
vt 0.159073 0.972514
vt 0.159073 0.972514
vt 0.159073 0.972514
vt 0.159073 0.972514
vt 0.159073 0.972514
vt 0.159073 0.972514
vt 0.159073 0.972514
vt 0.159073 0.972514
vt 0.159073 0.972514
vt 0.159073 0.972514
vt 0.159073 0.972514
vt 0.159073 0.972514
vt 0.159073 0.972514
vt 0.159073 0.972514
vt 0.159073 0.972514
vt 0.159073 0.972514
vt 0.159073 0.972514
vt 0.159073 0.972514
vt 0.159073 0.972514
vt 0.159073 0.972514
vt 0.159073 0.972514
vt 0.159073 0.972514
vt 0.159073 0.972514
vt 0.159073 0.972514
vt 0.159073 0.972514
vt 0.159073 0.972514
vt 0.720132 0.972514
vt 0.159073 0.972514
vt 0.159073 0.972514
vt 0.159073 0.972514
vt 0.159073 0.972514
vt 0.159073 0.972514
vt 0.159073 0.972514
vt 0.159073 0.972514
vt 0.159073 0.972514
vt 0.159073 0.972514
vt 0.159073 0.972514
vt 0.159073 0.972514
vt 0.159073 0.972514
vt 0.159073 0.972514
vt 0.159073 0.972514
vn -0.0000 0.0320 -0.9995
vn -0.0000 0.0894 0.9960
vn 1.0000 0.0000 0.0000
vn 0.9554 0.2951 -0.0144
vn 0.9774 0.2109 -0.0106
vn 0.0000 0.0000 -1.0000
vn 0.0023 1.0000 -0.0022
vn -1.0000 0.0000 0.0000
vn 0.0000 -1.0000 -0.0000
vn 0.0000 -1.0000 -0.0017
vn -0.0004 -0.0003 -1.0000
vn 0.0000 -1.0000 -0.0008
vn -0.9929 -0.1189 0.0054
vn -0.9992 -0.0294 0.0253
vn 0.0004 0.0002 1.0000
vn 0.0000 0.0000 1.0000
vn -0.0000 1.0000 -0.0070
vn -0.0004 -0.0005 -1.0000
vn 0.0000 0.0017 1.0000
vn -0.9938 -0.1106 0.0067
vn -0.9995 -0.0246 0.0201
vn 0.0030 1.0000 0.0017
vn 0.0000 -0.0016 -1.0000
vn -0.0004 -0.0004 -1.0000
vn 0.0004 0.0003 1.0000
vn 0.0021 1.0000 -0.0062
vn 0.0025 1.0000 -0.0038
vn -0.9958 -0.0906 0.0110
vn -0.9995 -0.0220 0.0232
vn 0.0000 -1.0000 0.0072
vn -0.0001 0.0839 -0.9965
vn 0.0018 1.0000 -0.0070
vn -0.0002 0.0319 -0.9995
vn -0.0004 -0.0006 -1.0000
vn -0.0004 -0.0002 -1.0000
vn -0.0003 -0.0003 -1.0000
vn -0.0003 -0.0002 -1.0000
vn -0.9955 -0.0946 0.0076
vn -0.9996 -0.0175 0.0210
vn 0.0002 0.0383 0.9993
vn 0.0004 0.0895 0.9960
vn 0.0000 0.0840 -0.9965
vn 0.0000 1.0000 -0.0000
vn -0.0000 0.0383 0.9993
vn -0.0000 -0.0001 1.0000
vn 0.0001 -0.0000 1.0000
vn -0.0001 -0.0001 1.0000
vn 0.9524 -0.3038 -0.0267
vn 0.0000 -0.9834 0.1816
vn 0.0000 -0.9849 -0.1734
vn 0.9523 -0.3038 0.0281
vn 0.0000 -0.9849 -0.1733
vn 0.0000 -0.9836 0.1805
vn 0.9523 -0.3038 0.0279
vn -0.9998 -0.0152 0.0090
vn 0.0003 0.0004 1.0000
vn -0.9980 -0.0630 0.0007
vn -0.9998 -0.0167 0.0060
vn 0.0004 0.0004 1.0000
vn -0.9978 -0.0658 0.0013
vn -0.9998 -0.0181 0.0083
vn -0.9971 -0.0756 0.0037
vn -0.9997 -0.0231 0.0059
vn -0.9971 -0.0760 0.0007
vn -0.9554 0.2951 -0.0144
vn -0.9774 0.2109 -0.0106
vn -0.0023 1.0000 -0.0022
vn 0.0004 -0.0003 -1.0000
vn 0.9929 -0.1189 0.0054
vn 0.9992 -0.0294 0.0253
vn -0.0004 0.0002 1.0000
vn 0.0004 -0.0005 -1.0000
vn 0.9938 -0.1106 0.0067
vn 0.9995 -0.0246 0.0201
vn -0.0030 1.0000 0.0017
vn 0.0004 -0.0004 -1.0000
vn -0.0004 0.0003 1.0000
vn -0.0021 1.0000 -0.0062
vn -0.0025 1.0000 -0.0038
vn 0.9958 -0.0906 0.0110
vn 0.9995 -0.0220 0.0232
vn 0.0001 0.0839 -0.9965
vn -0.0018 1.0000 -0.0070
vn 0.0002 0.0319 -0.9995
vn 0.0004 -0.0006 -1.0000
vn 0.0004 -0.0002 -1.0000
vn 0.0003 -0.0003 -1.0000
vn 0.0003 -0.0002 -1.0000
vn 0.9955 -0.0946 0.0076
vn 0.9996 -0.0175 0.0210
vn -0.0002 0.0383 0.9993
vn -0.0004 0.0895 0.9960
vn -0.0001 -0.0000 1.0000
vn 0.0001 -0.0001 1.0000
vn -0.9524 -0.3038 -0.0267
vn -0.9523 -0.3038 0.0281
vn -0.9523 -0.3038 0.0279
vn 0.9998 -0.0152 0.0090
vn -0.0003 0.0004 1.0000
vn 0.9980 -0.0630 0.0007
vn 0.9998 -0.0167 0.0060
vn -0.0004 0.0004 1.0000
vn 0.9978 -0.0658 0.0013
vn 0.9998 -0.0181 0.0083
vn 0.9971 -0.0756 0.0037
vn 0.9997 -0.0231 0.0059
vn 0.9971 -0.0760 0.0007
usemtl Medieval
s off
f 8/1/1 9/2/1 55/3/1 125/4/1
f 5/5/2 6/6/2 87/7/2 88/8/2
f 13/9/3 259/10/3 90/11/3
f 14/12/3 2/13/3 3/14/3 4/15/3 1/16/3
f 8/1/4 7/17/4 6/6/4 5/5/4
f 9/2/5 8/1/5 5/5/5 10/18/5
f 4/15/3 11/19/3 90/11/3 1/16/3
f 11/19/3 12/20/3 13/9/3 90/11/3
f 256/21/6 119/22/6 209/23/6 281/24/6 208/25/6
f 119/26/7 118/27/7 205/28/7 209/29/7
f 16/30/8 290/31/8 291/32/8 288/33/8 286/34/8
f 4/35/3 3/36/3 18/37/3 17/38/3
f 17/38/3 20/39/3 11/40/3 4/35/3
f 2/41/9 14/42/9 110/43/9 70/44/9
f 57/45/9 69/46/9 195/47/9 197/48/9
f 104/49/10 117/50/10 207/51/10 206/52/10
f 301/53/11 51/54/11 177/55/11 303/56/11
f 42/57/12 30/58/12 184/59/12 185/60/12
f 297/61/13 330/62/13 298/63/13 28/64/13 27/65/13
f 293/66/14 294/67/14 25/68/14 26/69/14
f 298/70/15 24/71/15 172/72/15 299/73/15
f 20/39/3 21/74/3 12/75/3 11/40/3
f 12/75/3 21/74/3 13/76/3
f 2/77/3 18/37/3 3/36/3
f 318/78/16 80/79/16 196/80/16 320/81/16
f 313/82/11 84/83/11 189/84/11 315/85/11 336/86/11
f 35/87/3 14/12/3 1/16/3
f 36/88/3 30/89/3 31/90/3 32/91/3 54/92/3
f 32/91/3 33/93/3 1/16/3 54/92/3
f 33/93/3 34/94/3 35/87/3 1/16/3
f 36/95/9 64/96/9 193/97/9 182/98/9
f 20/39/17 17/38/17 43/99/17 114/100/17
f 297/61/18 27/65/18 39/101/18 300/102/18
f 32/103/3 31/104/3 42/57/3 41/105/3
f 41/105/3 45/106/3 33/107/3 32/103/3
f 310/108/16 48/109/16 183/110/16 312/111/16 334/112/16
f 73/113/19 74/114/19 94/115/19 106/116/19
f 294/117/16 15/118/16 173/119/16 296/120/16
f 35/121/10 46/122/10 181/123/10 180/124/10
f 314/125/15 81/126/15 200/127/15 316/128/15
f 14/42/9 35/129/9 180/130/9 110/43/9
f 305/131/20 332/132/20 331/133/20 306/134/20 53/135/20 52/136/20
f 301/53/21 302/137/21 50/138/21 51/54/21
f 23/139/7 22/140/7 38/141/7 71/142/7
f 45/106/3 46/122/3 34/143/3 33/107/3
f 34/143/3 46/122/3 35/121/3
f 30/58/3 42/57/3 31/104/3
f 80/144/7 79/145/7 192/146/7 196/147/7
f 83/148/22 82/149/22 191/150/22 190/151/22
f 64/152/3 36/88/3 54/92/3
f 69/153/3 57/154/3 58/155/3 59/156/3 56/157/3
f 59/156/3 62/158/3 54/92/3 56/157/3
f 62/158/3 63/159/3 64/152/3 54/92/3
f 21/74/23 20/39/23 114/100/23 111/160/23
f 321/161/24 123/162/24 202/163/24 323/164/24
f 46/122/23 45/106/23 95/165/23 67/166/23
f 41/105/19 42/57/19 105/167/19 107/168/19
f 322/169/25 120/170/25 213/171/25 324/172/25
f 17/38/19 18/37/19 40/173/19 43/99/19
f 68/174/8 16/30/8 286/34/8 287/175/8
f 59/176/3 58/177/3 74/114/3 73/113/3
f 73/113/3 77/178/3 62/179/3 59/176/3
f 26/69/22 25/68/22 132/180/22 29/181/22
f 45/106/17 41/105/17 107/168/17 95/165/17
f 306/182/15 49/183/15 187/184/15 308/185/15
f 84/83/26 85/186/26 188/187/26 189/84/26
f 120/188/27 115/189/27 212/190/27 213/191/27
f 24/192/8 289/193/8 19/194/8
f 30/195/9 36/95/9 182/98/9 184/196/9
f 313/82/28 337/197/28 314/198/28 85/186/28 84/83/28
f 309/199/29 310/200/29 82/149/29 83/148/29
f 21/74/30 18/37/30 170/201/30 109/202/30
f 77/178/3 78/203/3 63/204/3 62/179/3
f 63/204/3 78/203/3 64/205/3
f 57/206/3 74/114/3 58/177/3
f 78/203/30 74/114/30 198/207/30 194/208/30
f 24/192/27 19/194/27 171/209/27 172/210/27
f 104/211/3 69/153/3 56/157/3
f 256/212/3 91/213/3 92/214/3 93/215/3 133/216/3
f 117/50/30 60/217/30 75/218/30 113/219/30
f 127/220/31 126/221/31 98/222/31 99/223/31
f 99/223/4 98/222/4 97/224/4 96/225/4
f 126/221/32 131/226/32 97/224/32 98/222/32
f 100/227/5 99/223/5 96/225/5 101/228/5
f 129/229/33 127/220/33 99/223/33 100/227/33
f 93/215/3 102/230/3 56/157/3 133/216/3
f 102/230/3 103/231/3 104/211/3 56/157/3
f 112/232/19 113/219/19 75/218/19 72/233/19
f 21/74/30 111/160/30 40/173/30 18/37/30
f 305/131/34 52/136/34 176/234/34 307/235/34
f 117/50/23 116/236/23 61/237/23 60/217/23
f 78/203/30 65/238/30 94/115/30 74/114/30
f 27/65/26 28/64/26 108/239/26 39/101/26
f 116/236/17 112/232/17 72/233/17 61/237/17
f 46/122/30 67/166/30 105/167/30 42/57/30
f 289/193/8 288/240/8 291/241/8 19/194/8
f 93/242/3 92/243/3 113/219/3 112/232/3
f 112/232/3 116/236/3 102/244/3 93/242/3
f 317/245/35 122/246/35 203/247/35 319/248/35
f 77/178/17 73/113/17 106/116/17 66/249/17
f 78/203/23 77/178/23 66/249/23 65/238/23
f 81/250/27 76/251/27 199/252/27 200/253/27
f 293/66/36 26/69/36 29/181/36 295/254/36
f 18/37/12 2/77/12 70/255/12 170/201/12
f 68/174/8 287/175/8 292/256/8
f 19/257/8 291/32/8 290/31/8 15/118/8
f 309/199/37 83/148/37 190/151/37 311/258/37
f 321/161/38 342/259/38 322/260/38 124/261/38 123/162/38
f 317/245/39 340/262/39 318/263/39 121/264/39 122/246/39
f 74/114/12 57/206/12 197/265/12 198/207/12
f 116/236/3 117/50/3 103/266/3 102/244/3
f 103/266/3 117/50/3 104/49/3
f 91/267/3 113/219/3 92/243/3
f 117/50/30 113/219/30 211/268/30 207/51/30
f 91/269/9 256/270/9 208/271/9 210/272/9
f 101/228/40 96/225/40 130/273/40 128/274/40
f 96/225/41 97/224/41 131/226/41 130/273/41
f 7/17/42 8/1/42 125/4/42 86/275/42
f 16/276/43 68/277/43 136/278/43 135/279/43
f 10/18/44 5/5/44 88/8/44 89/280/44
f 7/17/17 86/275/17 87/7/17 6/6/17
f 140/281/1 141/282/1 143/283/1 148/284/1
f 137/285/2 138/286/2 145/287/2 146/288/2
f 140/281/4 139/289/4 138/286/4 137/285/4
f 141/282/5 140/281/5 137/285/5 142/290/5
f 139/289/42 140/281/42 148/284/42 144/291/42
f 142/290/44 137/285/44 146/288/44 147/292/44
f 139/289/17 144/291/17 145/287/17 138/286/17
f 152/293/1 153/294/1 155/295/1 160/296/1
f 149/297/2 150/298/2 157/299/2 158/300/2
f 152/293/4 151/301/4 150/298/4 149/297/4
f 153/294/5 152/293/5 149/297/5 154/302/5
f 151/301/42 152/293/42 160/296/42 156/303/42
f 154/302/44 149/297/44 158/300/44 159/304/44
f 151/301/17 156/303/17 157/299/17 150/298/17
f 119/22/6 256/21/6 68/174/6 292/256/6
f 68/305/6 256/306/6 133/307/6 134/308/6
f 136/309/6 68/310/6 134/311/6 161/312/6
f 15/118/45 290/31/45 16/30/45 259/313/45
f 16/314/46 135/315/46 163/316/46 167/317/46
f 259/318/16 16/319/16 167/320/16 90/321/16
f 133/322/9 56/323/9 166/324/9 134/325/9
f 54/326/9 1/327/9 164/328/9 165/329/9
f 1/327/9 90/330/9 167/331/9 164/328/9
f 56/323/9 54/326/9 165/329/9 166/324/9
f 166/324/9 165/329/9 168/332/9 169/333/9
f 134/325/9 166/324/9 169/333/9 161/334/9
f 164/328/9 167/331/9 163/335/9 162/336/9
f 165/329/9 164/328/9 162/336/9 168/332/9
f 296/337/3 325/338/3 295/254/3 29/181/3 132/180/3
f 170/201/3 283/339/3 275/340/3
f 109/202/3 170/201/3 274/341/3
f 170/201/3 270/342/3 285/343/3 274/341/3
f 170/201/3 275/340/3 270/342/3
f 299/344/3 329/345/3 328/346/3 300/102/3 39/101/3 108/239/3
f 170/201/3 70/255/3 268/347/3 283/339/3
f 304/348/3 326/349/3 303/56/3 177/55/3 178/350/3
f 185/60/3 263/351/3 273/352/3
f 181/123/3 185/60/3 265/353/3
f 185/60/3 279/354/3 265/353/3
f 185/60/3 273/352/3 279/354/3
f 308/355/3 333/356/3 307/235/3 176/234/3 175/357/3
f 185/60/3 184/59/3 278/358/3 263/351/3
f 183/359/3 278/360/3 280/361/3
f 71/362/3 268/347/3 265/353/3
f 183/110/3 280/363/3 266/364/3
f 312/365/3 327/366/3 311/258/3 190/151/3 191/150/3
f 194/208/3 198/207/3 266/364/3
f 198/207/3 269/367/3 284/368/3 266/364/3
f 198/207/3 277/369/3 269/367/3
f 316/370/3 335/371/3 315/85/3 189/84/3 188/187/3
f 198/207/3 197/265/3 267/372/3 277/369/3
f 196/147/3 267/373/3 264/374/3
f 320/375/3 339/376/3 338/377/3 319/248/3 203/247/3 204/378/3
f 207/51/3 211/268/3 272/379/3 264/380/3
f 211/268/3 282/381/3 272/379/3
f 211/268/3 276/382/3 282/381/3
f 324/383/3 341/384/3 323/164/3 202/163/3 201/385/3
f 211/268/3 210/386/3 271/387/3 276/382/3
f 209/29/3 271/388/3 281/389/3
f 259/390/9 13/391/9 37/392/9 174/393/9
f 49/394/27 44/395/27 186/396/27 187/397/27
f 15/118/47 259/313/47 174/398/47 173/119/47
f 113/219/12 91/267/12 210/386/12 211/268/12
f 46/122/30 42/57/30 185/60/30 181/123/30
f 52/136/26 53/135/26 175/357/26 176/234/26
f 123/162/26 124/261/26 201/385/26 202/163/26
f 69/46/9 104/399/9 206/400/9 195/47/9
f 64/205/10 78/203/10 194/208/10 193/401/10
f 13/76/10 21/74/10 109/202/10 37/402/10
f 302/403/16 23/404/16 71/362/16 304/405/16
f 48/406/7 47/407/7 179/408/7 183/359/7
f 51/54/22 50/138/22 178/350/22 177/55/22
f 122/246/22 121/264/22 204/378/22 203/247/22
f 226/409/6 229/410/6 235/411/6 233/412/6
f 229/410/48 228/413/48 234/414/48 235/411/48
f 221/415/49 220/416/49 224/417/49 222/418/49
f 220/416/50 223/419/50 225/420/50 224/417/50
f 219/421/48 218/422/48 224/417/48 225/420/48
f 216/423/6 219/421/6 225/420/6 223/419/6
f 230/424/50 233/412/50 235/411/50 234/414/50
f 231/425/49 230/424/49 234/414/49 232/426/49
f 218/422/51 217/427/51 222/418/51 224/417/51
f 217/427/16 214/428/16 221/415/16 222/418/16
f 228/413/51 227/429/51 232/426/51 234/414/51
f 227/429/16 215/430/16 231/425/16 232/426/16
f 237/431/6 240/432/6 246/433/6 244/434/6
f 240/432/48 239/435/48 245/436/48 246/433/48
f 241/437/50 244/434/50 246/433/50 245/436/50
f 242/438/49 241/437/49 245/436/49 243/439/49
f 239/435/51 238/440/51 243/439/51 245/436/51
f 238/440/16 236/441/16 242/438/16 243/439/16
f 258/442/52 260/443/52 262/444/52 261/445/52
f 255/446/6 251/447/6 256/448/6 250/449/6
f 252/450/53 251/447/53 255/446/53 253/451/53
f 250/449/54 249/452/54 253/451/54 255/446/54
f 249/452/16 247/453/16 252/450/16 253/451/16
f 257/454/48 248/455/48 261/445/48 262/444/48
f 254/456/6 257/454/6 262/444/6 260/443/6
f 258/442/16 261/445/16 248/455/16 259/457/16
f 276/458/3 209/29/3 205/28/3
f 281/24/3 271/387/3 210/386/3 208/25/3
f 283/459/3 268/460/3 71/142/3
f 265/353/3 186/461/3 71/362/3
f 265/353/3 268/347/3 180/124/3 181/123/3
f 269/367/3 277/369/3 192/462/3 200/127/3
f 276/458/3 271/388/3 209/29/3
f 173/119/3 174/398/3 37/402/3
f 273/463/3 263/464/3 183/359/3 179/408/3
f 280/363/3 278/358/3 184/59/3 182/465/3
f 266/466/3 284/467/3 269/468/3 200/253/3 199/252/3
f 264/380/3 195/469/3 206/52/3
f 270/342/3 275/340/3 38/470/3 172/72/3
f 263/464/3 278/360/3 183/359/3
f 266/364/3 199/471/3 183/110/3
f 266/364/3 193/401/3 194/208/3
f 282/381/3 276/382/3 205/472/3 213/171/3
f 274/473/3 285/474/3 270/475/3 172/210/3 171/209/3
f 268/347/3 110/476/3 180/124/3
f 277/477/3 196/147/3 192/146/3
f 264/380/3 267/372/3 197/265/3 195/469/3
f 272/478/3 282/479/3 213/191/3 212/190/3
f 274/341/3 171/480/3 173/119/3
f 274/341/3 173/119/3 37/402/3 109/202/3
f 279/354/3 273/352/3 179/481/3 187/184/3
f 277/477/3 267/373/3 196/147/3
f 264/380/3 272/379/3 212/482/3 196/80/3
f 264/380/3 206/52/3 207/51/3
f 275/483/3 283/459/3 71/142/3 38/141/3
f 268/347/3 70/255/3 110/476/3
f 265/484/3 279/485/3 187/397/3 186/396/3
f 266/364/3 280/363/3 182/465/3 193/401/3
f 286/34/8 289/486/8 24/71/8
f 287/175/8 286/34/8 48/109/8 76/487/8
f 287/175/8 79/488/8 80/79/8
f 287/175/8 76/487/8 81/126/8
f 287/175/8 115/489/8 120/170/8
f 286/34/8 49/183/8 47/490/8
f 286/34/8 288/33/8 289/486/8
f 286/34/8 24/71/8 22/491/8
f 292/256/8 287/175/8 118/492/8 119/22/8
f 287/175/8 80/79/8 115/489/8
f 286/34/8 23/404/8 44/493/8
f 287/175/8 81/126/8 79/488/8
f 287/175/8 120/170/8 118/492/8
f 286/34/8 47/490/8 48/109/8
f 286/34/8 44/493/8 49/183/8
f 286/34/8 22/491/8 23/404/8
f 173/119/3 171/480/3 295/494/3 325/495/3 296/120/3
f 19/257/37 293/496/37 295/494/37 171/480/37
f 25/68/16 294/67/16 296/337/16 132/180/16
f 19/257/55 15/118/55 294/117/55 293/496/55
f 172/72/3 38/470/3 300/497/3 328/498/3 329/499/3 299/73/3
f 22/491/35 297/500/35 300/497/35 38/470/35
f 28/64/56 298/63/56 299/344/56 108/239/56
f 22/491/57 24/71/57 298/70/57 330/501/57 297/500/57
f 50/138/16 302/137/16 304/348/16 178/350/16
f 71/362/3 186/461/3 303/502/3 326/503/3 304/405/3
f 44/493/58 23/404/58 302/403/58 301/504/58
f 44/493/35 301/504/35 303/502/35 186/461/35
f 187/184/3 179/481/3 307/505/3 333/506/3 308/185/3
f 47/490/35 305/507/35 307/505/35 179/481/35
f 53/135/59 306/134/59 308/355/59 175/357/59
f 47/490/60 49/183/60 306/182/60 331/508/60 332/509/60 305/507/60
f 183/110/3 199/471/3 311/510/3 327/511/3 312/111/3
f 76/487/37 309/512/37 311/510/37 199/471/37
f 76/487/61 48/109/61 310/108/61 309/512/61
f 82/149/16 310/200/16 334/513/16 312/365/16 191/150/16
f 200/127/3 192/462/3 315/514/3 335/515/3 316/128/3
f 79/488/62 81/126/62 314/125/62 337/516/62 313/517/62
f 85/186/56 314/198/56 316/370/56 188/187/56
f 79/488/11 313/517/11 336/518/11 315/514/11 192/462/11
f 196/80/3 212/482/3 319/519/3 338/520/3 339/521/3 320/81/3
f 115/489/63 80/79/63 318/78/63 340/522/63 317/523/63
f 115/489/11 317/523/11 319/519/11 212/482/11
f 121/264/16 318/263/16 320/375/16 204/378/16
f 213/171/3 205/472/3 323/524/3 341/525/3 324/172/3
f 118/492/64 120/170/64 322/169/64 342/526/64 321/527/64
f 124/261/25 322/260/25 324/383/25 201/385/25
f 118/492/11 321/527/11 323/524/11 205/472/11
f 350/528/1 451/529/1 395/530/1 351/531/1
f 347/532/2 421/533/2 420/534/2 348/535/2
f 355/536/8 423/537/8 578/538/8
f 356/539/8 343/540/8 346/541/8 345/542/8 344/543/8
f 350/528/65 347/532/65 348/535/65 349/544/65
f 351/531/66 352/545/66 347/532/66 350/528/66
f 346/541/8 343/540/8 423/537/8 353/546/8
f 353/546/8 423/537/8 355/536/8 354/547/8
f 575/548/6 527/549/6 600/550/6 528/551/6 445/552/6
f 445/553/67 528/554/67 524/555/67 444/556/67
f 358/557/3 605/558/3 607/559/3 610/560/3 609/561/3
f 346/562/8 359/563/8 360/564/8 345/565/8
f 359/563/8 346/562/8 353/566/8 362/567/8
f 344/568/9 405/569/9 438/570/9 356/571/9
f 397/572/9 516/573/9 514/574/9 404/575/9
f 435/576/10 525/577/10 526/578/10 443/579/10
f 620/580/68 622/581/68 496/582/68 391/583/68
f 383/584/12 504/585/12 503/586/12 372/587/12
f 616/588/69 369/589/69 370/590/69 617/591/69 649/592/69
f 612/593/70 368/594/70 367/595/70 613/596/70
f 617/597/71 618/598/71 491/599/71 366/600/71
f 362/567/8 353/566/8 354/601/8 363/602/8
f 354/601/8 355/603/8 363/602/8
f 344/604/8 345/565/8 360/564/8
f 637/605/16 639/606/16 515/607/16 413/608/16
f 632/609/68 655/610/68 634/611/68 508/612/68 417/613/68
f 377/614/8 343/540/8 356/539/8
f 378/615/8 394/616/8 374/617/8 373/618/8 372/619/8
f 374/617/8 394/616/8 343/540/8 375/620/8
f 375/620/8 343/540/8 377/614/8 376/621/8
f 378/622/9 501/623/9 512/624/9 402/625/9
f 362/567/17 114/100/17 43/99/17 359/563/17
f 616/588/72 619/626/72 381/627/72 369/589/72
f 374/628/8 382/629/8 383/584/8 373/630/8
f 382/629/8 374/628/8 375/631/8 385/632/8
f 629/633/16 653/634/16 631/635/16 502/636/16 388/637/16
f 407/638/19 106/116/19 94/115/19 408/639/19
f 613/640/16 615/641/16 492/642/16 357/643/16
f 377/644/10 499/645/10 500/646/10 386/647/10
f 633/648/71 635/649/71 519/650/71 414/651/71
f 356/571/9 438/570/9 499/652/9 377/653/9
f 624/654/73 392/655/73 393/656/73 625/657/73 650/658/73 651/659/73
f 620/580/74 391/583/74 390/660/74 621/661/74
f 365/662/67 406/663/67 380/664/67 364/665/67
f 385/632/8 375/631/8 376/666/8 386/647/8
f 376/666/8 377/644/8 386/647/8
f 372/587/8 373/630/8 383/584/8
f 413/667/67 515/668/67 511/669/67 412/670/67
f 416/671/75 509/672/75 510/673/75 415/674/75
f 402/675/8 394/616/8 378/615/8
f 404/676/8 396/677/8 399/678/8 398/679/8 397/680/8
f 399/678/8 396/677/8 394/616/8 400/681/8
f 400/681/8 394/616/8 402/675/8 401/682/8
f 363/602/23 111/160/23 114/100/23 362/567/23
f 640/683/76 642/684/76 521/685/76 449/686/76
f 386/647/23 67/166/23 95/165/23 385/632/23
f 382/629/19 107/168/19 105/167/19 383/584/19
f 641/687/77 643/688/77 532/689/77 446/690/77
f 359/563/19 43/99/19 40/173/19 360/564/19
f 403/691/3 606/692/3 605/558/3 358/557/3
f 399/693/8 407/638/8 408/639/8 398/694/8
f 407/638/8 399/693/8 400/695/8 410/696/8
f 368/594/75 371/697/75 458/698/75 367/595/75
f 385/632/17 95/165/17 107/168/17 382/629/17
f 625/699/71 627/700/71 506/701/71 389/702/71
f 417/613/78 508/612/78 507/703/78 418/704/78
f 446/705/79 532/706/79 531/707/79 441/708/79
f 366/709/3 361/710/3 608/711/3
f 372/712/9 503/713/9 501/623/9 378/622/9
f 632/609/80 417/613/80 418/704/80 633/714/80 656/715/80
f 628/716/81 416/671/81 415/674/81 629/717/81
f 363/602/30 437/718/30 489/719/30 360/564/30
f 410/696/8 400/695/8 401/720/8 411/721/8
f 401/720/8 402/722/8 411/721/8
f 397/723/8 398/694/8 408/639/8
f 411/721/30 513/724/30 517/725/30 408/639/30
f 366/709/79 491/726/79 490/727/79 361/710/79
f 435/728/8 396/677/8 404/676/8
f 575/729/8 459/730/8 426/731/8 425/732/8 424/733/8
f 443/579/30 440/734/30 75/218/30 60/217/30
f 453/735/82 430/736/82 429/737/82 452/738/82
f 430/736/65 427/739/65 428/740/65 429/737/65
f 452/738/83 429/737/83 428/740/83 457/741/83
f 431/742/66 432/743/66 427/739/66 430/736/66
f 455/744/84 431/742/84 430/736/84 453/735/84
f 426/731/8 459/730/8 396/677/8 433/745/8
f 433/745/8 396/677/8 435/728/8 434/746/8
f 439/747/19 72/233/19 75/218/19 440/734/19
f 363/602/30 360/564/30 40/173/30 111/160/30
f 624/654/85 626/748/85 495/749/85 392/655/85
f 443/579/23 60/217/23 61/237/23 442/750/23
f 411/721/30 408/639/30 94/115/30 65/238/30
f 369/589/78 381/627/78 436/751/78 370/590/78
f 442/750/17 61/237/17 72/233/17 439/747/17
f 386/647/30 383/584/30 105/167/30 67/166/30
f 608/711/3 361/710/3 610/752/3 607/753/3
f 426/754/8 439/747/8 440/734/8 425/755/8
f 439/747/8 426/754/8 433/756/8 442/750/8
f 636/757/86 638/758/86 522/759/86 448/760/86
f 410/696/17 66/249/17 106/116/17 407/638/17
f 411/721/23 65/238/23 66/249/23 410/696/23
f 414/761/79 519/762/79 518/763/79 409/764/79
f 612/593/87 614/765/87 371/697/87 368/594/87
f 360/564/12 489/719/12 405/766/12 344/604/12
f 403/691/3 611/767/3 606/692/3
f 361/768/3 357/643/3 609/561/3 610/560/3
f 628/716/88 630/769/88 509/672/88 416/671/88
f 640/683/89 449/686/89 450/770/89 641/771/89 661/772/89
f 636/757/90 448/760/90 447/773/90 637/774/90 659/775/90
f 408/639/12 517/725/12 516/776/12 397/723/12
f 442/750/8 433/756/8 434/777/8 443/579/8
f 434/777/8 435/576/8 443/579/8
f 424/778/8 425/755/8 440/734/8
f 443/579/30 526/578/30 530/779/30 440/734/30
f 424/780/9 529/781/9 527/782/9 575/783/9
f 432/743/91 454/784/91 456/785/91 427/739/91
f 427/739/92 456/785/92 457/741/92 428/740/92
f 349/544/42 419/786/42 451/529/42 350/528/42
f 358/787/43 135/279/43 136/278/43 403/788/43
f 352/545/44 422/789/44 421/533/44 347/532/44
f 349/544/17 348/535/17 420/534/17 419/786/17
f 464/790/1 472/791/1 467/792/1 465/793/1
f 461/794/2 470/795/2 469/796/2 462/797/2
f 464/790/65 461/794/65 462/797/65 463/798/65
f 465/793/66 466/799/66 461/794/66 464/790/66
f 463/798/42 468/800/42 472/791/42 464/790/42
f 466/799/44 471/801/44 470/795/44 461/794/44
f 463/798/17 462/797/17 469/796/17 468/800/17
f 476/802/1 484/803/1 479/804/1 477/805/1
f 473/806/2 482/807/2 481/808/2 474/809/2
f 476/802/65 473/806/65 474/809/65 475/810/65
f 477/805/66 478/811/66 473/806/66 476/802/66
f 475/810/42 480/812/42 484/803/42 476/802/42
f 478/811/44 483/813/44 482/807/44 473/806/44
f 475/810/17 474/809/17 481/808/17 480/812/17
f 445/552/6 611/767/6 403/691/6 575/548/6
f 403/814/6 460/815/6 459/816/6 575/817/6
f 136/309/6 161/312/6 460/818/6 403/819/6
f 357/643/45 578/820/45 358/557/45 609/561/45
f 358/821/93 488/822/93 163/316/93 135/315/93
f 578/823/16 423/824/16 488/825/16 358/826/16
f 459/827/9 460/828/9 487/829/9 396/830/9
f 394/831/9 486/832/9 485/833/9 343/834/9
f 343/834/9 485/833/9 488/835/9 423/836/9
f 396/830/9 487/829/9 486/832/9 394/831/9
f 487/829/9 169/333/9 168/332/9 486/832/9
f 460/828/9 161/334/9 169/333/9 487/829/9
f 485/833/9 162/336/9 163/335/9 488/835/9
f 486/832/9 168/332/9 162/336/9 485/833/9
f 615/837/8 458/698/8 371/697/8 614/765/8 644/838/8
f 489/719/8 594/839/8 602/840/8
f 437/718/8 593/841/8 489/719/8
f 489/719/8 593/841/8 604/842/8 589/843/8
f 489/719/8 589/843/8 594/839/8
f 618/844/8 436/751/8 381/627/8 619/626/8 647/845/8 648/846/8
f 489/719/8 602/840/8 587/847/8 405/766/8
f 623/848/8 497/849/8 496/582/8 622/581/8 645/850/8
f 504/585/8 592/851/8 582/852/8
f 500/646/8 584/853/8 504/585/8
f 504/585/8 584/853/8 598/854/8
f 504/585/8 598/854/8 592/851/8
f 627/855/8 494/856/8 495/749/8 626/748/8 652/857/8
f 504/585/8 582/852/8 597/858/8 503/586/8
f 502/859/8 599/860/8 597/861/8
f 406/862/8 584/853/8 587/847/8
f 502/636/8 585/863/8 599/864/8
f 631/865/8 510/673/8 509/672/8 630/769/8 646/866/8
f 513/724/8 585/863/8 517/725/8
f 517/725/8 585/863/8 603/867/8 588/868/8
f 517/725/8 588/868/8 596/869/8
f 635/870/8 507/703/8 508/612/8 634/611/8 654/871/8
f 517/725/8 596/869/8 586/872/8 516/776/8
f 515/668/8 583/873/8 586/874/8
f 639/875/8 523/876/8 522/759/8 638/758/8 657/877/8 658/878/8
f 526/578/8 583/879/8 591/880/8 530/779/8
f 530/779/8 591/880/8 601/881/8
f 530/779/8 601/881/8 595/882/8
f 643/883/8 520/884/8 521/685/8 642/684/8 660/885/8
f 530/779/8 595/882/8 590/886/8 529/887/8
f 528/554/8 600/888/8 590/889/8
f 578/890/9 493/891/9 379/892/9 355/893/9
f 389/894/79 506/895/79 505/896/79 384/897/79
f 357/643/94 492/642/94 493/898/94 578/820/94
f 440/734/12 530/779/12 529/887/12 424/778/12
f 386/647/30 500/646/30 504/585/30 383/584/30
f 392/655/78 495/749/78 494/856/78 393/656/78
f 449/686/78 521/685/78 520/884/78 450/770/78
f 404/575/9 514/574/9 525/899/9 435/900/9
f 402/722/10 512/901/10 513/724/10 411/721/10
f 355/603/10 379/902/10 437/718/10 363/602/10
f 621/903/16 623/904/16 406/862/16 365/905/16
f 388/906/67 502/859/67 498/907/67 387/908/67
f 391/583/75 496/582/75 497/849/75 390/660/75
f 448/760/75 522/759/75 523/876/75 447/773/75
f 545/909/6 552/910/6 554/911/6 548/912/6
f 548/912/95 554/911/95 553/913/95 547/914/95
f 540/915/49 541/916/49 543/917/49 539/918/49
f 539/918/50 543/917/50 544/919/50 542/920/50
f 538/921/95 544/919/95 543/917/95 537/922/95
f 535/923/6 542/920/6 544/919/6 538/921/6
f 549/924/50 553/913/50 554/911/50 552/910/50
f 550/925/49 551/926/49 553/913/49 549/924/49
f 537/922/96 543/917/96 541/916/96 536/927/96
f 536/927/16 541/916/16 540/915/16 533/928/16
f 547/914/96 553/913/96 551/926/96 546/929/96
f 546/929/16 551/926/16 550/925/16 534/930/16
f 556/931/6 563/932/6 565/933/6 559/934/6
f 559/934/95 565/933/95 564/935/95 558/936/95
f 560/937/50 564/935/50 565/933/50 563/932/50
f 561/938/49 562/939/49 564/935/49 560/937/49
f 558/936/96 564/935/96 562/939/96 557/940/96
f 557/940/16 562/939/16 561/938/16 555/941/16
f 577/942/52 580/943/52 581/944/52 579/945/52
f 574/946/6 569/947/6 575/948/6 570/949/6
f 571/950/53 572/951/53 574/946/53 570/949/53
f 569/947/97 574/946/97 572/951/97 568/952/97
f 568/952/16 572/951/16 571/950/16 566/953/16
f 576/954/95 581/944/95 580/943/95 567/955/95
f 573/956/6 579/945/6 581/944/6 576/954/6
f 577/942/16 578/957/16 567/955/16 580/943/16
f 595/958/8 524/555/8 528/554/8
f 600/550/8 527/549/8 529/887/8 590/886/8
f 602/959/8 406/663/8 587/960/8
f 584/853/8 406/862/8 505/961/8
f 584/853/8 500/646/8 499/645/8 587/847/8
f 588/868/8 519/650/8 511/962/8 596/869/8
f 595/958/8 528/554/8 590/889/8
f 492/642/8 379/902/8 493/898/8
f 592/963/8 498/907/8 502/859/8 582/964/8
f 599/864/8 501/965/8 503/586/8 597/858/8
f 585/966/8 518/763/8 519/762/8 588/967/8 603/968/8
f 583/879/8 525/577/8 514/969/8
f 589/843/8 491/599/8 380/970/8 594/839/8
f 582/964/8 502/859/8 597/861/8
f 585/863/8 502/636/8 518/971/8
f 585/863/8 513/724/8 512/901/8
f 601/881/8 532/689/8 524/972/8 595/882/8
f 593/973/8 490/727/8 491/726/8 589/974/8 604/975/8
f 587/847/8 499/645/8 438/976/8
f 596/977/8 511/669/8 515/668/8
f 583/879/8 514/969/8 516/776/8 586/872/8
f 591/978/8 531/707/8 532/706/8 601/979/8
f 593/841/8 492/642/8 490/980/8
f 593/841/8 437/718/8 379/902/8 492/642/8
f 598/854/8 506/701/8 498/981/8 592/851/8
f 596/977/8 515/668/8 586/874/8
f 583/879/8 515/607/8 531/982/8 591/880/8
f 583/879/8 526/578/8 525/577/8
f 594/983/8 380/664/8 406/663/8 602/959/8
f 587/847/8 438/976/8 405/766/8
f 584/984/8 505/896/8 506/895/8 598/985/8
f 585/863/8 512/901/8 501/965/8 599/864/8
f 605/558/3 366/600/3 608/986/3
f 606/692/3 409/987/3 388/637/3 605/558/3
f 606/692/3 413/608/3 412/988/3
f 606/692/3 414/651/3 409/987/3
f 606/692/3 446/690/3 441/989/3
f 605/558/3 387/990/3 389/702/3
f 605/558/3 608/986/3 607/559/3
f 605/558/3 364/991/3 366/600/3
f 611/767/3 445/552/3 444/992/3 606/692/3
f 606/692/3 441/989/3 413/608/3
f 605/558/3 384/993/3 365/905/3
f 606/692/3 412/988/3 414/651/3
f 606/692/3 444/992/3 446/690/3
f 605/558/3 388/637/3 387/990/3
f 605/558/3 389/702/3 384/993/3
f 605/558/3 365/905/3 364/991/3
f 492/642/8 615/641/8 644/994/8 614/995/8 490/980/8
f 361/768/88 490/980/88 614/995/88 612/996/88
f 367/595/16 458/698/16 615/837/16 613/596/16
f 361/768/98 612/996/98 613/640/98 357/643/98
f 491/599/8 618/598/8 648/997/8 647/998/8 619/999/8 380/970/8
f 364/991/86 380/970/86 619/999/86 616/1000/86
f 370/590/99 436/751/99 618/844/99 617/591/99
f 364/991/100 616/1000/100 649/1001/100 617/597/100 366/600/100
f 390/660/16 497/849/16 623/848/16 621/661/16
f 406/862/8 623/904/8 645/1002/8 622/1003/8 505/961/8
f 384/993/101 620/1004/101 621/903/101 365/905/101
f 384/993/86 505/961/86 622/1003/86 620/1004/86
f 506/701/8 627/700/8 652/1005/8 626/1006/8 498/981/8
f 387/990/86 498/981/86 626/1006/86 624/1007/86
f 393/656/102 494/856/102 627/855/102 625/657/102
f 387/990/103 624/1007/103 651/1008/103 650/1009/103 625/699/103 389/702/103
f 502/636/8 631/635/8 646/1010/8 630/1011/8 518/971/8
f 409/987/88 518/971/88 630/1011/88 628/1012/88
f 409/987/104 628/1012/104 629/633/104 388/637/104
f 415/674/16 510/673/16 631/865/16 653/1013/16 629/717/16
f 519/650/8 635/649/8 654/1014/8 634/1015/8 511/962/8
f 412/988/105 632/1016/105 656/1017/105 633/648/105 414/651/105
f 418/704/99 507/703/99 635/870/99 633/714/99
f 412/988/68 511/962/68 634/1015/68 655/1018/68 632/1016/68
f 515/607/8 639/606/8 658/1019/8 657/1020/8 638/1021/8 531/982/8
f 441/989/106 636/1022/106 659/1023/106 637/605/106 413/608/106
f 441/989/68 531/982/68 638/1021/68 636/1022/68
f 447/773/16 523/876/16 639/875/16 637/774/16
f 532/689/8 643/688/8 660/1024/8 642/1025/8 524/972/8
f 444/992/107 640/1026/107 661/1027/107 641/687/107 446/690/107
f 450/770/77 520/884/77 643/883/77 641/771/77
f 444/992/68 524/972/68 642/1025/68 640/1026/68
o Wall1.002_Cube.003_Cube.031
v 1.707485 0.648245 3.286188
v 1.668831 0.513594 2.753652
v 1.851578 -0.000000 2.608165
v 1.847539 -0.000000 3.421489
v 0.993237 0.770094 3.281594
v 0.993237 0.769015 2.572866
v 1.052785 -0.000000 2.264381
v 1.064558 -0.000000 3.816971
v 1.304165 0.579817 2.688479
v 1.432906 -0.000000 2.549005
v 1.421102 -0.000000 3.570380
v 1.338349 0.648245 3.286188
v 2.083829 -0.000000 3.006689
v 1.761657 0.688149 3.000864
v 0.993237 1.041715 3.004429
v 1.322584 1.018580 3.004429
v 1.765905 0.407078 -2.730477
v 1.711367 0.387384 -3.293249
v 1.792205 -0.000000 -3.564575
v 2.019566 -0.000000 -2.685920
v 0.993237 0.770094 -2.786588
v 0.993237 0.769015 -3.286464
v 1.052785 -0.000000 -3.807302
v 1.059119 -0.000000 -2.475866
v 1.331065 0.415021 -3.325250
v 1.432906 -0.000000 -3.677077
v 1.629964 -0.000000 -2.486967
v 1.377331 0.407078 -2.737329
v 2.119277 -0.000000 -3.029072
v 1.807069 0.523352 -3.013298
v 0.993237 0.769554 -3.019661
v 1.349484 0.581623 -3.016952
v 1.051717 -0.000000 -2.406290
v 1.022641 0.407919 -2.599587
v 1.342691 0.236838 -2.554262
v 1.377816 -0.000000 -2.391475
v 1.728976 0.443139 1.282220
v 1.712547 0.441386 0.689039
v 1.792205 -0.000000 0.416712
v 1.852531 -0.000000 1.431052
v 1.025969 0.971901 1.256619
v 1.025964 0.971751 0.702289
v 1.052785 -0.000000 0.173986
v 1.064559 -0.000000 1.645917
v 1.392308 0.850095 0.677255
v 1.432906 -0.000000 0.304211
v 1.542515 0.000183 1.571609
v 1.307299 0.706328 1.324391
v 2.108108 -0.000000 0.974266
v 1.811172 0.575784 0.977016
v 1.003553 0.570182 0.973549
v 1.563096 0.975369 1.050397
v 1.064559 -0.000000 1.893264
v 1.010046 0.592749 1.628625
v 1.193550 0.470861 1.516000
v 1.260428 -0.000000 1.721619
v 1.707485 0.429467 -0.755403
v 1.668830 0.512000 -1.287939
v 1.851578 -0.000000 -1.433426
v 1.847539 -0.000000 -0.620102
v 0.993237 0.573240 -0.759997
v 0.993237 0.688986 -1.468725
v 1.052784 -0.000238 -1.777210
v 1.064558 -0.000000 -0.224619
v 1.304165 0.554236 -1.353112
v 1.432906 -0.000000 -1.492586
v 1.421102 -0.000000 -0.471211
v 1.338349 0.561219 -0.755403
v 2.083829 -0.000000 -1.034902
v 1.761657 0.630907 -1.040727
v 0.993237 0.973583 -1.037161
v 1.322584 0.981627 -1.037161
v -1.707485 0.648245 3.286188
v -1.668830 0.513595 2.753652
v -1.851578 0.000001 2.608165
v -1.847538 0.000001 3.421489
v -0.993237 0.770095 3.281594
v -0.993237 0.769015 2.572866
v -1.052784 0.000000 2.264381
v -1.064558 0.000000 3.816971
v -1.304164 0.579818 2.688479
v -1.432906 0.000000 2.549005
v -1.421102 0.000000 3.570380
v -1.338348 0.648245 3.286188
v -2.083829 0.000001 3.006689
v -1.761656 0.688149 3.000864
v -0.993237 1.041715 3.004429
v -1.322584 1.018580 3.004429
v -1.765905 0.407078 -2.730477
v -1.711367 0.387385 -3.293249
v -1.792206 0.000001 -3.564575
v -2.019566 0.000001 -2.685920
v -0.993237 0.770095 -2.786588
v -0.993237 0.769015 -3.286464
v -1.052785 0.000000 -3.807302
v -1.059119 0.000000 -2.475866
v -1.331065 0.415021 -3.325250
v -1.432906 0.000000 -3.677077
v -1.629964 0.000000 -2.486967
v -1.377331 0.407078 -2.737329
v -2.119277 0.000001 -3.029072
v -1.807069 0.523353 -3.013298
v -0.993237 0.769555 -3.019661
v -1.349484 0.581624 -3.016952
v -1.051717 0.000000 -2.406290
v -1.022641 0.407920 -2.599587
v -1.342691 0.236839 -2.554262
v -1.377817 0.000000 -2.391475
v -1.728976 0.443140 1.282220
v -1.712547 0.441386 0.689039
v -1.792205 0.000001 0.416713
v -1.852531 0.000001 1.431052
v -1.025969 0.971901 1.256619
v -1.025964 0.971751 0.702289
v -1.052785 0.000000 0.173986
v -1.064558 0.000000 1.645917
v -1.392307 0.850095 0.677255
v -1.432906 0.000000 0.304211
v -1.542515 0.000184 1.571609
v -1.307298 0.706329 1.324391
v -2.108108 0.000001 0.974266
v -1.811172 0.575785 0.977016
v -1.003552 0.570182 0.973549
v -1.563095 0.975369 1.050397
v -1.064558 0.000000 1.893264
v -1.010045 0.592749 1.628625
v -1.193550 0.470861 1.516000
v -1.260428 0.000000 1.721619
v -1.707485 0.429467 -0.755403
v -1.668830 0.512001 -1.287938
v -1.851578 0.000001 -1.433426
v -1.847539 0.000001 -0.620101
v -0.993237 0.573240 -0.759997
v -0.993237 0.688987 -1.468725
v -1.052785 -0.000238 -1.777210
v -1.064558 0.000000 -0.224619
v -1.304165 0.554237 -1.353112
v -1.432906 0.000000 -1.492586
v -1.421102 0.000000 -0.471211
v -1.338349 0.561219 -0.755403
v -2.083829 0.000001 -1.034902
v -1.761657 0.630908 -1.040727
v -0.993237 0.973584 -1.037161
v -1.322584 0.981628 -1.037161
vt 0.721767 0.969675
vt 0.721767 0.969674
vt 0.721767 0.969675
vt 0.721767 0.969675
vt 0.721767 0.969675
vt 0.721767 0.969675
vt 0.721767 0.969675
vt 0.721767 0.969675
vt 0.721767 0.969675
vt 0.721767 0.969674
vt 0.721767 0.969675
vt 0.721767 0.969675
vt 0.721767 0.969675
vt 0.721767 0.969675
vt 0.721767 0.969675
vt 0.721767 0.969675
vt 0.721767 0.969675
vt 0.721767 0.969675
vt 0.721767 0.969675
vt 0.721767 0.969675
vt 0.721767 0.969675
vt 0.721767 0.969675
vt 0.721767 0.969675
vt 0.721767 0.969675
vt 0.721767 0.969674
vt 0.721767 0.969675
vt 0.721767 0.969675
vt 0.721767 0.969675
vt 0.721767 0.969675
vt 0.721767 0.969675
vt 0.721767 0.969675
vt 0.721767 0.969675
vt 0.721767 0.969675
vt 0.721767 0.969675
vt 0.721767 0.969675
vt 0.721767 0.969675
vt 0.721767 0.969675
vt 0.721767 0.969675
vt 0.721767 0.969675
vt 0.721767 0.969675
vt 0.721767 0.969675
vt 0.721767 0.969675
vt 0.721767 0.969675
vt 0.721767 0.969675
vt 0.721767 0.969675
vt 0.721767 0.969675
vt 0.721767 0.969675
vt 0.721767 0.969675
vt 0.721767 0.969675
vt 0.721767 0.969675
vt 0.721767 0.969675
vt 0.721767 0.969675
vt 0.721767 0.969675
vt 0.721767 0.969675
vt 0.721767 0.969675
vt 0.721767 0.969675
vt 0.721767 0.969675
vt 0.721767 0.969675
vt 0.721767 0.969675
vt 0.721767 0.969675
vt 0.721767 0.969675
vt 0.721767 0.969675
vt 0.721767 0.969675
vt 0.721767 0.969675
vt 0.721767 0.969675
vt 0.721767 0.969675
vt 0.721767 0.969675
vt 0.721767 0.969675
vt 0.721767 0.969675
vt 0.721767 0.969675
vt 0.721767 0.969675
vt 0.721767 0.969675
vt 0.721767 0.969675
vt 0.721767 0.969675
vt 0.721767 0.969675
vt 0.721767 0.969674
vt 0.721767 0.969675
vt 0.721767 0.969675
vt 0.721767 0.969675
vt 0.721767 0.969675
vt 0.721767 0.969675
vt 0.721767 0.969675
vt 0.721767 0.969675
vt 0.721767 0.969674
vt 0.721767 0.969675
vt 0.721767 0.969675
vt 0.721767 0.969675
vt 0.721767 0.969675
vt 0.721767 0.969675
vt 0.721767 0.969675
vt 0.721767 0.969675
vt 0.721767 0.969675
vt 0.721767 0.969675
vt 0.721767 0.969675
vt 0.721767 0.969675
vt 0.721767 0.969675
vt 0.721767 0.969674
vt 0.721767 0.969675
vt 0.721767 0.969675
vt 0.721767 0.969675
vt 0.721767 0.969675
vt 0.721767 0.969675
vt 0.721767 0.969675
vt 0.721767 0.969675
vt 0.721767 0.969675
vt 0.721767 0.969675
vt 0.721767 0.969675
vt 0.721767 0.969675
vt 0.721767 0.969675
vt 0.721767 0.969675
vt 0.721767 0.969675
vt 0.721767 0.969675
vt 0.721767 0.969675
vt 0.721767 0.969675
vt 0.721767 0.969675
vt 0.721767 0.969675
vt 0.721767 0.969675
vt 0.721767 0.969675
vt 0.721767 0.969675
vt 0.721767 0.969675
vt 0.721767 0.969675
vt 0.721767 0.969675
vt 0.721767 0.969675
vt 0.721767 0.969675
vt 0.721767 0.969675
vt 0.721767 0.969675
vt 0.721767 0.969675
vt 0.721767 0.969675
vt 0.721767 0.969675
vt 0.721767 0.969675
vt 0.721767 0.969675
vt 0.721767 0.969675
vt 0.721767 0.969675
vt 0.721767 0.969675
vt 0.721767 0.969675
vt 0.721767 0.969675
vt 0.721767 0.969675
vt 0.721767 0.969675
vt 0.721767 0.969675
vt 0.721767 0.969675
vt 0.721767 0.969675
vt 0.721767 0.969675
vt 0.721767 0.969675
vt 0.721767 0.969675
vn 0.8623 0.3381 0.3770
vn 0.5392 0.3323 -0.7739
vn 0.3588 0.4959 0.7908
vn 0.3421 0.6764 -0.6522
vn 0.3504 0.5982 -0.7207
vn 0.1736 0.3301 0.9279
vn 0.1740 0.2945 -0.9397
vn 0.3130 0.7593 0.5705
vn 0.1352 0.6525 0.7456
vn 0.7785 0.3847 -0.4959
vn -0.0000 -1.0000 -0.0000
vn 0.8169 0.5054 0.2777
vn 0.3786 0.5820 -0.7197
vn 0.3055 0.5414 0.7833
vn 0.5891 0.7707 -0.2429
vn 0.1098 0.8751 -0.4714
vn 0.2143 0.4477 0.8681
vn 0.1717 0.6283 -0.7587
vn 0.0553 0.8864 0.4596
vn 0.5694 0.7874 0.2363
vn 0.7490 0.4704 -0.4667
vn 0.0476 0.4865 0.8724
vn 0.3350 0.6103 0.7179
vn 0.8117 0.3965 0.4288
vn 0.1953 0.4407 -0.8762
vn 0.5031 0.5240 0.6872
vn -0.2860 0.8551 0.4325
vn 0.6951 0.5261 -0.4899
vn 0.3554 0.4018 0.8440
vn 0.4098 0.4380 -0.8001
vn 0.5802 0.4704 0.6649
vn -0.1114 0.9552 -0.2742
vn 0.7893 0.4147 -0.4529
vn -0.0003 -1.0000 0.0001
vn 0.0002 -1.0000 0.0001
vn 0.6301 0.3730 0.6810
vn 0.4377 0.4185 0.7958
vn 0.0001 -1.0000 -0.0004
vn 0.7965 0.4067 0.4475
vn 0.5192 0.3582 -0.7760
vn 0.2728 0.5875 0.7619
vn 0.2587 0.6963 -0.6695
vn 0.3617 0.6324 -0.6850
vn 0.2339 0.4232 0.8753
vn 0.1653 0.2994 -0.9397
vn 0.3694 0.6136 0.6979
vn -0.0023 0.5628 0.8266
vn 0.7849 0.4042 -0.4696
vn 0.0003 -1.0000 0.0001
vn -0.8623 0.3381 0.3770
vn -0.5392 0.3323 -0.7739
vn -0.3588 0.4959 0.7908
vn -0.3421 0.6764 -0.6522
vn -0.3504 0.5982 -0.7207
vn -0.1736 0.3301 0.9279
vn -0.1740 0.2945 -0.9397
vn -0.3130 0.7593 0.5705
vn -0.1352 0.6525 0.7456
vn -0.7785 0.3847 -0.4959
vn -0.8169 0.5054 0.2777
vn -0.3786 0.5820 -0.7197
vn -0.3055 0.5414 0.7833
vn -0.5891 0.7707 -0.2429
vn -0.1098 0.8751 -0.4714
vn -0.2143 0.4477 0.8681
vn -0.1717 0.6283 -0.7587
vn -0.0553 0.8864 0.4596
vn -0.5694 0.7874 0.2363
vn -0.7490 0.4704 -0.4667
vn -0.0476 0.4865 0.8724
vn -0.3350 0.6103 0.7179
vn -0.8117 0.3965 0.4288
vn -0.1953 0.4407 -0.8762
vn -0.5031 0.5240 0.6872
vn 0.2860 0.8551 0.4325
vn -0.6951 0.5261 -0.4899
vn -0.3554 0.4018 0.8440
vn -0.4098 0.4380 -0.8001
vn -0.5802 0.4704 0.6649
vn 0.1114 0.9552 -0.2742
vn -0.7893 0.4147 -0.4529
vn -0.0002 -1.0000 0.0001
vn -0.6301 0.3730 0.6810
vn -0.4377 0.4185 0.7958
vn -0.0001 -1.0000 -0.0004
vn -0.7965 0.4067 0.4475
vn -0.5192 0.3582 -0.7760
vn -0.2728 0.5875 0.7619
vn -0.2587 0.6963 -0.6695
vn -0.3617 0.6324 -0.6850
vn -0.2339 0.4232 0.8753
vn -0.1653 0.2994 -0.9397
vn -0.3694 0.6136 0.6979
vn 0.0023 0.5628 0.8266
vn -0.7849 0.4042 -0.4696
usemtl Medieval
s off
f 674/1028/108 675/1029/108 662/1030/108 665/1031/108
f 670/1032/109 671/1033/109 668/1034/109 667/1035/109
f 672/1036/110 673/1037/110 666/1038/110 669/1039/110
f 677/1040/111 670/1032/111 667/1035/111 676/1041/111
f 675/1029/112 663/1042/112 670/1032/112 677/1040/112
f 665/1031/113 662/1030/113 673/1037/113 672/1036/113
f 663/1042/114 664/1043/114 671/1033/114 670/1032/114
f 662/1030/115 675/1029/115 677/1040/115 673/1037/115
f 673/1037/116 677/1040/116 676/1041/116 666/1038/116
f 664/1043/117 663/1042/117 675/1029/117 674/1028/117
f 674/1028/118 665/1031/118 664/1043/118
f 672/1036/118 671/1033/118 664/1043/118 665/1031/118
f 671/1033/118 672/1036/118 669/1039/118 668/1034/118
f 690/1044/119 691/1045/119 678/1046/119 681/1047/119
f 686/1048/120 687/1049/120 684/1050/120 683/1051/120
f 689/1052/121 682/1053/121 695/1054/121 696/1055/121
f 693/1056/122 686/1048/122 683/1051/122 692/1057/122
f 691/1045/123 679/1058/123 686/1048/123 693/1056/123
f 681/1047/124 678/1046/124 689/1052/124 688/1059/124
f 679/1058/125 680/1060/125 687/1049/125 686/1048/125
f 678/1046/126 691/1045/126 693/1056/126 689/1052/126
f 689/1052/127 693/1056/127 692/1057/127 682/1053/127
f 680/1060/128 679/1058/128 691/1045/128 690/1044/128
f 690/1044/118 681/1047/118 680/1060/118
f 688/1059/118 687/1049/118 680/1060/118 681/1047/118
f 687/1049/118 688/1059/118 685/1061/118 684/1050/118
f 697/1062/129 696/1055/129 695/1054/129 694/1063/129
f 688/1059/130 689/1052/130 696/1055/130 697/1062/130
f 685/1061/118 688/1059/118 697/1062/118 694/1063/118
f 710/1064/131 711/1065/131 698/1066/131 701/1067/131
f 706/1068/132 707/1069/132 704/1070/132 703/1071/132
f 709/1072/133 702/1073/133 715/1074/133 716/1075/133
f 713/1076/134 706/1068/134 703/1071/134 712/1077/134
f 711/1065/135 699/1078/135 706/1068/135 713/1076/135
f 701/1067/136 698/1066/136 709/1072/136 708/1079/136
f 699/1078/137 700/1080/137 707/1069/137 706/1068/137
f 698/1066/138 711/1065/138 713/1076/138 709/1072/138
f 709/1072/139 713/1076/139 712/1077/139 702/1073/139
f 700/1080/140 699/1078/140 711/1065/140 710/1064/140
f 710/1064/118 701/1067/118 700/1080/118
f 708/1079/141 707/1069/141 700/1080/141 701/1067/141
f 707/1069/142 708/1079/142 705/1081/142 704/1070/142
f 717/1082/143 716/1075/143 715/1074/143 714/1083/143
f 708/1079/144 709/1072/144 716/1075/144 717/1082/144
f 705/1081/145 708/1079/145 717/1082/145 714/1083/145
f 730/1084/146 731/1085/146 718/1086/146 721/1087/146
f 726/1088/147 727/1089/147 724/1090/147 723/1091/147
f 728/1092/148 729/1093/148 722/1094/148 725/1095/148
f 733/1096/149 726/1088/149 723/1091/149 732/1097/149
f 731/1085/150 719/1098/150 726/1088/150 733/1096/150
f 721/1087/151 718/1086/151 729/1093/151 728/1092/151
f 719/1098/152 720/1099/152 727/1089/152 726/1088/152
f 718/1086/153 731/1085/153 733/1096/153 729/1093/153
f 729/1093/154 733/1096/154 732/1097/154 722/1094/154
f 720/1099/155 719/1098/155 731/1085/155 730/1084/155
f 730/1084/118 721/1087/118 720/1099/118
f 728/1092/118 727/1089/118 720/1099/118 721/1087/118
f 727/1089/156 728/1092/156 725/1095/156 724/1090/156
f 746/1100/157 737/1101/157 734/1102/157 747/1103/157
f 742/1104/158 739/1105/158 740/1106/158 743/1107/158
f 744/1108/159 741/1109/159 738/1110/159 745/1111/159
f 749/1112/160 748/1113/160 739/1105/160 742/1104/160
f 747/1103/161 749/1112/161 742/1104/161 735/1114/161
f 737/1101/162 744/1108/162 745/1111/162 734/1102/162
f 735/1114/163 742/1104/163 743/1107/163 736/1115/163
f 734/1102/164 745/1111/164 749/1112/164 747/1103/164
f 745/1111/165 738/1110/165 748/1113/165 749/1112/165
f 736/1115/166 746/1100/166 747/1103/166 735/1114/166
f 746/1100/118 736/1115/118 737/1101/118
f 744/1108/118 737/1101/118 736/1115/118 743/1107/118
f 743/1107/118 740/1106/118 741/1109/118 744/1108/118
f 762/1116/167 753/1117/167 750/1118/167 763/1119/167
f 758/1120/168 755/1121/168 756/1122/168 759/1123/168
f 761/1124/169 768/1125/169 767/1126/169 754/1127/169
f 765/1128/170 764/1129/170 755/1121/170 758/1120/170
f 763/1119/171 765/1128/171 758/1120/171 751/1130/171
f 753/1117/172 760/1131/172 761/1124/172 750/1118/172
f 751/1130/173 758/1120/173 759/1123/173 752/1132/173
f 750/1118/174 761/1124/174 765/1128/174 763/1119/174
f 761/1124/175 754/1127/175 764/1129/175 765/1128/175
f 752/1132/176 762/1116/176 763/1119/176 751/1130/176
f 762/1116/118 752/1132/118 753/1117/118
f 760/1131/118 753/1117/118 752/1132/118 759/1123/118
f 759/1123/118 756/1122/118 757/1133/118 760/1131/118
f 769/1134/177 766/1135/177 767/1126/177 768/1125/177
f 760/1131/178 769/1134/178 768/1125/178 761/1124/178
f 757/1133/118 766/1135/118 769/1134/118 760/1131/118
f 782/1136/179 773/1137/179 770/1138/179 783/1139/179
f 778/1140/180 775/1141/180 776/1142/180 779/1143/180
f 781/1144/181 788/1145/181 787/1146/181 774/1147/181
f 785/1148/182 784/1149/182 775/1141/182 778/1140/182
f 783/1139/183 785/1148/183 778/1140/183 771/1150/183
f 773/1137/184 780/1151/184 781/1144/184 770/1138/184
f 771/1150/185 778/1140/185 779/1143/185 772/1152/185
f 770/1138/186 781/1144/186 785/1148/186 783/1139/186
f 781/1144/187 774/1147/187 784/1149/187 785/1148/187
f 772/1152/188 782/1136/188 783/1139/188 771/1150/188
f 782/1136/118 772/1152/118 773/1137/118
f 780/1151/156 773/1137/156 772/1152/156 779/1143/156
f 779/1143/189 776/1142/189 777/1153/189 780/1151/189
f 789/1154/190 786/1155/190 787/1146/190 788/1145/190
f 780/1151/191 789/1154/191 788/1145/191 781/1144/191
f 777/1153/192 786/1155/192 789/1154/192 780/1151/192
f 802/1156/193 793/1157/193 790/1158/193 803/1159/193
f 798/1160/194 795/1161/194 796/1162/194 799/1163/194
f 800/1164/195 797/1165/195 794/1166/195 801/1167/195
f 805/1168/196 804/1169/196 795/1161/196 798/1160/196
f 803/1159/197 805/1168/197 798/1160/197 791/1170/197
f 793/1157/198 800/1164/198 801/1167/198 790/1158/198
f 791/1170/199 798/1160/199 799/1163/199 792/1171/199
f 790/1158/200 801/1167/200 805/1168/200 803/1159/200
f 801/1167/201 794/1166/201 804/1169/201 805/1168/201
f 792/1171/202 802/1156/202 803/1159/202 791/1170/202
f 802/1156/118 792/1171/118 793/1157/118
f 800/1164/118 793/1157/118 792/1171/118 799/1163/118
f 799/1163/141 796/1162/141 797/1165/141 800/1164/141
o ColliderWall3_Cube.003_Cube.008
v 1.069991 -0.000000 4.000000
v 1.116140 2.540751 3.092542
v 1.113302 2.539518 2.905116
v 1.777032 -0.000000 2.749472
v 1.781331 -0.000000 3.263097
v 1.069991 4.290699 4.000000
v 0.866767 4.292350 4.000000
v 0.866005 3.458668 4.000000
v 1.000750 -0.000000 2.745230
v 1.069991 0.000001 -4.000000
v 0.866004 3.458668 -4.000000
v 1.070485 4.286930 -4.000633
v 0.867076 4.286930 -4.000633
v 1.000751 2.539518 2.910208
v 1.000751 2.540751 3.087450
v 1.000750 -0.000000 3.267339
v 1.116140 2.540752 -2.910299
v 1.113301 2.539519 -3.097725
v 1.777032 0.000001 -3.253369
v 1.781331 0.000001 -2.739744
v 0.819051 2.540005 -3.092546
v 0.920106 0.000001 -2.735363
v 0.915873 0.000001 -3.257466
v 0.821872 2.541231 -2.915306
v 0.000001 3.458668 4.000000
v 0.000000 3.458668 -4.000000
v 1.116140 2.540751 1.093353
v 1.113301 2.539518 0.905927
v 1.777032 -0.000000 0.750282
v 1.781331 -0.000000 1.263908
v 1.000750 -0.000000 0.746041
v 1.000750 2.539518 0.911019
v 1.000750 2.540751 1.088261
v 1.000750 -0.000000 1.268150
v 1.116139 2.540751 -0.912278
v 1.113301 2.539518 -1.099703
v 1.777032 -0.000000 -1.255348
v 1.781331 -0.000000 -0.741723
v 1.000750 -0.000000 -1.259590
v 1.000750 2.539518 -1.094612
v 1.000750 2.540751 -0.917370
v 1.000750 -0.000000 -0.737481
v 0.000000 0.000000 4.000000
v -0.000000 0.000001 -4.000000
v 1.069991 3.402313 4.000000
v 1.070310 3.402313 -4.000409
v 1.369991 4.290670 4.000015
v 1.370485 4.286901 -4.000618
v 1.370310 3.402283 -4.000394
v 1.369991 3.402283 4.000015
v -1.069991 0.000000 4.000000
v -1.116138 2.540752 3.092542
v -1.113300 2.539518 2.905116
v -1.777032 0.000001 2.749472
v -1.781331 0.000001 3.263097
v -1.069989 4.290699 4.000000
v -0.866765 4.292350 4.000000
v -0.866003 3.458669 4.000000
v -1.000750 0.000000 2.745230
v -1.069991 0.000001 -4.000000
v -0.866004 3.458669 -4.000000
v -1.070484 4.286930 -4.000633
v -0.867075 4.286930 -4.000633
v -1.000749 2.539518 2.910208
v -1.000749 2.540752 3.087450
v -1.000750 0.000000 3.267339
v -1.116139 2.540753 -2.910299
v -1.113301 2.539519 -3.097725
v -1.777032 0.000001 -3.253369
v -1.781331 0.000001 -2.739744
v -0.819050 2.540005 -3.092546
v -0.920106 0.000001 -2.735363
v -0.915874 0.000001 -3.257466
v -0.821871 2.541231 -2.915306
v -1.116139 2.540752 1.093353
v -1.113300 2.539518 0.905927
v -1.777032 0.000001 0.750283
v -1.781331 0.000001 1.263908
v -1.000750 0.000000 0.746041
v -1.000749 2.539518 0.911019
v -1.000749 2.540752 1.088261
v -1.000750 0.000000 1.268150
v -1.116139 2.540752 -0.912277
v -1.113301 2.539518 -1.099703
v -1.777032 0.000001 -1.255348
v -1.781331 0.000001 -0.741723
v -1.000750 0.000000 -1.259590
v -1.000750 2.539518 -1.094612
v -1.000750 2.540752 -0.917370
v -1.000750 0.000000 -0.737481
v -1.069989 3.402313 4.000000
v -1.070309 3.402313 -4.000409
v -1.369989 4.290670 4.000015
v -1.370484 4.286901 -4.000618
v -1.370309 3.402283 -4.000394
v -1.369989 3.402283 4.000015
vt 0.094684 0.969245
vt 0.094683 0.969245
vt 0.094683 0.969245
vt 0.094684 0.969245
vt 0.094684 0.969246
vt 0.094683 0.969246
vt 0.159073 0.972514
vt 0.159073 0.972514
vt 0.159073 0.972514
vt 0.159073 0.972514
vt 0.159073 0.972514
vt 0.159073 0.972514
vt 0.094684 0.969245
vt 0.094684 0.969245
vt 0.094684 0.969245
vt 0.094684 0.969245
vt 0.094683 0.969245
vt 0.094683 0.969246
vt 0.094683 0.969245
vt 0.094683 0.969245
vt 0.030682 0.969318
vt 0.030682 0.969318
vt 0.030682 0.969318
vt 0.030682 0.969318
vt 0.094684 0.969246
vt 0.094683 0.969246
vt 0.094684 0.969245
vt 0.094683 0.969245
vt 0.094683 0.969245
vt 0.094684 0.969245
vt 0.094684 0.969246
vt 0.094683 0.969246
vt 0.094684 0.969246
vt 0.094683 0.969246
vt 0.094684 0.969245
vt 0.094683 0.969245
vt 0.094683 0.969245
vt 0.094684 0.969245
vt 0.094684 0.969246
vt 0.094683 0.969246
vt 0.094684 0.969246
vt 0.094683 0.969246
vt 0.159073 0.972514
vt 0.159073 0.972514
vt 0.030682 0.969318
vt 0.115471 0.971429
vt 0.030682 0.969318
vt 0.113609 0.971382
vt 0.030682 0.969318
vt 0.030682 0.969318
vt 0.030682 0.969318
vt 0.030682 0.969318
vt 0.030682 0.969318
vt 0.030682 0.969318
vt 0.030682 0.969318
vt 0.030682 0.969318
vt 0.113609 0.971382
vt 0.115471 0.971429
vt 0.094684 0.969245
vt 0.094684 0.969245
vt 0.094683 0.969245
vt 0.094683 0.969245
vt 0.094683 0.969246
vt 0.094684 0.969246
vt 0.159073 0.972514
vt 0.159073 0.972514
vt 0.159073 0.972514
vt 0.159073 0.972514
vt 0.159073 0.972514
vt 0.159073 0.972514
vt 0.094684 0.969245
vt 0.094684 0.969245
vt 0.094684 0.969245
vt 0.094684 0.969245
vt 0.094683 0.969245
vt 0.094683 0.969246
vt 0.094683 0.969245
vt 0.094683 0.969245
vt 0.030682 0.969318
vt 0.030682 0.969318
vt 0.094683 0.969246
vt 0.094684 0.969246
vt 0.094684 0.969245
vt 0.094684 0.969245
vt 0.094683 0.969245
vt 0.094683 0.969245
vt 0.094683 0.969246
vt 0.094684 0.969246
vt 0.094683 0.969246
vt 0.094684 0.969246
vt 0.094684 0.969245
vt 0.094684 0.969245
vt 0.094683 0.969245
vt 0.094683 0.969245
vt 0.094683 0.969246
vt 0.094684 0.969246
vt 0.094683 0.969246
vt 0.094684 0.969246
vt 0.159073 0.972514
vt 0.159073 0.972514
vt 0.115471 0.971429
vt 0.030682 0.969318
vt 0.030682 0.969318
vt 0.113609 0.971382
vt 0.030682 0.969318
vt 0.030682 0.969318
vt 0.030682 0.969318
vt 0.030682 0.969318
vt 0.030682 0.969318
vt 0.030682 0.969318
vt 0.113609 0.971382
vt 0.115471 0.971429
vn -0.0010 0.0629 -0.9980
vn 0.9674 0.2530 -0.0103
vn -1.0000 0.0011 -0.0000
vn 0.0041 1.0000 -0.0006
vn 0.0016 1.0000 -0.0068
vn -0.0009 0.0628 -0.9980
vn -0.0005 0.0687 0.9976
vn 0.0000 1.0000 -0.0000
vn -0.0009 0.0687 0.9976
vn 0.0000 1.0000 -0.0068
vn 0.0001 1.0000 -0.0005
vn 0.0000 0.0000 1.0000
vn -0.0017 -0.0002 -1.0000
vn -0.0000 0.0000 -1.0000
vn 1.0000 -0.0000 0.0000
vn 1.0000 -0.0001 0.0001
vn -0.0001 -1.0000 -0.0000
vn 0.0001 -0.0003 -1.0000
vn -0.0001 0.0000 1.0000
vn -0.0000 -1.0000 -0.0000
vn 0.0010 0.0629 -0.9980
vn -0.9674 0.2530 -0.0103
vn 1.0000 0.0011 -0.0000
vn -0.0041 1.0000 -0.0006
vn -0.0016 1.0000 -0.0068
vn 0.0009 0.0628 -0.9980
vn 0.0005 0.0687 0.9976
vn 0.0009 0.0687 0.9976
vn -0.0001 1.0000 -0.0005
vn 0.0017 -0.0002 -1.0000
vn -1.0000 -0.0000 0.0000
vn -1.0000 -0.0001 0.0001
vn 0.0001 -1.0000 -0.0000
vn -0.0001 -0.0003 -1.0000
vn 0.0001 -0.0000 1.0000
usemtl COLLIDER
s off
f 808/1172/203 809/1173/203 814/1174/203 819/1175/203
f 809/1173/204 808/1172/204 807/1176/204 810/1177/204
f 816/1178/205 813/1179/205 812/1180/205 818/1181/205
f 818/1181/206 812/1180/206 811/1182/206 817/1183/206
f 826/1184/207 829/1185/207 822/1186/207 823/1187/207
f 824/1188/204 823/1187/204 822/1186/204 825/1189/204
f 828/1190/208 826/1184/208 823/1187/208 824/1188/208
f 825/1189/209 822/1186/209 829/1185/209 827/1191/209
f 813/1192/210 816/1193/210 831/1194/210 830/1195/210
f 810/1177/211 807/1176/211 820/1196/211 821/1197/211
f 808/1172/212 819/1175/212 820/1196/212 807/1176/212
f 833/1198/203 834/1199/203 836/1200/203 837/1201/203
f 834/1199/204 833/1198/204 832/1202/204 835/1203/204
f 835/1203/211 832/1202/211 838/1204/211 839/1205/211
f 833/1198/212 837/1201/212 838/1204/212 832/1202/212
f 841/1206/203 842/1207/203 844/1208/203 845/1209/203
f 842/1207/204 841/1206/204 840/1210/204 843/1211/204
f 843/1211/211 840/1210/211 846/1212/211 847/1213/211
f 841/1206/212 845/1209/212 846/1212/212 840/1210/212
f 817/1183/213 811/1182/213 852/1214/213 853/1215/213
f 812/1180/214 813/1179/214 806/1216/214 850/1217/214 811/1182/214
f 813/1192/214 830/1195/214 848/1218/214 806/1216/214
f 817/1183/215 851/1219/215 815/1220/215 816/1178/215 818/1181/215
f 831/1194/216 816/1193/216 815/1220/216 849/1221/216
f 851/1222/217 850/1223/217 806/1216/217 815/1220/217
f 853/1224/218 852/1225/218 855/1226/218 854/1227/218
f 850/1223/219 851/1222/219 854/1227/219 855/1226/219
f 851/1219/220 817/1183/220 853/1215/220 854/1228/220
f 811/1182/221 850/1217/221 855/1229/221 852/1214/221
f 843/1211/222 847/1213/222 844/1208/222 842/1207/222
f 828/1190/222 824/1188/222 825/1189/222 827/1191/222
f 835/1203/222 839/1205/222 836/1200/222 834/1199/222
f 810/1177/222 821/1197/222 814/1174/222 809/1173/222
f 815/1220/222 806/1216/222 848/1218/222 849/1221/222
f 858/1230/223 869/1231/223 864/1232/223 859/1233/223
f 859/1233/224 860/1234/224 857/1235/224 858/1230/224
f 866/1236/225 868/1237/225 862/1238/225 863/1239/225
f 868/1237/226 867/1240/226 861/1241/226 862/1238/226
f 876/1242/227 873/1243/227 872/1244/227 879/1245/227
f 874/1246/224 875/1247/224 872/1244/224 873/1243/224
f 878/1248/228 874/1246/228 873/1243/228 876/1242/228
f 875/1247/229 877/1249/229 879/1245/229 872/1244/229
f 863/1250/210 830/1195/210 831/1194/210 866/1251/210
f 860/1234/230 871/1252/230 870/1253/230 857/1235/230
f 858/1230/212 857/1235/212 870/1253/212 869/1231/212
f 881/1254/223 885/1255/223 884/1256/223 882/1257/223
f 882/1257/224 883/1258/224 880/1259/224 881/1254/224
f 883/1258/230 887/1260/230 886/1261/230 880/1259/230
f 881/1254/212 880/1259/212 886/1261/212 885/1255/212
f 889/1262/223 893/1263/223 892/1264/223 890/1265/223
f 890/1265/224 891/1266/224 888/1267/224 889/1262/224
f 891/1266/230 895/1268/230 894/1269/230 888/1267/230
f 889/1262/212 888/1267/212 894/1269/212 893/1263/212
f 867/1240/231 899/1270/231 898/1271/231 861/1241/231
f 862/1238/214 861/1241/214 896/1272/214 856/1273/214 863/1239/214
f 863/1250/214 856/1273/214 848/1218/214 830/1195/214
f 867/1240/232 868/1237/232 866/1236/232 865/1274/232 897/1275/232
f 831/1194/216 849/1221/216 865/1274/216 866/1251/216
f 897/1276/233 865/1274/233 856/1273/233 896/1277/233
f 899/1278/234 900/1279/234 901/1280/234 898/1281/234
f 896/1277/235 901/1280/235 900/1279/235 897/1276/235
f 897/1275/236 900/1282/236 899/1270/236 867/1240/236
f 861/1241/237 898/1271/237 901/1283/237 896/1272/237
f 891/1266/222 890/1265/222 892/1264/222 895/1268/222
f 878/1248/222 877/1249/222 875/1247/222 874/1246/222
f 883/1258/222 882/1257/222 884/1256/222 887/1260/222
f 860/1234/222 859/1233/222 864/1232/222 871/1252/222
f 865/1274/222 849/1221/222 848/1218/222 856/1273/222
